<?xml version="1.0" encoding="UTF-8"?><!DOCTYPE svg PUBLIC "-//W3C//DTD SVG 1.1//EN" "http://www.w3.org/Graphics/SVG/1.1/DTD/svg11.dtd">
<svg xmlns="http://www.w3.org/2000/svg" xmlns:xlink="http://www.w3.org/1999/xlink">
<symbol id="alanwatts" viewBox="0 0 24 24">
<path d="M19.743 18.045L15.912 17.087L15.586 15.783C16.611 14.768 17.313 13.374 17.521 11.944C18.089 11.784 18.529 11.297 18.605 10.686L18.855 8.68598C18.908 8.26397 18.7779 7.83698 18.498 7.51697C18.3352 7.3308 18.1292 7.18758 17.898 7.09997L17.99 5.21695L18.364 4.84195C18.927 4.24294 19.394 3.21595 18.418 1.72594C17.668 0.581016 16.394 0 14.63 0C13.934 0 12.332 0 10.84 1.002C6.57998 1.09102 6 3.06998 6 5.00002C6 5.44903 6.10898 6.46003 6.18098 7.07002C5.92119 7.1519 5.68878 7.30338 5.50898 7.50802C5.36825 7.66754 5.26303 7.85514 5.20028 8.0584C5.13753 8.26165 5.11869 8.47593 5.145 8.68702L5.39498 10.687C5.47697 11.339 5.97197 11.852 6.59798 11.974C6.80498 13.349 7.47098 14.698 8.43698 15.696L8.08898 17.089L4.25798 18.047C1.74998 18.672 0 20.914 0 23.5C0 23.776 0.224016 24 0.500016 24H23.5C23.776 24 24 23.774 24 23.498C24.0016 22.2442 23.5832 21.0259 22.8116 20.0376C22.0401 19.0493 20.9597 18.3478 19.743 18.045Z" />
</symbol><symbol id="focus" viewBox="0 0 24 24">
<path d="M21.0464 10.8671C20.5304 6.7477 17.2633 3.48322 13.1464 2.96698V1.73674C13.1464 1.43528 13.0266 1.14617 12.8134 0.933012C12.6003 0.71985 12.3112 0.600098 12.0097 0.600098H12.0025C11.7011 0.600098 11.412 0.71985 11.1988 0.933012C10.9856 1.14617 10.8659 1.43528 10.8659 1.73674V2.95978C6.74892 3.47818 3.48444 6.7429 2.9658 10.8599H1.73796C1.4365 10.8599 1.14739 10.9796 0.934232 11.1928C0.721071 11.4059 0.601318 11.695 0.601318 11.9965V12.0037C0.601318 12.3052 0.721071 12.5943 0.934232 12.8074C1.14739 13.0206 1.4365 13.1403 1.73796 13.1403H2.961C3.477 17.2573 6.74412 20.5218 10.8611 21.0404V22.2635C10.8611 22.5649 10.9808 22.854 11.194 23.0672C11.4072 23.2803 11.6963 23.4001 11.9977 23.4001H12.0049C12.3064 23.4001 12.5955 23.2803 12.8086 23.0672C13.0218 22.854 13.1416 22.5649 13.1416 22.2635V21.0404C17.2585 20.522 20.523 17.2573 21.0416 13.1403H22.2623C22.5637 13.1403 22.8528 13.0206 23.066 12.8074C23.2792 12.5943 23.3989 12.3052 23.3989 12.0037C23.3989 11.7022 23.2792 11.4131 23.066 11.2C22.8528 10.9868 22.5637 10.8671 22.2623 10.8671H21.0464ZM18.742 13.1475C18.262 16.004 16.0052 18.2605 13.1464 18.7407V17.7001C13.1464 17.3986 13.0266 17.1095 12.8134 16.8964C12.6003 16.6832 12.3112 16.5635 12.0097 16.5635H12.0025C11.7011 16.5635 11.412 16.6832 11.1988 16.8964C10.9856 17.1095 10.8659 17.3986 10.8659 17.7001V18.7407C8.00916 18.2607 5.75268 16.004 5.26548 13.1403H6.30612C6.60757 13.1403 6.89668 13.0206 7.10984 12.8074C7.32301 12.5943 7.44276 12.3052 7.44276 12.0037V11.9965C7.44276 11.695 7.32301 11.4059 7.10984 11.1928C6.89668 10.9796 6.60757 10.8599 6.30612 10.8599H5.26548C5.74548 8.00074 8.0022 5.74426 10.8659 5.25946V6.3049C10.8659 6.60635 10.9856 6.89546 11.1988 7.10862C11.412 7.32178 11.7011 7.44154 12.0025 7.44154H12.0097C12.3112 7.44154 12.6003 7.32178 12.8134 7.10862C13.0266 6.89546 13.1464 6.60635 13.1464 6.3049V5.26426C16.0052 5.74426 18.262 8.00074 18.7468 10.8671H17.7013C17.3999 10.8671 17.1108 10.9868 16.8976 11.2C16.6844 11.4131 16.5647 11.7022 16.5647 12.0037V12.0109C16.5647 12.3124 16.6844 12.6015 16.8976 12.8146C17.1108 13.0278 17.3999 13.1475 17.7013 13.1475H18.742Z M12.0036 14.8842C13.5912 14.8842 14.8781 13.5973 14.8781 12.0097C14.8781 10.4222 13.5912 9.13525 12.0036 9.13525C10.4161 9.13525 9.12915 10.4222 9.12915 12.0097C9.12915 13.5973 10.4161 14.8842 12.0036 14.8842Z" />
</symbol><symbol id="grimes" viewBox="0 0 24 24">
<path d="M5.79301 8.68966V9.93104C5.79301 10.2603 5.9238 10.576 6.1566 10.8088C6.38941 11.0416 6.70516 11.1724 7.03439 11.1724H7.44818V11.3338C7.41629 11.9914 7.53718 12.6475 7.80138 13.2505C8.06557 13.8536 8.4659 14.3873 8.97094 14.8097C9.14683 14.9644 9.28683 15.1556 9.38117 15.37C9.47551 15.5844 9.52192 15.8168 9.51715 16.051V16.8786C9.51719 17.2144 9.4151 17.5423 9.22442 17.8187C9.03374 18.0951 8.76349 18.307 8.44956 18.4262L4.41508 19.9655C3.84879 20.1818 3.36116 20.5643 3.01627 21.0628C2.67138 21.5613 2.48536 22.1524 2.48267 22.7586V24H21.5171V22.7586C21.517 22.1503 21.3321 21.5564 20.9871 21.0555C20.642 20.5545 20.153 20.1701 19.5847 19.9531L15.5503 18.4138C15.2363 18.2946 14.9661 18.0827 14.7754 17.8063C14.5847 17.5299 14.4826 17.202 14.4827 16.8662V16.0386C14.4779 15.8044 14.5243 15.572 14.6186 15.3576C14.713 15.1432 14.853 14.952 15.0289 14.7972C15.5322 14.3761 15.9315 13.8445 16.1956 13.2437C16.4598 12.643 16.5816 11.9894 16.5516 11.3338V11.1724H16.9654C17.2947 11.1724 17.6104 11.0416 17.8432 10.8088C18.076 10.576 18.2068 10.2603 18.2068 9.93104V8.68966C18.2068 8.36042 18.076 8.04467 17.8432 7.81187C17.6104 7.57906 17.2947 7.44828 16.9654 7.44828C17.5475 6.83348 17.8718 6.01903 17.8718 5.17241C17.8718 4.3258 17.5475 3.51135 16.9654 2.89655C16.9654 1.24138 15.724 0.413793 13.6551 0.413793C11.1723 0.413793 10.7585 0.827586 9.10336 1.24138C7.44818 1.65517 6.6206 0 6.6206 0C5.79301 1.24138 5.79301 1.65517 5.79301 3.72414C5.8388 5.05929 6.26993 6.35268 7.03439 7.44828C6.70516 7.44828 6.38941 7.57906 6.1566 7.81187C5.9238 8.04467 5.79301 8.36042 5.79301 8.68966Z" />
</symbol><symbol id="jamesblake" viewBox="0 0 24 24">
<path d="M21.2845 22.7586V24H2.25V22.7586C2.25019 22.1503 2.43504 21.5564 2.78009 21.0555C3.12515 20.5545 3.61415 20.1701 4.18241 19.9531L8.2169 18.4138C8.53083 18.2946 8.80107 18.0827 8.99175 17.8063C9.18243 17.5299 9.28453 17.202 9.28448 16.8662V16.0386C9.28925 15.8044 9.24284 15.572 9.1485 15.3576C9.05416 15.1432 8.91416 14.952 8.73828 14.7972C8.23495 14.3761 7.83566 13.8445 7.57153 13.2437C7.3074 12.643 7.18556 11.9894 7.21552 11.3338V11.1724H6.80172C6.47249 11.1724 6.15674 11.0416 5.92394 10.8088C5.69113 10.576 5.56034 10.2603 5.56034 9.93104V8.68966C5.56054 8.44598 5.63245 8.20776 5.76711 8.00467C5.90176 7.80158 6.09321 7.64262 6.31759 7.54759C6.08106 6.80393 5.96511 6.02721 5.97414 5.2469C5.97414 2.18483 7.90241 0 10.6086 0C13.1783 0 15.0486 1.18345 15.5741 2.80138C15.7066 3.1531 15.5452 3.01241 15.839 3.12414C17.4693 3.76552 17.8459 5.75586 17.4238 7.44828L17.3328 7.5931C17.5285 7.70117 17.6914 7.86011 17.8043 8.05312C17.9172 8.24613 17.9759 8.46606 17.9741 8.68966V9.93104C17.9741 10.2603 17.8434 10.576 17.6105 10.8088C17.3777 11.0416 17.062 11.1724 16.7328 11.1724H16.319V11.3338C16.3509 11.9914 16.23 12.6475 15.9658 13.2505C15.7016 13.8536 15.3013 14.3873 14.7962 14.8097C14.6203 14.9644 14.4803 15.1556 14.386 15.37C14.2916 15.5844 14.2452 15.8168 14.25 16.051V16.8786C14.25 17.2144 14.3521 17.5423 14.5427 17.8187C14.7334 18.0951 15.0037 18.307 15.3176 18.4262L19.3521 19.9655C19.9184 20.1818 20.406 20.5643 20.7509 21.0628C21.0958 21.5613 21.2818 22.1524 21.2845 22.7586Z" />
</symbol><symbol id="moon" viewBox="0 0 24 24">
<path d="M23.7648 14.9755C23.6578 14.8687 23.5227 14.7944 23.3751 14.7613C23.2276 14.7282 23.0737 14.7375 22.9313 14.7883C21.0174 15.4707 18.9491 15.596 16.9668 15.1496C14.9844 14.7033 13.1695 13.7036 11.7327 12.2668C10.2959 10.83 9.29637 9.01497 8.85013 7.03265C8.4039 5.05033 8.52932 2.98208 9.21182 1.0682C9.26253 0.925758 9.27184 0.771856 9.23865 0.624339C9.20546 0.476822 9.13114 0.341733 9.0243 0.234732C8.91747 0.127731 8.78249 0.0532012 8.63503 0.0197823C8.48756 -0.0136366 8.33364 -0.00457546 8.19112 0.0459152C6.4656 0.655239 4.8997 1.64584 3.60996 2.944C1.29787 5.2578 -0.000618153 8.39511 2.20762e-07 11.6661C0.000618595 14.937 1.3003 18.0739 3.61325 20.3868C5.92621 22.6997 9.06307 23.9994 12.3341 24C15.6051 24.0006 18.7425 22.7021 21.0563 20.3901C22.3546 19.1001 23.3452 17.534 23.9544 15.8082C24.0047 15.6657 24.0136 15.5118 23.98 15.3644C23.9465 15.217 23.8719 15.0822 23.7648 14.9755Z" />
</symbol><symbol id="pause" viewBox="0 0 40 40">
<path d="M11.0151 4.42622e-06H8.34227C7.64132 -0.000898415 6.94707 0.136326 6.29918 0.403835C5.65129 0.671345 5.06246 1.0639 4.56634 1.55906C4.07022 2.05422 3.67654 2.64229 3.40778 3.28966C3.13902 3.93704 3.00045 4.63102 3 5.33196V34.6646C3.00045 35.3657 3.13899 36.0599 3.40771 36.7074C3.67643 37.355 4.07006 37.9433 4.56614 38.4387C5.06221 38.9342 5.65101 39.327 6.29892 39.5949C6.94683 39.8628 7.64116 40.0005 8.34227 40H11.0151C11.7162 40.0005 12.4106 39.8628 13.0585 39.5949C13.7064 39.327 14.2952 38.9342 14.7912 38.4387C15.2873 37.9433 15.681 37.355 15.9497 36.7074C16.2184 36.0599 16.3569 35.3657 16.3574 34.6646V5.33196C16.3556 3.91661 15.7918 2.55991 14.79 1.56007C13.7883 0.560229 12.4305 -0.000907525 11.0151 4.42622e-06ZM32.3842 4.42622e-06H29.7113C28.296 -0.000907525 26.9382 0.560229 25.9364 1.56007C24.9346 2.55991 24.3709 3.91661 24.3691 5.33196V34.6646C24.3695 35.3657 24.5081 36.0599 24.7768 36.7074C25.0455 37.355 25.4391 37.9433 25.9352 38.4387C26.4313 38.9342 27.0201 39.327 27.668 39.5949C28.3159 39.8628 29.0102 40.0005 29.7113 40H32.3842C33.0853 40.0005 33.7796 39.8628 34.4275 39.5949C35.0754 39.327 35.6642 38.9342 36.1603 38.4387C36.6564 37.9433 37.05 37.355 37.3187 36.7074C37.5875 36.0599 37.726 35.3657 37.7264 34.6646V5.33196C37.726 4.63102 37.5874 3.93704 37.3187 3.28966C37.0499 2.64229 36.6562 2.05422 36.1601 1.55906C35.664 1.0639 35.0751 0.671345 34.4273 0.403835C33.7794 0.136326 33.0851 -0.000898415 32.3842 4.42622e-06Z" />
</symbol><symbol id="plastikman" viewBox="0 0 24 24">
<path d="M8.94189 22.2004C8.94189 22.6082 8.74505 24.0001 9.27932 24.0001L19.8944 22.7207C20.0772 22.7066 20.2038 22.5379 20.1756 22.3551C20.0772 21.4412 19.3742 19.3323 19.1071 18.32C22.9735 13.385 23.1844 9.11082 21.5535 5.93331C20.2178 3.34632 17.6308 1.49043 14.7907 0.604666C11.9647 -0.295158 8.85753 -0.224859 6.46737 1.02646C3.8382 2.41837 2.06667 5.20221 2.4744 9.68727C2.48846 9.82786 2.4744 9.94034 2.615 10.0388C2.72748 10.1372 3.51482 10.9245 2.96649 12.0071C2.72748 12.3727 1.65894 13.8771 1.57458 14.1583C1.49022 14.3832 1.12467 15.5502 2.69936 15.7189C2.71342 16.0845 2.7556 16.5062 2.89619 16.8859C3.03679 17.2655 3.26175 17.5607 3.6273 17.7013C3.38829 18.0106 3.16333 18.3903 3.17739 18.7277C3.19145 19.1073 3.41641 19.3885 4.06315 19.4447C3.82414 21.2303 4.61148 21.9333 5.8628 22.1723C6.81887 22.3692 7.97177 22.2567 8.94189 22.2004ZM9.01219 10.0809L14.144 4.2602C14.4111 3.96495 14.861 4.28832 14.6783 4.62576L12.9349 8.42189L14.7767 8.45001C15.0719 8.46407 15.1985 8.8015 15.0016 9.0124L9.71517 14.9456C9.44804 15.2268 8.99813 14.9034 9.1809 14.566L10.9384 10.7839L9.20902 10.6433C8.92783 10.6293 8.80129 10.2778 9.01219 10.0809Z" />
</symbol><symbol id="play" viewBox="0 0 40 40">
<path d="M32.7125 15.4625L11.25 3.0625C10.6365 2.69953 9.93782 2.50545 9.225 2.5C8.10446 2.5 7.02982 2.94513 6.23747 3.73747C5.44513 4.52981 5 5.60446 5 6.725V33.3375C5.00014 34.0811 5.19948 34.8111 5.57728 35.4515C5.95508 36.092 6.49755 36.6196 7.14829 36.9794C7.79903 37.3392 8.53429 37.5182 9.2776 37.4976C10.0209 37.4771 10.7451 37.2577 11.375 36.8625L32.8625 23.2875C33.5306 22.8694 34.079 22.2853 34.4543 21.5922C34.8295 20.8991 35.0188 20.1205 35.0037 19.3325C34.9886 18.5445 34.7696 17.7738 34.3681 17.0956C33.9665 16.4174 33.3962 15.8547 32.7125 15.4625Z" />
</symbol><symbol id="recovery" viewBox="0 0 24 24">
<path d="M2.30081 16.7783C1.54678 17.1749 0.839204 17.6897 0.205969 18.3229C0.07411 18.4547 5.72055e-07 18.634 5.72055e-07 18.8205C5.72055e-07 19.007 0.07411 19.1858 0.205969 19.3176C1.90059 21.0121 4.1258 21.8591 6.35175 21.8591C7.76044 21.8591 9.16922 21.519 10.4433 20.8401C7.45149 20.4963 4.68178 19.1647 2.52033 17.0032C2.4463 16.9291 2.37313 16.8541 2.30081 16.7783ZM21.699 16.7785C21.6267 16.8542 21.5536 16.9291 21.4796 17.0032C19.318 19.1649 16.5479 20.4966 13.5557 20.8402C14.83 21.5194 16.2388 21.8595 17.6482 21.8595C19.8736 21.8595 22.0998 21.0121 23.794 19.318C23.9259 19.1861 24 19.0069 24 18.8204C24 18.634 23.9259 18.4551 23.794 18.3233C23.1606 17.6899 22.453 17.1751 21.699 16.7785ZM8.17364 4.48403C7.53444 4.0656 6.85713 3.7085 6.15075 3.41748C5.97127 3.34352 5.77875 3.34928 5.61263 3.41842C5.4465 3.48756 5.30672 3.62013 5.23275 3.79956C4.94267 4.50273 4.71939 5.23163 4.56586 5.97663C5.453 6.24217 6.30984 6.60001 7.12233 7.0443C7.38238 6.1565 7.73474 5.29839 8.17364 4.48403ZM19.4342 5.97667C19.2807 5.23168 19.0574 4.50278 18.7673 3.79961C18.7322 3.7142 18.6806 3.63656 18.6154 3.57115C18.5502 3.50574 18.4727 3.45386 18.3874 3.41847C18.3022 3.38288 18.2108 3.36447 18.1185 3.36431C18.0261 3.36415 17.9346 3.38223 17.8493 3.41753C17.1429 3.70852 16.4656 4.06562 15.8264 4.48408C16.2653 5.29844 16.6177 6.15655 16.8778 7.04434C17.6902 6.60005 18.5471 6.24221 19.4342 5.97667ZM9.57666 19.2797C7.63655 16.8977 6.58153 13.9461 6.58153 10.8322C6.58132 10.0409 6.65035 9.25121 6.78783 8.47202C4.96331 7.39502 2.87752 6.82005 0.703126 6.82009C0.610774 6.81998 0.51931 6.83811 0.433991 6.87346C0.348671 6.90881 0.271179 6.96067 0.205969 7.02606C0.140575 7.09127 0.088713 7.16876 0.0533657 7.25408C0.0180185 7.3394 -0.00011742 7.43087 5.72055e-07 7.52322C-0.000140053 10.7287 1.24805 13.7423 3.51469 16.0089C5.19886 17.693 7.29549 18.8143 9.57666 19.2797ZM17.4184 10.8322C17.4184 13.9461 16.3634 16.8977 14.4233 19.2797C16.7045 18.8143 18.8012 17.693 20.4853 16.0089C22.752 13.7423 24.0001 10.7287 24 7.52322C24 7.32911 23.9213 7.15328 23.794 7.02606C23.7288 6.96069 23.6513 6.90884 23.566 6.87349C23.4807 6.83815 23.3892 6.82 23.2969 6.82009C21.1225 6.82 19.0367 7.39502 17.2121 8.47202C17.3496 9.25121 17.4186 10.0409 17.4184 10.8322Z M12.4972 2.34655C12.36 2.2093 12.18 2.14062 12 2.14062C11.8201 2.14062 11.6401 2.2093 11.5028 2.34655C9.23612 4.61305 7.98779 7.62659 7.98779 10.8321C7.98779 14.0376 9.23612 17.0511 11.5028 19.3176C11.6401 19.4549 11.8201 19.5236 12 19.5236C12.18 19.5236 12.3599 19.4549 12.4972 19.3176C14.7639 17.0511 16.0122 14.0376 16.0122 10.8321C16.0122 7.62659 14.7639 4.61305 12.4972 2.34655Z" />
</symbol><symbol id="relax" viewBox="0 0 24 24">
<path d="M22.4928 15.3315H21.6881C21.5614 15.3315 21.4364 15.3015 21.3235 15.244C21.2106 15.1865 21.1128 15.1031 21.0383 15.0007L16.5299 8.80408C16.3521 8.5715 16.1231 8.38303 15.8607 8.2533C15.5983 8.12358 15.3095 8.05609 15.0168 8.05609H14.0255C13.9227 8.05609 13.8241 8.01524 13.7513 7.94253C13.6786 7.86981 13.6378 7.77119 13.6378 7.66836V6.74985C13.6378 6.56849 13.7305 6.40078 13.8821 6.3012C14.8246 5.68203 15.4434 4.61028 15.4292 3.39499C15.4073 1.52347 13.8593 0.00171446 11.9876 0.01029C10.1031 0.0189592 8.578 1.54934 8.578 3.43595C8.578 4.6338 9.19281 5.68808 10.1241 6.30041C10.2761 6.40031 10.3696 6.56807 10.3696 6.74999V7.66836C10.3696 7.77119 10.3288 7.86981 10.2561 7.94253C10.1833 8.01524 10.0847 8.05609 9.9819 8.05609H8.72772C8.43498 8.05609 8.14618 8.12358 7.88376 8.2533C7.62134 8.38303 7.39235 8.5715 7.21458 8.80408L2.71338 15.0503C2.63892 15.1537 2.54098 15.2378 2.42761 15.2959C2.31425 15.3539 2.18871 15.3842 2.06136 15.3842H1.50713C0.674794 15.3841 0 16.0589 0 16.8913C0 17.7237 0.674747 18.3984 1.50713 18.3984H2.9877C2.07424 18.9088 1.4562 19.8846 1.4562 21.0053C1.4562 22.6537 2.79248 23.99 4.44085 23.99H17.0851L7.15207 18.4862C6.36063 18.1789 5.51903 18.021 4.67 18.0206H4.61147C4.72953 17.9267 4.83474 17.8176 4.92441 17.6962L7.78633 13.4346V17.1909C7.8002 17.1975 7.81417 17.2037 7.8278 17.2112L12.0337 19.5423L15.9582 17.188V13.4346L18.8274 17.6435C18.9211 17.7704 19.0317 17.8838 19.1562 17.9806C18.0712 17.9968 16.9253 18.295 15.9582 18.8321V18.8274L13.4541 20.3296L19.8808 23.8915C21.2529 23.6226 22.2883 22.414 22.2883 20.9632V20.9488C22.2883 19.8231 21.6648 18.8499 20.7445 18.3458H22.4929C23.3253 18.3458 24 17.6711 24 16.8387C24 16.0062 23.3252 15.3315 22.4928 15.3315Z" />
</symbol><symbol id="sleep-rain" viewBox="0 0 24 24">
<path d="M4.96875 14.1562H19.0312C21.7448 14.1562 24 11.9011 24 9.1875C24 7.18252 22.7406 5.36006 20.8969 4.60603C20.1334 1.91438 17.6353 0 14.8125 0C13.245 0 11.7666 0.571312 10.602 1.617C8.30381 0.920859 5.76802 2.08941 4.75725 4.22353C2.14125 4.33486 0 6.54455 0 9.1875C0 11.9011 2.25516 14.1562 4.96875 14.1562ZM15.5156 19.0781V16.2656C15.5156 15.877 15.2011 15.5625 14.8125 15.5625C14.4239 15.5625 14.1094 15.877 14.1094 16.2656V19.0781C14.1094 19.4667 14.4239 19.7812 14.8125 19.7812C15.2011 19.7812 15.5156 19.4667 15.5156 19.0781ZM18.3281 20.4844V17.6719C18.3281 17.2833 18.0136 16.9688 17.625 16.9688C17.2364 16.9688 16.9219 17.2833 16.9219 17.6719V20.4844C16.9219 20.873 17.2364 21.1875 17.625 21.1875C18.0136 21.1875 18.3281 20.873 18.3281 20.4844ZM12.7031 20.4844V17.6719C12.7031 17.2833 12.3886 16.9688 12 16.9688C11.6114 16.9688 11.2969 17.2833 11.2969 17.6719V20.4844C11.2969 20.873 11.6114 21.1875 12 21.1875C12.3886 21.1875 12.7031 20.873 12.7031 20.4844ZM9.89062 19.0781V16.2656C9.89062 15.877 9.57609 15.5625 9.1875 15.5625C8.79891 15.5625 8.48438 15.877 8.48438 16.2656V19.0781C8.48438 19.4667 8.79891 19.7812 9.1875 19.7812C9.57609 19.7812 9.89062 19.4667 9.89062 19.0781ZM7.07812 20.4844V17.6719C7.07812 17.2833 6.76359 16.9688 6.375 16.9688C5.98641 16.9688 5.67188 17.2833 5.67188 17.6719V20.4844C5.67188 20.873 5.98641 21.1875 6.375 21.1875C6.76359 21.1875 7.07812 20.873 7.07812 20.4844ZM4.26562 19.0781V16.2656C4.26562 15.877 3.95109 15.5625 3.5625 15.5625C3.17391 15.5625 2.85938 15.877 2.85938 16.2656V19.0781C2.85938 19.4667 3.17391 19.7812 3.5625 19.7812C3.95109 19.7812 4.26562 19.4667 4.26562 19.0781ZM21.1406 19.0781V16.2656C21.1406 15.877 20.8261 15.5625 20.4375 15.5625C20.0489 15.5625 19.7344 15.877 19.7344 16.2656V19.0781C19.7344 19.4667 20.0489 19.7812 20.4375 19.7812C20.8261 19.7812 21.1406 19.4667 21.1406 19.0781Z" />
</symbol><symbol id="sleep" viewBox="0 0 24 24">
<path d="M11.2968 7.73438C11.2968 7.34578 10.9822 7.03125 10.5936 7.03125H9.47848L11.0907 5.41898C11.1892 5.32071 11.2562 5.19543 11.2834 5.05902C11.3105 4.9226 11.2966 4.78119 11.2433 4.65272C11.1901 4.52422 11.1 4.41439 10.9843 4.33714C10.8687 4.25989 10.7327 4.21869 10.5936 4.21875H7.78114C7.39255 4.21875 7.07801 4.53328 7.07801 4.92188C7.07801 5.31047 7.39255 5.625 7.78114 5.625H8.8963L7.28403 7.23727C7.1856 7.33554 7.11855 7.46082 7.0914 7.59723C7.06424 7.73365 7.0782 7.87506 7.1315 8.00353C7.18467 8.13205 7.27479 8.24189 7.39044 8.31914C7.50608 8.3964 7.64206 8.43759 7.78114 8.4375H10.5936C10.9822 8.4375 11.2968 8.12297 11.2968 7.73438ZM12.7567 3.78478C12.8651 4.04775 13.1219 4.21875 13.4061 4.21875H16.2186C16.6072 4.21875 16.9218 3.90422 16.9218 3.51562C16.9218 3.12703 16.6072 2.8125 16.2186 2.8125H15.1035L16.7157 1.20023C16.8142 1.10196 16.8812 0.976681 16.9084 0.840265C16.9355 0.70385 16.9216 0.562444 16.8683 0.433969C16.8151 0.30547 16.725 0.195642 16.6093 0.11839C16.4937 0.0411384 16.3577 -6.37157e-05 16.2186 7.39579e-08H13.4061C13.0175 7.39579e-08 12.703 0.314531 12.703 0.703125C12.703 1.09172 13.0175 1.40625 13.4061 1.40625H14.5213L12.909 3.01852C12.8106 3.11678 12.7435 3.24207 12.7164 3.3785C12.6893 3.51492 12.7033 3.65633 12.7567 3.78478ZM21.8905 11.25H11.9999C10.8368 11.25 9.89051 12.1963 9.89051 13.3594V16.1719C9.89051 16.5605 10.205 16.875 10.5936 16.875H23.9999V13.3594C23.9999 12.1963 23.0536 11.25 21.8905 11.25Z M8.48438 16.1719V15.4688H1.40625V7.73438C1.40625 7.34578 1.09172 7.03125 0.703125 7.03125C0.314531 7.03125 0 7.34578 0 7.73438V23.2969C0 23.6855 0.314531 24 0.703125 24C1.09172 24 1.40625 23.6855 1.40625 23.2969V21.1406H22.5938V23.2969C22.5938 23.6852 22.9085 24 23.2969 24C23.6852 24 24 23.6852 24 23.2969V18.2812H10.5938C9.42881 18.2812 8.48438 17.3368 8.48438 16.1719Z M8.48438 11.9531C8.48438 13.1181 7.53994 14.0625 6.375 14.0625C5.21006 14.0625 4.26562 13.1181 4.26562 11.9531C4.26562 10.7882 5.21006 9.84375 6.375 9.84375C7.53994 9.84375 8.48438 10.7882 8.48438 11.9531Z" />
</symbol><symbol id="spatial-orbit" viewBox="0 0 24 24">
<path d="M19.2424 12.0075C19.2424 15.983 16.0196 19.2058 12.044 19.2058C8.06856 19.2058 4.84571 15.983 4.84571 12.0075C4.84571 8.03196 8.06856 4.8091 12.044 4.8091C16.0196 4.8091 19.2424 8.03196 19.2424 12.0075ZM24.0413 3.0097C24.0413 4.66608 22.6984 6.00897 21.042 6.00897C19.3854 6.00897 18.0425 4.66608 18.0425 3.0097C18.0425 1.35313 19.3854 0.0102539 21.042 0.0102539C22.6984 0.0102539 24.0413 1.35313 24.0413 3.0097ZM6.04543 20.4055C6.04543 21.7307 4.97114 22.805 3.64598 22.805C2.32082 22.805 1.24658 21.7307 1.24658 20.4055C1.24658 19.0803 2.32087 18.0061 3.64598 18.0061C4.9711 18.0061 6.04543 19.0804 6.04543 20.4055Z M22.2991 6.99533C21.9944 7.12536 21.8527 7.47768 21.9826 7.78251C21.9826 7.78251 21.9829 7.78251 21.9829 7.78269C24.3213 13.2627 21.7745 19.6009 16.2945 21.9392C14.9141 22.5283 13.426 22.8228 11.9253 22.804C10.4246 22.7853 8.94436 22.4535 7.57917 21.8301C7.27467 21.6995 6.92203 21.8403 6.79129 22.1446C6.66459 22.44 6.79293 22.7826 7.08239 22.9219C13.1136 25.6632 20.2251 22.9963 22.9663 16.9653C23.6541 15.4523 24.0199 13.8129 24.0406 12.1511C24.0613 10.4892 23.7365 8.84122 23.0867 7.31155C22.9562 7.00705 22.604 6.86553 22.2991 6.99533H22.2991ZM1.67548 17.3207C1.76112 17.3204 1.84574 17.302 1.92377 17.2667C2.22518 17.1297 2.35863 16.7745 2.22171 16.4731C2.22171 16.4727 2.22152 16.4726 2.22134 16.4722C-0.24547 11.0444 2.15487 4.64445 7.58287 2.17745C8.9442 1.55872 10.4192 1.22958 11.9145 1.21089C13.4097 1.19221 14.8925 1.48438 16.2688 2.06889C16.5737 2.19887 16.9262 2.05717 17.0562 1.75248C17.1862 1.44761 17.0447 1.0951 16.7398 0.965119C10.6504 -1.63355 3.60762 1.19621 1.00896 7.28558C0.354418 8.81931 0.0270592 10.4727 0.0478026 12.1402C0.068546 13.8076 0.436935 15.4524 1.12943 16.9693C1.17713 17.0741 1.25399 17.163 1.35082 17.2253C1.44765 17.2876 1.56033 17.3207 1.67548 17.3207Z" />
</symbol><symbol id="study" viewBox="0 0 24 24">
<path d="M24 7.03125V22.5938H16.8483C14.883 22.5938 13.8495 23.9263 13.7442 24H10.2558C10.149 23.9253 9.13022 22.5938 7.15172 22.5938H0V5.625H1.40625V21.1875H7.15781C9.35541 21.1875 10.5787 22.4274 10.8834 22.5938H13.1166C13.4212 22.4274 14.6448 21.1875 16.8422 21.1875H22.5938V7.03125H24Z M9.88734 20.3423C9.03328 19.973 8.10938 19.7812 7.15781 19.7812H2.8125V2.8125H4.21875V16.9688H6.32812C8.24438 16.9688 9.81187 18.4692 9.88734 20.3423ZM16.8422 4.21875C15.3528 4.21875 13.9183 4.60894 12.6537 5.35505C12.6867 5.67836 12.7032 6.00314 12.7031 6.32812V21.158C12.8095 21.0806 12.9177 21.0058 13.0276 20.9335C15.1987 19.4855 16.6946 19.7812 21.1875 19.7812V4.21875H16.8422Z M11.2969 20.4844C11.2969 17.7705 9.06792 15.5625 6.32812 15.5625H5.625V0C9.1402 0 11.2969 2.8388 11.2969 6.32812V20.4844Z" />
</symbol><symbol id="sun" viewBox="0 0 24 24">
<path d="M12 0C12.6025 0 13.0909 0.488435 13.0909 1.09089V3.27272C13.0909 3.87522 12.6025 4.36361 12 4.36361C11.3975 4.36361 10.9091 3.87517 10.9091 3.27272V1.09089C10.9091 0.488435 11.3975 0 12 0ZM12 5.9478C8.65761 5.9478 5.94805 8.65731 5.94805 11.9998C5.94805 15.3421 8.65761 18.0517 12 18.0517C15.3424 18.0517 18.0519 15.3421 18.0519 11.9998C18.0519 8.65731 15.3424 5.9478 12 5.9478ZM5.08307 3.54006C4.65704 3.11403 3.96631 3.11403 3.54031 3.54006C3.11428 3.96609 3.11428 4.65682 3.54031 5.08286L5.09876 6.6413C5.52479 7.06733 6.21552 7.06733 6.64151 6.6413C7.06754 6.21527 7.06754 5.52453 6.64151 5.0985L5.08307 3.54006ZM0 12C0 11.3975 0.488435 10.9091 1.09089 10.9091H3.27272C3.87522 10.9091 4.36361 11.3975 4.36361 12C4.36361 12.6025 3.87522 13.0909 3.27272 13.0909H1.09089C0.488435 13.0909 0 12.6025 0 12ZM6.64151 18.9013C7.06754 18.4753 7.06754 17.7847 6.64151 17.3585C6.21548 16.9325 5.52475 16.9325 5.09876 17.3585L3.54031 18.917C3.11428 19.343 3.11428 20.0338 3.54031 20.4598C3.96635 20.8858 4.65704 20.8858 5.08307 20.4598L6.64151 18.9013ZM12 19.6363C12.6025 19.6363 13.0909 20.1247 13.0909 20.7272V22.9091C13.0909 23.5116 12.6025 24 12 24C11.3975 24 10.9091 23.5116 10.9091 22.9091V20.7272C10.9091 20.1247 11.3975 19.6363 12 19.6363ZM18.9013 17.3585C18.4752 16.9325 17.7845 16.9325 17.3585 17.3585C16.9324 17.7847 16.9324 18.4753 17.3585 18.9013L18.9169 20.4598C19.343 20.8858 20.0337 20.8858 20.4596 20.4598C20.8858 20.0338 20.8858 19.343 20.4596 18.917L18.9013 17.3585ZM19.6363 12C19.6363 11.3975 20.1247 10.9091 20.7272 10.9091H22.9091C23.5116 10.9091 24 11.3975 24 12C24 12.6025 23.5116 13.0909 22.9091 13.0909H20.7272C20.1247 13.0909 19.6363 12.6025 19.6363 12ZM20.4597 5.08281C20.8858 4.65678 20.8858 3.96605 20.4597 3.54002C20.0337 3.11398 19.343 3.11398 18.9169 3.54002L17.3586 5.09846C16.9325 5.52449 16.9325 6.21522 17.3586 6.64126C17.7846 7.06729 18.4752 7.06729 18.9013 6.64126L20.4597 5.08281Z" />
</symbol><symbol id="update" viewBox="0 0 20 20">
<path d="M12.8126 5.7811H16.7195C16.6621 5.69903 16.5974 5.62227 16.5263 5.55173L12.2501 1.28298C12.1831 1.2159 12.1106 1.15464 12.0332 1.09985V4.99985C12.0332 5.20673 12.1153 5.40516 12.2614 5.55162C12.4075 5.69808 12.6057 5.78061 12.8126 5.7811Z M17.0306 6.71872H12.8125C12.3567 6.71872 11.9195 6.53764 11.5972 6.21531C11.2748 5.89298 11.0938 5.45581 11.0938 4.99997V0.782471H4.6875C4.46185 0.782307 4.23838 0.82661 4.02986 0.912849C3.82134 0.999088 3.63185 1.12557 3.47224 1.28507C3.31262 1.44457 3.186 1.63397 3.09961 1.84242C3.01322 2.05088 2.96875 2.27432 2.96875 2.49997V17.5C2.96859 17.7257 3.01293 17.9493 3.09925 18.1579C3.18556 18.3665 3.31216 18.556 3.47179 18.7157C3.63143 18.8753 3.82097 19.0019 4.02957 19.0882C4.23817 19.1745 4.46174 19.2189 4.6875 19.2187H15.3125C15.5383 19.2189 15.7618 19.1745 15.9704 19.0882C16.179 19.0019 16.3686 18.8753 16.5282 18.7157C16.6878 18.556 16.8144 18.3665 16.9008 18.1579C16.9871 17.9493 17.0314 17.7257 17.0312 17.5V6.76872L17.0306 6.71872ZM10 16.0481C9.02399 16.0476 8.0881 15.6597 7.39795 14.9695C6.70781 14.2794 6.31987 13.3435 6.31938 12.3675C6.31938 12.2432 6.36876 12.1239 6.45667 12.036C6.54458 11.9481 6.66381 11.8987 6.78813 11.8987C6.91245 11.8987 7.03167 11.9481 7.11958 12.036C7.20749 12.1239 7.25688 12.2432 7.25688 12.3675C7.25731 12.9563 7.44727 13.5294 7.79864 14.0019C8.15001 14.4744 8.64415 14.8213 9.20794 14.9913C9.77174 15.1612 10.3753 15.1451 10.9292 14.9455C11.4832 14.7458 11.9582 14.3732 12.284 13.8827C12.6097 13.3921 12.769 12.8098 12.7381 12.2217C12.7073 11.6337 12.488 11.0712 12.1126 10.6175C11.7373 10.1637 11.2259 9.84282 10.6541 9.70223C10.0823 9.56165 9.48042 9.60885 8.9375 9.83685L9.82438 10.1531C9.88236 10.1738 9.9357 10.2058 9.98134 10.2471C10.027 10.2884 10.064 10.3384 10.0904 10.394C10.1167 10.4497 10.1319 10.51 10.1349 10.5715C10.1379 10.633 10.1288 10.6945 10.1081 10.7525C10.0874 10.8105 10.0555 10.8638 10.0141 10.9094C9.97278 10.9551 9.92286 10.9921 9.8672 11.0185C9.81155 11.0448 9.75125 11.06 9.68974 11.063C9.62824 11.066 9.56674 11.0569 9.50875 11.0362L7.42688 10.2925C7.36028 10.2686 7.29995 10.23 7.25038 10.1795C7.20082 10.129 7.1633 10.068 7.14064 10.001C7.11798 9.93396 7.11077 9.86269 7.11953 9.79249C7.12829 9.72229 7.15281 9.65499 7.19125 9.5956L8.39625 7.74185C8.42961 7.68989 8.47288 7.64502 8.52359 7.60979C8.5743 7.57455 8.63145 7.54966 8.69178 7.53651C8.7521 7.52337 8.81443 7.52223 8.8752 7.53317C8.93597 7.54412 8.99398 7.56692 9.04594 7.60028C9.09789 7.63365 9.14277 7.67692 9.178 7.72762C9.21323 7.77833 9.23813 7.83548 9.25127 7.89581C9.26442 7.95614 9.26555 8.01847 9.25461 8.07923C9.24367 8.14 9.22086 8.19802 9.1875 8.24997L8.76688 8.89685C9.27215 8.71787 9.81042 8.65141 10.3441 8.70209C10.8777 8.75278 11.3938 8.91939 11.8564 9.19029C12.3189 9.46119 12.7167 9.82983 13.022 10.2705C13.3272 10.7111 13.5326 11.2131 13.6237 11.7413C13.7148 12.2695 13.6894 12.8113 13.5493 13.3287C13.4093 13.8461 13.1579 14.3267 12.8128 14.7369C12.4677 15.1471 12.0372 15.4769 11.5513 15.7034C11.0655 15.9299 10.536 16.0475 10 16.0481Z" />
</symbol><symbol id="volume" viewBox="0 0 16 16">
<path d="M9.29813 0.585849C9.11253 0.497315 8.89387 0.520782 8.73387 0.649849L3.5456 4.80025H1.06667C0.478933 4.80025 0 5.27918 0 5.86692V10.1336C0 10.7224 0.478933 11.2002 1.06667 11.2002H3.5456L8.7328 15.3506C8.82784 15.4259 8.94547 15.4668 9.06667 15.4669C9.1456 15.4669 9.22453 15.4488 9.29813 15.4136C9.38857 15.3702 9.4649 15.3021 9.51831 15.2171C9.57172 15.1322 9.60003 15.0339 9.6 14.9336V1.06692C9.59991 0.966478 9.57155 0.868095 9.51817 0.78302C9.46479 0.697945 9.38853 0.629615 9.29813 0.585849ZM12.2997 4.22852C12.0896 4.02158 11.7525 4.02478 11.5456 4.23278C11.3387 4.44292 11.3408 4.77998 11.5499 4.98798C12.3563 5.78372 12.8 6.85358 12.8 8.00025C12.8 9.14692 12.3563 10.2168 11.5499 11.0125C11.3408 11.2184 11.3387 11.5565 11.5456 11.7666C11.5951 11.8167 11.6541 11.8565 11.7191 11.8836C11.7841 11.9107 11.8538 11.9246 11.9243 11.9245C12.0597 11.9245 12.1952 11.8733 12.2997 11.7698C13.3109 10.7746 13.8667 9.43492 13.8667 8.00025C13.8667 6.56558 13.3109 5.22585 12.2997 4.22852Z M13.8047 2.72561C13.5946 2.51761 13.2575 2.51974 13.0495 2.72881C12.8426 2.93787 12.8447 3.27601 13.0527 3.48294C14.2655 4.68507 14.9332 6.28934 14.9332 8.00027C14.9332 9.71121 14.2655 11.3144 13.0527 12.5165C12.8447 12.7245 12.8426 13.0627 13.0495 13.2717C13.1551 13.3763 13.2916 13.4285 13.4282 13.4285C13.5636 13.4285 13.7002 13.3773 13.8047 13.2739C15.2212 11.8712 15.9999 9.99814 15.9999 8.00027C15.9999 6.00241 15.2212 4.12934 13.8047 2.72561Z" />
</symbol><symbol id="wintersleep" viewBox="0 0 24 24">
<path d="M11.5781 9.84375C11.1898 9.84375 10.875 10.1586 10.875 10.5469C10.875 10.9352 11.1898 11.25 11.5781 11.25H12.75V12.4219C12.75 12.8102 13.0648 13.125 13.4531 13.125C13.8414 13.125 14.1562 12.8102 14.1562 12.4219V10.8381L15.5625 9.43186V11.0156C15.5625 11.4039 15.8773 11.7188 16.2656 11.7188C16.6539 11.7188 16.9688 11.4039 16.9688 11.0156V9.43186L18.375 10.8381V12.4219C18.375 12.8102 18.6898 13.125 19.0781 13.125C19.4664 13.125 19.7812 12.8102 19.7812 12.4219V11.25H20.9531C21.3414 11.25 21.6562 10.9352 21.6562 10.5469C21.6562 10.1586 21.3414 9.84375 20.9531 9.84375H19.3694L17.9631 8.4375H19.5469C19.9352 8.4375 20.25 8.12269 20.25 7.73438C20.25 7.34606 19.9352 7.03125 19.5469 7.03125H17.9631L19.3694 5.625H20.9531C21.3414 5.625 21.6562 5.31019 21.6562 4.92188C21.6562 4.53356 21.3414 4.21875 20.9531 4.21875H19.7812V3.04688C19.7812 2.65856 19.4664 2.34375 19.0781 2.34375C18.6898 2.34375 18.375 2.65856 18.375 3.04688V4.63064L16.9688 6.03689V4.45312C16.9688 4.06481 16.6539 3.75 16.2656 3.75C15.8773 3.75 15.5625 4.06481 15.5625 4.45312V6.03689L14.1562 4.63064V3.04688C14.1562 2.65856 13.8414 2.34375 13.4531 2.34375C13.0648 2.34375 12.75 2.65856 12.75 3.04688V4.21875H11.5781C11.1898 4.21875 10.875 4.53356 10.875 4.92188C10.875 5.31019 11.1898 5.625 11.5781 5.625H13.1619L14.5681 7.03125H12.9844C12.5961 7.03125 12.2812 7.34606 12.2812 7.73438C12.2812 8.12269 12.5961 8.4375 12.9844 8.4375H14.5681L13.1619 9.84375H11.5781Z M23.5901 13.3562C23.4478 13.2909 23.2878 13.275 23.1354 13.3109C22.983 13.3469 22.847 13.4326 22.7489 13.5546C21.0769 15.6341 18.5896 16.8266 15.9247 16.8267C11.0992 16.8267 7.17347 12.9009 7.17347 8.07537C7.17347 5.41048 8.36611 2.92319 10.4455 1.2513C10.5675 1.15319 10.6533 1.01716 10.6893 0.864776C10.7252 0.712392 10.7092 0.552372 10.6439 0.410078C10.5786 0.267785 10.4677 0.151359 10.3287 0.0792526C10.1898 0.00714676 10.0307 -0.0165134 9.87675 0.0120223C4.15378 1.07346 0 6.07498 0 11.9044C0 15.1353 1.25817 18.1728 3.54277 20.4573C5.82731 22.7419 8.86481 24.0001 12.0957 24.0001C17.9251 24.0001 22.9266 19.8464 23.9881 14.1234C24.0167 13.9695 23.9931 13.8104 23.921 13.6714C23.8489 13.5324 23.7324 13.4215 23.5901 13.3562Z" />
</symbol>
</svg>