<svg width="396" height="100" viewBox="0 0 396 100" fill="none" xmlns="http://www.w3.org/2000/svg">
<g clip-path="url(#clip0_940_2995)">
<path d="M46.8092 85.4312C46.2216 85.4312 45.7461 84.9557 45.7461 84.3681V35.6632C45.7461 35.0756 46.2216 34.6001 46.8092 34.6001C47.3968 34.6001 47.8723 35.0756 47.8723 35.6632V84.3681C47.8723 84.9557 47.3968 85.4312 46.8092 85.4312Z" fill="#5E92FD"/>
<path d="M40.655 99.6272C36.6746 99.6272 33.4355 96.3901 33.4355 92.4098V79.0526H27.057V92.4098C27.057 96.3901 23.8179 99.6272 19.8375 99.6272C15.8571 99.6272 12.6201 96.3901 12.6201 92.4098V35.6632C12.6201 35.0756 13.0956 34.6001 13.6832 34.6001C14.2708 34.6001 14.7463 35.0756 14.7463 35.6632V92.4098C14.7463 95.217 17.0303 97.501 19.8375 97.501C22.6468 97.501 24.9308 95.217 24.9308 92.4098V77.9895C24.9308 77.4019 25.4063 76.9264 25.9939 76.9264H34.4986C35.0862 76.9264 35.5617 77.4019 35.5617 77.9895V92.4098C35.5617 95.217 37.8457 97.501 40.655 97.501C43.4622 97.501 45.7462 95.217 45.7462 92.4098V84.3681C45.7462 83.7805 46.2217 83.305 46.8093 83.305C47.3969 83.305 47.8724 83.7805 47.8724 84.3681V92.4098C47.8724 96.3901 44.6353 99.6272 40.655 99.6272Z" fill="#5E92FD"/>
<path d="M30.2462 44.6498C21.0417 44.6498 12.6616 38.8817 9.39342 30.2939C9.25846 29.9368 9.3249 29.534 9.56991 29.2391C9.81284 28.9422 10.197 28.8052 10.5728 28.8695C10.7472 28.8986 10.9361 28.8903 11.1106 28.8945C15.2134 28.8945 18.5522 25.5557 18.5522 21.4528C18.5522 17.3873 15.2383 14.0486 11.1645 14.0112C10.7991 14.007 10.4607 13.816 10.2696 13.5046C10.0786 13.1952 10.0599 12.8069 10.2219 12.4789C14.0112 4.78183 21.6854 0 30.2462 0C39.1496 0 47.1767 5.2677 50.6982 13.4194C50.8539 13.7807 50.7979 14.2001 50.5508 14.5074C50.3016 14.8147 49.9009 14.9642 49.5168 14.8833C45.2769 14.8833 41.9402 18.222 41.9402 22.3249C41.9402 26.4278 45.2789 29.7665 49.3818 29.7665C49.7576 29.6959 50.2476 29.8517 50.4864 30.159C50.7273 30.4663 50.8726 30.8753 50.719 31.2324C47.1747 39.3842 39.1392 44.6498 30.2462 44.6498ZM11.9972 30.9791C15.2986 37.9432 22.4453 42.5236 30.2462 42.5236C37.7626 42.5236 44.6021 38.3647 48.0841 31.8055C43.4206 31.1701 39.814 27.1607 39.814 22.3249C39.814 17.4953 43.4123 13.488 48.0675 12.8464C44.6062 6.28511 37.7709 2.12618 30.2462 2.12618C23.0205 2.12618 16.4945 5.8906 12.8672 12.049C17.3022 12.8858 20.6784 16.7997 20.6784 21.4528C20.6784 26.4298 16.8579 30.5306 11.9972 30.9791Z" fill="#5E92FD"/>
<path d="M11.1107 31.0209C10.8179 31.0209 10.4981 31.0146 10.2033 30.9627C9.83786 30.8984 9.53263 30.6492 9.39767 30.3025C8.41763 27.7942 7.92139 25.1095 7.92139 22.3251C7.92139 18.8659 8.69586 15.5521 10.222 12.4749C10.4047 12.1095 10.7971 11.9268 11.1854 11.8853C16.4199 11.9351 20.6785 16.2269 20.6785 21.4531C20.6785 26.7291 16.3867 31.0209 11.1107 31.0209ZM11.8291 14.0467C10.6476 16.6484 10.0476 19.4307 10.0476 22.3251C10.0476 24.6091 10.4151 26.8163 11.1439 28.8947C15.2322 28.876 18.5523 25.5455 18.5523 21.4531C18.5523 17.6118 15.5935 14.4184 11.8291 14.0467Z" fill="#6D55FF"/>
<path d="M49.3818 31.8929C44.1058 31.8929 39.814 27.6011 39.814 22.3251C39.814 17.0491 44.1058 12.7573 49.3818 12.7573C49.5541 12.7573 49.7576 12.7656 49.9279 12.7989C50.2684 12.8653 50.5549 13.0937 50.694 13.4114C51.9398 16.2248 52.571 19.2251 52.571 22.3251C52.571 25.4583 51.9461 28.4587 50.7148 31.2389C50.5694 31.567 50.2684 31.7995 49.9154 31.8576C49.7285 31.8888 49.5728 31.8929 49.3818 31.8929ZM49.0163 14.9001C45.0173 15.1514 41.9401 18.3842 41.9401 22.3251C41.9401 26.3117 45.09 29.5757 49.033 29.7585C49.9694 27.4246 50.4449 24.9289 50.4449 22.3251C50.4449 19.7525 49.9652 17.2588 49.0163 14.9001Z" fill="#6D55FF"/>
<path d="M40.8772 23.3962H19.5697C18.9821 23.3962 18.5066 22.9207 18.5066 22.3331C18.5066 21.7455 18.9821 21.27 19.5697 21.27H40.8772C41.4648 21.27 41.9403 21.7455 41.9403 22.3331C41.9403 22.9207 41.4648 23.3962 40.8772 23.3962Z" fill="#6D55FF"/>
<path d="M13.6831 75.9652H1.06309C0.475484 75.9652 0 75.4897 0 74.9021V54.3961C0 50.3306 3.30762 47.0229 7.37311 47.0229H13.6831C14.2707 47.0229 14.7462 47.4984 14.7462 48.086C14.7462 48.6736 14.2707 49.1491 13.6831 49.1491H7.37311C4.48076 49.1491 2.12618 51.5037 2.12618 54.3961V73.839H13.6831C14.2707 73.839 14.7462 74.3145 14.7462 74.9021C14.7462 75.4897 14.2707 75.9652 13.6831 75.9652Z" fill="#6D55FF"/>
<path d="M59.4292 75.9652H46.8092C46.2216 75.9652 45.7461 75.4897 45.7461 74.9021C45.7461 74.3145 46.2216 73.839 46.8092 73.839H58.3661V54.3961C58.3661 51.5037 56.0116 49.1491 53.1192 49.1491H46.8092C46.2216 49.1491 45.7461 48.6736 45.7461 48.086C45.7461 47.4984 46.2216 47.0229 46.8092 47.0229H53.1192C57.1847 47.0229 60.4923 50.3306 60.4923 54.3961V74.9021C60.4923 75.4897 60.0168 75.9652 59.4292 75.9652Z" fill="#6D55FF"/>
<path d="M109.015 19.3154V50.8525H101.536V35.6246L95.0936 50.8525H88.8313L82.4788 35.7147V50.8525H75V19.3154H82.1634L92.03 41.2111L101.852 19.3154H109.015ZM121.134 19V24.9921H114.016V19H121.134ZM121.134 27.4249V50.8525H114.016V27.4249H121.134ZM137.263 27.0194C141.543 27.0194 145.148 28.8216 147.355 32.606L141.949 35.174C140.777 34.1829 139.831 33.2818 137.353 33.2818C134.65 33.2818 131.902 35.3542 131.902 39.1837C131.902 42.9682 134.65 44.9505 137.353 44.9505C139.831 44.9505 140.777 44.1396 141.949 43.1484L147.445 45.7164C145.148 49.5009 141.633 51.2129 137.263 51.2129C132.037 51.2129 125.009 47.4735 125.009 39.1837C125.009 31.0292 132.037 27.0194 137.263 27.0194ZM166.142 27.0645C166.773 27.0645 167.404 27.0645 167.989 27.1996V34.0027C167.449 33.8675 166.818 33.8675 166.367 33.8675C162.042 33.8675 158.573 36.9761 158.213 41.3012V50.8525H151.095V27.4249H158.213V33.1466C159.294 29.6325 161.997 27.0645 166.142 27.0645ZM183.262 27.0194C188.579 27.0194 195.607 31.0292 195.607 39.2288C195.607 47.4735 188.579 51.303 183.262 51.303C177.946 51.303 170.918 47.4735 170.918 39.2288C170.918 31.0292 177.946 27.0194 183.262 27.0194ZM183.262 33.2818C180.559 33.2818 177.811 35.3542 177.811 39.2288C177.811 42.9682 180.559 45.0406 183.262 45.0406C185.966 45.0406 188.759 42.9682 188.759 39.2288C188.759 35.3542 185.966 33.2818 183.262 33.2818ZM207.14 44.1846H219.125V50.8525H199.887V19.3154H207.14V44.1846ZM234.398 27.0194C239.714 27.0194 247.148 31.0292 245.661 41.6166H229.307C230.117 44.0495 232.235 45.311 235.073 45.311C237.957 45.311 238.858 44.6802 240.48 44.0044L244.399 47.7889C242.327 49.8163 239.534 51.303 234.803 51.303C228.991 51.303 222.053 47.2933 222.053 39.2288C222.053 31.0292 229.081 27.0194 234.398 27.0194ZM234.398 33.1016C232.37 33.1016 230.298 34.273 229.397 36.6157H239.353C238.633 34.273 236.425 33.1016 234.398 33.1016ZM266.565 27.4249H273.684V50.8525H266.565V48.5097C266.25 49.3207 264.133 51.303 260.528 51.303C255.167 51.303 248.995 47.4735 248.995 39.0936C248.995 31.0292 255.167 27.0194 260.528 27.0194C264.133 27.0194 266.25 29.0919 266.565 29.5875V27.4249ZM261.564 45.0406C264.493 45.0406 266.881 43.0133 266.881 39.0936C266.881 35.3092 264.493 33.2818 261.564 33.2818C258.501 33.2818 255.888 35.3542 255.888 39.0936C255.888 42.9682 258.501 45.0406 261.564 45.0406ZM293.327 27.0645C293.958 27.0645 294.588 27.0645 295.174 27.1996V34.0027C294.633 33.8675 294.003 33.8675 293.552 33.8675C289.227 33.8675 285.758 36.9761 285.398 41.3012V50.8525H278.279V27.4249H285.398V33.1466C286.479 29.6325 289.182 27.0645 293.327 27.0645ZM313.195 27.0645C317.565 27.0645 322.026 29.9929 322.026 37.4267V50.8525H314.907V37.9223C314.907 34.3631 313.691 33.2368 311.438 33.2368C308.239 33.2368 306.392 36.3454 305.942 37.697V50.8525H298.823V27.4249H305.942V31.4797C306.392 30.3534 308.78 27.0645 313.195 27.0645ZM333.469 19V24.9921H326.351V19H333.469ZM333.469 27.4249V50.8525H326.351V27.4249H333.469ZM352.436 27.0645C356.807 27.0645 361.267 29.9929 361.267 37.4267V50.8525H354.148V37.9223C354.148 34.3631 352.932 33.2368 350.679 33.2368C347.481 33.2368 345.633 36.3454 345.183 37.697V50.8525H338.065V27.4249H345.183V31.4797C345.633 30.3534 348.021 27.0645 352.436 27.0645ZM382.442 27.4249H389.56V50.8525C389.56 57.9708 382.352 60.1334 377.125 60.1334C374.648 60.1334 372.395 59.7279 370.953 58.962V53.1502C372.395 53.9161 374.557 54.2314 377.125 54.2314C381.315 54.2314 382.442 52.0689 382.442 50.8525V48.5097C382.126 49.3207 380.009 51.303 376.405 51.303C371.043 51.303 364.871 47.4735 364.871 39.0936C364.871 31.0292 371.043 27.0194 376.405 27.0194C380.009 27.0194 382.126 29.0919 382.442 29.5875V27.4249ZM377.441 45.0406C380.369 45.0406 382.757 43.0133 382.757 39.0936C382.757 35.3092 380.369 33.2818 377.441 33.2818C374.377 33.2818 371.764 35.3542 371.764 39.0936C371.764 42.9682 374.377 45.0406 377.441 45.0406Z" fill="white"/>
</g>
<defs>
<clipPath id="clip0_940_2995">
<rect width="396" height="99.6273" fill="white"/>
</clipPath>
</defs>
</svg>
