<svg viewBox="0 0 497 412" fill="#5E92FDFF" xmlns="http://www.w3.org/2000/svg">
<path d="M421.047 1.22182C432.069 0.781816 443.209 1.06181 454.241 1.07481C468.086 1.09081 481.966 0.919823 495.805 1.31982C496.172 16.2118 496.319 31.4498 494.697 46.2698C494.455 48.4618 494.174 50.6492 493.854 52.8318C493.532 55.0138 493.172 57.1892 492.772 59.3578C492.372 61.5272 491.932 63.6882 491.454 65.8408C490.975 67.9942 490.457 70.1378 489.901 72.2718C489.344 74.4058 488.749 76.5291 488.116 78.6418C487.482 80.7545 486.809 82.8548 486.099 84.9428C485.389 87.0308 484.641 89.1055 483.856 91.1668C483.07 93.2275 482.247 95.2731 481.387 97.3038C480.527 99.3351 479.63 101.35 478.697 103.348C477.763 105.346 476.794 107.327 475.789 109.291C474.783 111.253 473.743 113.197 472.667 115.123C471.591 117.048 470.48 118.953 469.335 120.838C468.189 122.723 467.01 124.587 465.797 126.429C464.584 128.271 463.338 130.09 462.059 131.887C460.779 133.683 459.468 135.456 458.124 137.205C456.78 138.954 455.405 140.678 453.999 142.377C429.366 171.928 394.591 194.259 356.768 202.35C344.861 204.897 332.852 205.581 320.763 206.666C365.154 208.414 410.467 229.207 441.828 260.407C470.185 288.618 489.645 326.27 494.059 366.247C495.586 380.084 495.086 394.22 495.119 408.125C495.173 409.085 495.167 409.664 494.801 410.56C494.331 410.849 494.238 410.952 493.618 411.079C491.16 411.585 486.885 410.921 484.244 410.919L452.365 410.96L419.414 410.987C412.562 410.979 405.534 411.274 398.723 410.528C367.365 407.097 334.099 389.109 310.934 368.169C309.808 367.133 308.694 366.083 307.594 365.02C306.493 363.956 305.406 362.879 304.332 361.789C303.257 360.699 302.196 359.596 301.149 358.48C300.101 357.364 299.068 356.236 298.049 355.095C297.029 353.953 296.023 352.8 295.032 351.634C294.04 350.468 293.063 349.291 292.101 348.101C291.138 346.911 290.19 345.71 289.257 344.497C288.323 343.284 287.404 342.06 286.501 340.825C285.597 339.589 284.709 338.343 283.837 337.087C282.963 335.83 282.106 334.563 281.264 333.285C280.422 332.007 279.595 330.719 278.785 329.421C277.974 328.122 277.179 326.814 276.401 325.497C275.623 324.179 274.86 322.853 274.114 321.517C273.368 320.18 272.638 318.835 271.925 317.481C271.211 316.127 270.515 314.764 269.835 313.394C269.155 312.022 268.492 310.643 267.846 309.256C267.199 307.868 266.57 306.474 265.958 305.072C265.346 303.669 264.751 302.259 264.173 300.842C263.595 299.424 263.035 298 262.492 296.57C261.949 295.139 261.424 293.702 260.916 292.258C260.408 290.814 259.918 289.364 259.446 287.909C258.973 286.453 258.518 284.992 258.082 283.525C257.645 282.058 257.226 280.586 256.826 279.109C256.425 277.632 256.042 276.15 255.678 274.664C255.314 273.178 254.968 271.687 254.64 270.193C254.312 268.697 254.002 267.199 253.711 265.697C253.419 264.194 253.145 262.688 252.891 261.18C252.637 259.67 252.401 258.158 252.183 256.644C251.965 255.129 251.766 253.612 251.586 252.092C251.405 250.572 251.243 249.05 251.1 247.527C250.956 246.003 250.831 244.477 250.725 242.951C250.619 241.424 250.531 239.896 250.463 238.368C249.931 227.254 250.153 216.052 250.114 204.925C250.062 190.235 250.023 175.645 251.699 161.027C251.965 158.657 252.277 156.293 252.637 153.935C252.995 151.577 253.401 149.228 253.853 146.886C254.305 144.544 254.803 142.212 255.347 139.89C255.89 137.568 256.479 135.257 257.115 132.959C257.749 130.66 258.429 128.375 259.155 126.103C259.879 123.83 260.649 121.573 261.464 119.332C262.278 117.09 263.135 114.865 264.037 112.658C264.939 110.45 265.884 108.26 266.872 106.09C267.86 103.919 268.89 101.769 269.964 99.6388C271.036 97.5088 272.151 95.4008 273.307 93.3148C274.463 91.2288 275.66 89.1665 276.898 87.1278C278.135 85.0891 279.412 83.0755 280.729 81.0868C282.045 79.0982 283.401 77.1365 284.796 75.2018C286.19 73.2665 287.621 71.3598 289.091 69.4818C290.56 67.6031 292.066 65.7541 293.608 63.9348C295.15 62.1155 296.728 60.3275 298.341 58.5708C330.429 23.2948 373.523 3.41582 421.047 1.22182Z" />
<path d="M50.177 1.75715C56.6743 1.67449 63.1713 1.67882 69.668 1.77015C117.23 2.28815 160.003 19.8741 193.243 53.8861C194.142 54.8095 195.031 55.7421 195.91 56.6841C196.789 57.6255 197.658 58.5765 198.517 59.5371C199.376 60.4971 200.224 61.4661 201.063 62.4441C201.902 63.4221 202.73 64.4088 203.548 65.4041C204.366 66.3995 205.173 67.4035 205.97 68.4161C206.767 69.4288 207.552 70.4495 208.327 71.4781C209.102 72.5075 209.867 73.5448 210.62 74.5901C211.373 75.6348 212.116 76.6878 212.847 77.7491C213.578 78.8098 214.298 79.8782 215.007 80.9542C215.716 82.0302 216.413 83.1132 217.099 84.2032C217.784 85.2938 218.458 86.3918 219.121 87.4972C219.784 88.6018 220.435 89.7135 221.074 90.8322C221.714 91.9502 222.342 93.0752 222.957 94.2072C223.572 95.3392 224.176 96.4772 224.768 97.6212C225.359 98.7658 225.939 99.9165 226.507 101.073C227.074 102.23 227.629 103.392 228.172 104.56C228.715 105.729 229.246 106.903 229.764 108.082C230.282 109.262 230.788 110.447 231.281 111.637C231.774 112.827 232.255 114.022 232.723 115.222C233.191 116.423 233.647 117.628 234.09 118.838C234.533 120.048 234.962 121.262 235.379 122.481C235.796 123.7 236.201 124.923 236.592 126.151C236.983 127.378 237.362 128.61 237.727 129.845C238.093 131.08 238.446 132.319 238.785 133.562C239.124 134.805 239.45 136.052 239.763 137.301C240.076 138.551 240.376 139.804 240.663 141.06C240.95 142.316 241.223 143.575 241.484 144.837C241.744 146.098 241.991 147.363 242.224 148.63C242.458 149.897 242.678 151.166 242.885 152.438C243.092 153.709 243.285 154.983 243.465 156.259C243.645 157.534 243.812 158.812 243.965 160.091C244.118 161.37 244.258 162.651 244.384 163.933C246.568 185.538 245.731 209.665 245.433 231.478C244.753 281.271 225.525 329.911 189.555 364.766C163.969 389.559 130.033 407.106 94.367 410.99C85.176 411.991 75.6 411.454 66.359 411.443C51.197 411.476 36.0356 411.411 20.875 411.248C14.5983 411.059 8.32195 411.068 2.04595 411.275C-2.17705 373.483 5.80497 331.107 25.049 298.125C48.571 257.809 90.258 224.953 135.579 213.09C144.636 210.786 153.799 209.036 163.068 207.839C167.405 207.278 172.152 207.5 176.34 206.412C176.152 206.395 175.415 206.33 175.252 206.301C172.085 205.742 168.48 205.975 165.238 205.791C159.932 205.486 154.658 204.897 149.415 204.023C147.163 203.667 144.919 203.267 142.683 202.822C140.447 202.377 138.221 201.887 136.004 201.353C133.787 200.82 131.582 200.242 129.389 199.62C127.195 198.999 125.015 198.334 122.848 197.626C120.681 196.917 118.528 196.166 116.391 195.372C114.254 194.578 112.133 193.742 110.029 192.864C107.925 191.985 105.839 191.065 103.772 190.104C101.705 189.143 99.6573 188.14 97.63 187.097C95.6026 186.054 93.597 184.972 91.613 183.849C89.6283 182.726 87.667 181.564 85.729 180.363C83.791 179.162 81.8776 177.924 79.989 176.647C78.1003 175.37 76.2376 174.055 74.401 172.704C72.5643 171.353 70.7553 169.966 68.974 168.543C67.1926 167.12 65.4406 165.662 63.7179 164.169C61.9946 162.676 60.3016 161.15 58.639 159.589C56.977 158.029 55.3463 156.436 53.747 154.811C25.565 126.319 6.39196 89.0782 1.99996 48.9932C0.286961 33.3552 0.796968 17.5482 0.875968 1.84515L50.177 1.75715Z" />
</svg>
