<svg width="61" height="100" viewBox="0 0 61 100" fill="none" xmlns="http://www.w3.org/2000/svg">
<path d="M46.8092 85.4312C46.2216 85.4312 45.7461 84.9557 45.7461 84.3681V35.6632C45.7461 35.0756 46.2216 34.6001 46.8092 34.6001C47.3968 34.6001 47.8723 35.0756 47.8723 35.6632V84.3681C47.8723 84.9557 47.3968 85.4312 46.8092 85.4312Z" fill="#5E92FD"/>
<path d="M40.655 99.6272C36.6746 99.6272 33.4355 96.3901 33.4355 92.4098V79.0526H27.057V92.4098C27.057 96.3901 23.8179 99.6272 19.8375 99.6272C15.8571 99.6272 12.6201 96.3901 12.6201 92.4098V35.6632C12.6201 35.0756 13.0956 34.6001 13.6832 34.6001C14.2708 34.6001 14.7463 35.0756 14.7463 35.6632V92.4098C14.7463 95.217 17.0303 97.501 19.8375 97.501C22.6468 97.501 24.9308 95.217 24.9308 92.4098V77.9895C24.9308 77.4019 25.4063 76.9264 25.9939 76.9264H34.4986C35.0862 76.9264 35.5617 77.4019 35.5617 77.9895V92.4098C35.5617 95.217 37.8457 97.501 40.655 97.501C43.4622 97.501 45.7462 95.217 45.7462 92.4098V84.3681C45.7462 83.7805 46.2217 83.305 46.8093 83.305C47.3969 83.305 47.8724 83.7805 47.8724 84.3681V92.4098C47.8724 96.3901 44.6353 99.6272 40.655 99.6272Z" fill="#5E92FD"/>
<path d="M30.2462 44.6498C21.0417 44.6498 12.6616 38.8817 9.39342 30.2939C9.25846 29.9368 9.3249 29.534 9.56991 29.2391C9.81284 28.9422 10.197 28.8052 10.5728 28.8695C10.7472 28.8986 10.9361 28.8903 11.1106 28.8945C15.2134 28.8945 18.5522 25.5557 18.5522 21.4528C18.5522 17.3873 15.2383 14.0486 11.1645 14.0112C10.7991 14.007 10.4607 13.816 10.2696 13.5046C10.0786 13.1952 10.0599 12.8069 10.2219 12.4789C14.0112 4.78183 21.6854 0 30.2462 0C39.1496 0 47.1767 5.2677 50.6982 13.4194C50.8539 13.7807 50.7979 14.2001 50.5508 14.5074C50.3016 14.8147 49.9009 14.9642 49.5168 14.8833C45.2769 14.8833 41.9402 18.222 41.9402 22.3249C41.9402 26.4278 45.2789 29.7665 49.3818 29.7665C49.7576 29.6959 50.2476 29.8517 50.4864 30.159C50.7273 30.4663 50.8726 30.8753 50.719 31.2324C47.1747 39.3842 39.1392 44.6498 30.2462 44.6498ZM11.9972 30.9791C15.2986 37.9432 22.4453 42.5236 30.2462 42.5236C37.7626 42.5236 44.6021 38.3647 48.0841 31.8055C43.4206 31.1701 39.814 27.1607 39.814 22.3249C39.814 17.4953 43.4123 13.488 48.0675 12.8464C44.6062 6.28511 37.7709 2.12618 30.2462 2.12618C23.0205 2.12618 16.4945 5.8906 12.8672 12.049C17.3022 12.8858 20.6784 16.7997 20.6784 21.4528C20.6784 26.4298 16.8579 30.5306 11.9972 30.9791Z" fill="#5E92FD"/>
<path d="M11.1107 31.0209C10.8179 31.0209 10.4981 31.0146 10.2033 30.9627C9.83786 30.8984 9.53263 30.6492 9.39767 30.3025C8.41763 27.7942 7.92139 25.1095 7.92139 22.3251C7.92139 18.8659 8.69586 15.5521 10.222 12.4749C10.4047 12.1095 10.7971 11.9268 11.1854 11.8853C16.4199 11.9351 20.6785 16.2269 20.6785 21.4531C20.6785 26.7291 16.3867 31.0209 11.1107 31.0209ZM11.8291 14.0467C10.6476 16.6484 10.0476 19.4307 10.0476 22.3251C10.0476 24.6091 10.4151 26.8163 11.1439 28.8947C15.2322 28.876 18.5523 25.5455 18.5523 21.4531C18.5523 17.6118 15.5935 14.4184 11.8291 14.0467Z" fill="#6D55FF"/>
<path d="M49.3818 31.8929C44.1058 31.8929 39.814 27.6011 39.814 22.3251C39.814 17.0491 44.1058 12.7573 49.3818 12.7573C49.5541 12.7573 49.7576 12.7656 49.9279 12.7989C50.2684 12.8653 50.5549 13.0937 50.694 13.4114C51.9398 16.2248 52.571 19.2251 52.571 22.3251C52.571 25.4583 51.9461 28.4587 50.7148 31.2389C50.5694 31.567 50.2684 31.7995 49.9154 31.8576C49.7285 31.8888 49.5728 31.8929 49.3818 31.8929ZM49.0163 14.9001C45.0173 15.1514 41.9401 18.3842 41.9401 22.3251C41.9401 26.3117 45.09 29.5757 49.033 29.7585C49.9694 27.4246 50.4449 24.9289 50.4449 22.3251C50.4449 19.7525 49.9652 17.2588 49.0163 14.9001Z" fill="#6D55FF"/>
<path d="M40.8772 23.3962H19.5697C18.9821 23.3962 18.5066 22.9207 18.5066 22.3331C18.5066 21.7455 18.9821 21.27 19.5697 21.27H40.8772C41.4648 21.27 41.9403 21.7455 41.9403 22.3331C41.9403 22.9207 41.4648 23.3962 40.8772 23.3962Z" fill="#6D55FF"/>
<path d="M13.6831 75.9653H1.06309C0.475484 75.9653 0 75.4897 0 74.9021V54.3961C0 50.3306 3.30762 47.0229 7.37311 47.0229H13.6831C14.2707 47.0229 14.7462 47.4984 14.7462 48.086C14.7462 48.6736 14.2707 49.1492 13.6831 49.1492H7.37311C4.48076 49.1492 2.12618 51.5037 2.12618 54.3961V73.839H13.6831C14.2707 73.839 14.7462 74.3145 14.7462 74.9021C14.7462 75.4897 14.2707 75.9653 13.6831 75.9653Z" fill="#6D55FF"/>
<path d="M59.4292 75.9653H46.8092C46.2216 75.9653 45.7461 75.4897 45.7461 74.9021C45.7461 74.3145 46.2216 73.839 46.8092 73.839H58.3661V54.3961C58.3661 51.5037 56.0116 49.1492 53.1192 49.1492H46.8092C46.2216 49.1492 45.7461 48.6736 45.7461 48.086C45.7461 47.4984 46.2216 47.0229 46.8092 47.0229H53.1192C57.1847 47.0229 60.4923 50.3306 60.4923 54.3961V74.9021C60.4923 75.4897 60.0168 75.9653 59.4292 75.9653Z" fill="#6D55FF"/>
</svg>
