<svg width="117" height="24" viewBox="0 0 117 24" fill="none" xmlns="http://www.w3.org/2000/svg">
<path d="M34.0742 18.8657L41.7484 2.17872H43.3627L51.0369 18.8657H47.2619L42.5928 7.42745L37.8492 18.8657H34.0742ZM37.9237 15.4986V12.8495H47.237V15.4986H37.9237Z" fill="#2C2442"/>
<path d="M58.6117 19.1628C57.5355 19.1628 56.5752 18.9483 55.7308 18.5191C54.9029 18.09 54.2406 17.4793 53.7439 16.687C53.2638 15.8782 53.0237 14.9209 53.0237 13.8151V6.38761H56.004V13.3694C56.004 14.3432 56.2523 15.086 56.749 15.5977C57.2457 16.0928 57.8666 16.3404 58.6117 16.3404C59.3567 16.3404 59.9694 16.0928 60.4495 15.5977C60.9462 15.086 61.1946 14.3432 61.1946 13.3694V6.38761H64.1997V13.8151C64.1997 14.9209 63.9513 15.8782 63.4546 16.687C62.9745 17.4793 62.3122 18.09 61.4678 18.5191C60.6234 18.9483 59.6713 19.1628 58.6117 19.1628Z" fill="#2C2442"/>
<path d="M67.8505 18.8657V6.38761H70.7811V18.8657H67.8505ZM70.7811 11.7849V8.76439C71.2281 8.00514 71.7497 7.37794 72.3457 6.88277C72.9583 6.38761 73.6372 6.14003 74.3822 6.14003C74.8458 6.14003 75.2515 6.22255 75.5992 6.38761V9.68045C75.3508 9.5319 75.0942 9.41636 74.8293 9.33383C74.5643 9.2513 74.2746 9.21004 73.96 9.21004C73.215 9.21004 72.5941 9.45762 72.0974 9.95279C71.6172 10.4479 71.1784 11.0587 70.7811 11.7849Z" fill="#2C2442"/>
<path d="M82.8511 19.2371C81.8411 19.2371 80.9057 18.9813 80.0447 18.4696C79.1837 17.9579 78.4884 17.2152 77.9585 16.2414C77.4453 15.2675 77.1886 14.0957 77.1886 12.7257C77.1886 11.3392 77.4453 10.1509 77.9585 9.16052C78.4884 8.1702 79.2003 7.41095 80.0944 6.88277C80.9885 6.3546 81.9819 6.09051 83.0746 6.09051C83.7535 6.09051 84.4406 6.25557 85.136 6.58567C85.8479 6.89928 86.444 7.32017 86.9241 7.84834V6.38761H89.8547V18.8657H86.9241V16.7613C86.5433 17.438 85.9969 18.024 85.285 18.5191C84.5896 18.9978 83.7783 19.2371 82.8511 19.2371ZM83.5465 16.3156C84.1426 16.3156 84.6972 16.1588 85.2105 15.8452C85.7238 15.5316 86.1377 15.0942 86.4523 14.533C86.7668 13.9554 86.9241 13.2786 86.9241 12.5029L86.8993 10.5965C86.4523 10.0848 85.9556 9.68045 85.4092 9.38335C84.8794 9.08625 84.2916 8.9377 83.6459 8.9377C82.9505 8.9377 82.3461 9.11926 81.8329 9.48238C81.3196 9.8455 80.9222 10.3159 80.6408 10.8936C80.3759 11.4548 80.2434 12.0655 80.2434 12.7257C80.2434 13.3859 80.3759 13.9884 80.6408 14.533C80.9222 15.0777 81.3113 15.5151 81.808 15.8452C82.3047 16.1588 82.8842 16.3156 83.5465 16.3156Z" fill="#2C2442"/>
<path d="M93.7787 18.8657V1.03984H96.7093V18.8657H93.7787Z" fill="#2C2442"/>
<path d="M103.092 4.06034C102.529 4.06034 102.041 3.86228 101.627 3.46614C101.229 3.05351 101.031 2.57485 101.031 2.03017C101.031 1.46899 101.229 0.990327 101.627 0.594196C102.041 0.198065 102.529 0 103.092 0C103.473 0 103.821 0.09078 104.135 0.27234C104.45 0.4539 104.698 0.701482 104.88 1.01509C105.079 1.32869 105.178 1.66705 105.178 2.03017C105.178 2.37678 105.079 2.71515 104.88 3.04526C104.698 3.35886 104.45 3.60644 104.135 3.788C103.821 3.96956 103.473 4.06034 103.092 4.06034ZM101.95 18.8657V6.38761H104.88V18.8657H101.95ZM99.9379 8.91294V6.38761H104.88V8.91294H99.9379Z" fill="#2C2442"/>
<path d="M112.182 19.2371C111.652 19.2371 111.114 19.1711 110.568 19.039C110.021 18.9235 109.524 18.775 109.077 18.5934C108.63 18.3953 108.274 18.2055 108.009 18.024V15.3748C108.307 15.5729 108.68 15.7792 109.127 15.9938C109.574 16.1918 110.029 16.3569 110.493 16.4889C110.973 16.6045 111.42 16.6623 111.834 16.6623C112.496 16.6623 113.001 16.5385 113.349 16.2909C113.713 16.0433 113.895 15.7049 113.895 15.2758C113.895 14.9457 113.746 14.6899 113.448 14.5083C113.167 14.3102 112.753 14.1122 112.207 13.9141L110.617 13.3694C109.657 13.0393 108.995 12.5854 108.63 12.0077C108.283 11.43 108.109 10.7533 108.109 9.97754C108.109 9.20179 108.307 8.52507 108.705 7.94737C109.102 7.36968 109.657 6.91578 110.369 6.58567C111.097 6.25557 111.925 6.09051 112.852 6.09051C113.614 6.09051 114.326 6.20605 114.988 6.43713C115.651 6.6517 116.147 6.89928 116.478 7.17987V9.829C116.098 9.56491 115.617 9.31733 115.038 9.08625C114.475 8.83867 113.879 8.71488 113.25 8.71488C112.621 8.71488 112.124 8.85517 111.76 9.13577C111.412 9.41636 111.238 9.73822 111.238 10.1013C111.238 10.3819 111.337 10.646 111.536 10.8936C111.751 11.1247 112.132 11.3227 112.679 11.4878L114.243 12.0325C115.17 12.3131 115.857 12.7257 116.305 13.2704C116.768 13.8151 117 14.4835 117 15.2758C117 16.0185 116.785 16.6953 116.354 17.306C115.924 17.9002 115.344 18.3706 114.616 18.7172C113.904 19.0638 113.092 19.2371 112.182 19.2371Z" fill="#2C2442"/>
<path d="M22.7748 14.2166L23.2608 12.8737C23.4243 12.4243 23.7226 12.0358 24.115 11.7609C24.5075 11.4861 24.9752 11.3382 25.4548 11.3372C26.0527 11.3372 26.5968 11.5866 27.0191 11.9759V5.20768C27.0191 4.00474 26.0318 3.02051 24.8251 3.02051H2.194C0.987301 3.02051 0 4.00474 0 5.20768V17.4012C0 18.6041 0.987301 19.5883 2.194 19.5883H18.1641C18.0588 19.3281 18.0023 19.0509 17.9974 18.7703C17.9982 18.2919 18.1468 17.8253 18.4229 17.4339C18.6991 17.0426 19.0894 16.7456 19.5409 16.5832L20.8858 16.0998C21.3203 15.9438 21.7149 15.6942 22.0414 15.3687C22.368 15.0431 22.6184 14.6498 22.7748 14.2166ZM21.4244 9.86636C21.4244 9.57632 21.54 9.29816 21.7457 9.09307C21.9515 8.88799 22.2305 8.77277 22.5214 8.77277C22.8124 8.77277 23.0914 8.88799 23.2971 9.09307C23.5028 9.29816 23.6184 9.57632 23.6184 9.86636V11.0037C23.6184 11.2937 23.5028 11.5719 23.2971 11.777C23.0914 11.9821 22.8124 12.0973 22.5214 12.0973C22.2305 12.0973 21.9515 11.9821 21.7457 11.777C21.54 11.5719 21.4244 11.2937 21.4244 11.0037V9.86636ZM5.60019 12.7392C5.60019 13.0292 5.48461 13.3074 5.27888 13.5125C5.07316 13.7176 4.79413 13.8328 4.50319 13.8328C4.21224 13.8328 3.93322 13.7176 3.72749 13.5125C3.52176 13.3074 3.40619 13.0292 3.40619 12.7392V9.86854C3.40619 9.57851 3.52176 9.30035 3.72749 9.09526C3.93322 8.89017 4.21224 8.77496 4.50319 8.77496C4.79413 8.77496 5.07316 8.89017 5.27888 9.09526C5.48461 9.30035 5.60019 9.57851 5.60019 9.86854V12.7392ZM10.1045 15.2129C10.1045 15.5029 9.9889 15.7811 9.78317 15.9862C9.57744 16.1913 9.29842 16.3065 9.00747 16.3065C8.71653 16.3065 8.4375 16.1913 8.23178 15.9862C8.02605 15.7811 7.91047 15.5029 7.91047 15.2129V7.39376C7.91047 7.10372 8.02605 6.82556 8.23178 6.62048C8.4375 6.41539 8.71653 6.30017 9.00747 6.30017C9.29842 6.30017 9.57744 6.41539 9.78317 6.62048C9.9889 6.82556 10.1045 7.10372 10.1045 7.39376V15.2129ZM14.6077 12.7392C14.6077 13.0292 14.4921 13.3074 14.2864 13.5125C14.0806 13.7176 13.8016 13.8328 13.5107 13.8328C13.2197 13.8328 12.9407 13.7176 12.735 13.5125C12.5292 13.3074 12.4137 13.0292 12.4137 12.7392V9.86854C12.4137 9.57851 12.5292 9.30035 12.735 9.09526C12.9407 8.89017 13.2197 8.77496 13.5107 8.77496C13.8016 8.77496 14.0806 8.89017 14.2864 9.09526C14.4921 9.30035 14.6077 9.57851 14.6077 9.86854V12.7392ZM19.1108 15.2129C19.1108 15.5029 18.9953 15.7811 18.7895 15.9862C18.5838 16.1913 18.3048 16.3065 18.0138 16.3065C17.7229 16.3065 17.4439 16.1913 17.2382 15.9862C17.0324 15.7811 16.9168 15.5029 16.9168 15.2129V7.39376C16.9168 7.10372 17.0324 6.82556 17.2382 6.62048C17.4439 6.41539 17.7229 6.30017 18.0138 6.30017C18.3048 6.30017 18.5838 6.41539 18.7895 6.62048C18.9953 6.82556 19.1108 7.10372 19.1108 7.39376V15.2129Z" fill="#2C2442"/>
<path d="M29.4236 18.1409L30.7696 18.6243C30.7963 18.6339 30.8194 18.6515 30.8358 18.6747C30.8521 18.6979 30.8609 18.7255 30.8609 18.7539C30.8609 18.7822 30.8521 18.8099 30.8358 18.833C30.8194 18.8562 30.7963 18.8738 30.7696 18.8835L29.4236 19.3668C28.6855 19.6322 28.0152 20.0565 27.4604 20.6096C26.9056 21.1627 26.4799 21.8309 26.2138 22.5667L25.7289 23.9085C25.685 24.0299 25.5128 24.0299 25.4689 23.9085L24.984 22.5667C24.7178 21.8309 24.2922 21.1627 23.7374 20.6096C23.1826 20.0565 22.5123 19.6322 21.7742 19.3668L20.4282 18.8835C20.4015 18.8738 20.3784 18.8562 20.362 18.833C20.3457 18.8099 20.3369 18.7822 20.3369 18.7539C20.3369 18.7255 20.3457 18.6979 20.362 18.6747C20.3784 18.6515 20.4015 18.6339 20.4282 18.6243L21.7742 18.1409C22.5123 17.8756 23.1826 17.4512 23.7374 16.8982C24.2922 16.3451 24.7178 15.6769 24.984 14.9411L25.4689 13.5993C25.4786 13.5726 25.4962 13.5496 25.5195 13.5333C25.5427 13.517 25.5705 13.5083 25.5989 13.5083C25.6273 13.5083 25.655 13.517 25.6783 13.5333C25.7016 13.5496 25.7192 13.5726 25.7289 13.5993L26.2138 14.9411C26.4799 15.6769 26.9056 16.3451 27.4604 16.8982C28.0152 17.4512 28.6855 17.8756 29.4236 18.1409Z" fill="#F8665C"/>
</svg>
