<svg width="65" height="44" viewBox="0 0 65 44" fill="none" xmlns="http://www.w3.org/2000/svg">
<path d="M42.2081 40.1752L48.6407 43.9227H64.7332L39.4834 29.21C38.5779 28.6823 37.577 28.3386 36.5382 28.1985C35.4993 28.0583 34.443 28.1246 33.4298 28.3934C32.4167 28.6623 31.4667 29.1284 30.6344 29.765C29.8022 30.4017 29.104 31.1963 28.5802 32.1032L21.7463 43.9227H35.048L36.309 41.7209C36.5938 41.2316 36.9726 40.8033 37.4236 40.4606C37.8746 40.1179 38.3889 39.8676 38.9371 39.724C39.4852 39.5803 40.0563 39.5463 40.6176 39.6237C41.179 39.7011 41.7195 39.8886 42.2081 40.1752Z" fill="#5E92FD"/>
<path d="M64.6759 37.0924L55.6685 21.5121L43.2353 0L36.5602 11.5465C35.5076 13.3672 35.22 15.5302 35.7604 17.5622C36.3008 19.5942 37.6252 21.3295 39.4437 22.3884L64.6759 37.0924Z" fill="#5E92FD"/>
<path d="M7.09284 0.530273H0L14.5877 29.0042L7.29513 43.8773H15.8925C16.5242 43.8799 17.1438 43.7049 17.6804 43.3723C18.2171 43.0397 18.6491 42.563 18.9269 41.9967L24.0676 31.5159C24.4479 30.733 24.6397 29.8724 24.6279 29.0024C24.616 28.1325 24.4008 27.2774 23.9993 26.5052L12.3221 3.72602C11.8298 2.76426 11.081 1.95691 10.1583 1.39301C9.23555 0.829103 8.17474 0.530549 7.09284 0.530273Z" fill="#5E92FD"/>
<path d="M27.1298 1.88059L22.5985 9.66144C22.2154 10.4408 22.0198 11.2987 22.0273 12.1668C22.0348 13.0349 22.2451 13.8893 22.6415 14.662L26.8264 22.8306L38.7388 0H30.1414C29.5137 0.00191223 28.899 0.179034 28.3668 0.511355C27.8346 0.843676 27.4061 1.31795 27.1298 1.88059Z" fill="#6D55FF"/>
</svg>
