<svg width="31" height="21" viewBox="0 0 31 21" fill="none" xmlns="http://www.w3.org/2000/svg">
<path d="M22.7748 11.2166L23.2608 9.87372C23.4243 9.42425 23.7226 9.03577 24.115 8.76093C24.5075 8.48609 24.9752 8.33818 25.4548 8.33723C26.0527 8.33723 26.5968 8.58657 27.0191 8.97588V2.20768C27.0191 1.00474 26.0318 0.0205078 24.8251 0.0205078H2.194C0.987301 0.0205078 0 1.00474 0 2.20768V14.4012C0 15.6041 0.987301 16.5883 2.194 16.5883H18.1641C18.0588 16.3281 18.0023 16.0509 17.9974 15.7703C17.9982 15.2919 18.1468 14.8253 18.4229 14.4339C18.6991 14.0426 19.0894 13.7456 19.5409 13.5832L20.8858 13.0998C21.3203 12.9438 21.7149 12.6942 22.0414 12.3687C22.368 12.0431 22.6184 11.6498 22.7748 11.2166ZM21.4244 6.86636C21.4244 6.57632 21.54 6.29816 21.7457 6.09307C21.9515 5.88799 22.2305 5.77277 22.5214 5.77277C22.8124 5.77277 23.0914 5.88799 23.2971 6.09307C23.5028 6.29816 23.6184 6.57632 23.6184 6.86636V8.00369C23.6184 8.29372 23.5028 8.57188 23.2971 8.77697C23.0914 8.98205 22.8124 9.09727 22.5214 9.09727C22.2305 9.09727 21.9515 8.98205 21.7457 8.77697C21.54 8.57188 21.4244 8.29372 21.4244 8.00369V6.86636ZM5.60019 9.73921C5.60019 10.0292 5.48461 10.3074 5.27888 10.5125C5.07316 10.7176 4.79413 10.8328 4.50319 10.8328C4.21224 10.8328 3.93322 10.7176 3.72749 10.5125C3.52176 10.3074 3.40619 10.0292 3.40619 9.73921V6.86854C3.40619 6.57851 3.52176 6.30035 3.72749 6.09526C3.93322 5.89017 4.21224 5.77496 4.50319 5.77496C4.79413 5.77496 5.07316 5.89017 5.27888 6.09526C5.48461 6.30035 5.60019 6.57851 5.60019 6.86854V9.73921ZM10.1045 12.2129C10.1045 12.5029 9.9889 12.7811 9.78317 12.9862C9.57744 13.1913 9.29842 13.3065 9.00747 13.3065C8.71653 13.3065 8.4375 13.1913 8.23178 12.9862C8.02605 12.7811 7.91047 12.5029 7.91047 12.2129V4.39376C7.91047 4.10372 8.02605 3.82556 8.23178 3.62048C8.4375 3.41539 8.71653 3.30017 9.00747 3.30017C9.29842 3.30017 9.57744 3.41539 9.78317 3.62048C9.9889 3.82556 10.1045 4.10372 10.1045 4.39376V12.2129ZM14.6077 9.73921C14.6077 10.0292 14.4921 10.3074 14.2864 10.5125C14.0806 10.7176 13.8016 10.8328 13.5107 10.8328C13.2197 10.8328 12.9407 10.7176 12.735 10.5125C12.5292 10.3074 12.4137 10.0292 12.4137 9.73921V6.86854C12.4137 6.57851 12.5292 6.30035 12.735 6.09526C12.9407 5.89017 13.2197 5.77496 13.5107 5.77496C13.8016 5.77496 14.0806 5.89017 14.2864 6.09526C14.4921 6.30035 14.6077 6.57851 14.6077 6.86854V9.73921ZM19.1108 12.2129C19.1108 12.5029 18.9953 12.7811 18.7895 12.9862C18.5838 13.1913 18.3048 13.3065 18.0138 13.3065C17.7229 13.3065 17.4439 13.1913 17.2382 12.9862C17.0324 12.7811 16.9168 12.5029 16.9168 12.2129V4.39376C16.9168 4.10372 17.0324 3.82556 17.2382 3.62048C17.4439 3.41539 17.7229 3.30017 18.0138 3.30017C18.3048 3.30017 18.5838 3.41539 18.7895 3.62048C18.9953 3.82556 19.1108 4.10372 19.1108 4.39376V12.2129Z" fill="white"/>
<path d="M29.4236 15.1409L30.7696 15.6243C30.7963 15.6339 30.8194 15.6515 30.8357 15.6747C30.8521 15.6979 30.8608 15.7255 30.8608 15.7539C30.8608 15.7822 30.8521 15.8099 30.8357 15.833C30.8194 15.8562 30.7963 15.8738 30.7696 15.8835L29.4236 16.3668C28.6855 16.6322 28.0152 17.0565 27.4604 17.6096C26.9056 18.1627 26.4799 18.8309 26.2137 19.5667L25.7289 20.9085C25.685 21.0299 25.5128 21.0299 25.4689 20.9085L24.984 19.5667C24.7178 18.8309 24.2922 18.1627 23.7374 17.6096C23.1826 17.0565 22.5123 16.6322 21.7742 16.3668L20.4282 15.8835C20.4014 15.8738 20.3783 15.8562 20.362 15.833C20.3457 15.8099 20.3369 15.7822 20.3369 15.7539C20.3369 15.7255 20.3457 15.6979 20.362 15.6747C20.3783 15.6515 20.4014 15.6339 20.4282 15.6243L21.7742 15.1409C22.5123 14.8756 23.1826 14.4512 23.7374 13.8982C24.2922 13.3451 24.7178 12.6769 24.984 11.9411L25.4689 10.5993C25.4785 10.5726 25.4962 10.5496 25.5195 10.5333C25.5427 10.517 25.5705 10.5083 25.5989 10.5083C25.6273 10.5083 25.655 10.517 25.6783 10.5333C25.7015 10.5496 25.7192 10.5726 25.7289 10.5993L26.2137 11.9411C26.4799 12.6769 26.9056 13.3451 27.4604 13.8982C28.0152 14.4512 28.6855 14.8756 29.4236 15.1409Z" fill="#F8665C"/>
</svg>
