<svg viewBox="0 0 24 24" xmlns="http://www.w3.org/2000/svg">
<path d="M19.743 18.045L15.912 17.087L15.586 15.783C16.611 14.768 17.313 13.374 17.521 11.944C18.089 11.784 18.529 11.297 18.605 10.686L18.855 8.68598C18.908 8.26397 18.7779 7.83698 18.498 7.51697C18.3352 7.3308 18.1292 7.18758 17.898 7.09997L17.99 5.21695L18.364 4.84195C18.927 4.24294 19.394 3.21595 18.418 1.72594C17.668 0.581016 16.394 0 14.63 0C13.934 0 12.332 0 10.84 1.002C6.57998 1.09102 6 3.06998 6 5.00002C6 5.44903 6.10898 6.46003 6.18098 7.07002C5.92119 7.1519 5.68878 7.30338 5.50898 7.50802C5.36825 7.66754 5.26303 7.85514 5.20028 8.0584C5.13753 8.26165 5.11869 8.47593 5.145 8.68702L5.39498 10.687C5.47697 11.339 5.97197 11.852 6.59798 11.974C6.80498 13.349 7.47098 14.698 8.43698 15.696L8.08898 17.089L4.25798 18.047C1.74998 18.672 0 20.914 0 23.5C0 23.776 0.224016 24 0.500016 24H23.5C23.776 24 24 23.774 24 23.498C24.0016 22.2442 23.5832 21.0259 22.8116 20.0376C22.0401 19.0493 20.9597 18.3478 19.743 18.045Z" />
</svg>
