<svg viewBox="0 0 16 16" xmlns="http://www.w3.org/2000/svg">
<path d="M0.606221 0.456121C1.17362 -0.0295758 2.01063 -0.0297131 2.5779 0.456121L7.99587 5.84284L13.3074 0.532293C13.9186 -0.039601 14.8781 -0.00758947 15.45 0.603582C15.9667 1.15619 15.9967 2.00506 15.5203 2.59284L10.1394 7.9737L15.5203 13.3233C16.1312 13.8953 16.1625 14.8539 15.5906 15.4649C15.5678 15.4892 15.5446 15.5134 15.5203 15.5362C15.3635 15.6725 15.1803 15.7754 14.9822 15.838C14.7841 15.9005 14.5746 15.921 14.3679 15.8995C13.9705 15.8977 13.5896 15.7399 13.3074 15.46L7.98025 10.1329L2.5779 15.5362C2.28381 15.7886 1.90349 15.9183 1.51638 15.8995C1.12442 15.9222 0.738998 15.792 0.441182 15.5362C-0.146421 14.9451 -0.146398 13.9906 0.441182 13.3995L5.84353 7.99616L0.440206 2.59284C-0.103769 1.95711 -0.0293545 1.00044 0.606221 0.456121Z" />
</svg>
