<svg viewBox="0 0 512 512" xmlns="http://www.w3.org/2000/svg">
<path d="M335.086 304.41C335.629 312.261 337.852 320.135 338.894 327.952C350.98 418.601 224.732 458.647 182.568 375.589C164.434 339.867 178.666 321.446 180.231 287.382C181.028 270.017 175.329 262.137 164.887 249.092L145.49 224.885C120.52 193.878 125.013 187.188 120.493 150.269C118.05 130.317 106.971 95.9829 136.55 91.1757C153.796 89.2999 161.556 102.813 171.399 114.095C185.281 130.006 204.826 151.266 216.652 168.619C243.265 155.028 270.547 158.985 297.244 168.619C301.425 162.669 306.511 157.061 311.103 151.4L347.286 106.636C349.83 103.46 352.276 100.016 355.301 97.2836C368.743 85.1401 392.677 91.443 395.837 109.938C397.065 117.122 393.762 139.738 392.837 148.285L389.819 175.706C386.745 202.631 383.914 204.061 366.565 225.89L351.113 245.363C332.075 269.199 329.788 272.799 335.086 304.41ZM138.24 103.377C124.981 106.844 129.542 120.139 130.661 129.922L134.625 163.673C136.281 176.9 136.335 190.475 143.831 202.046C148.178 208.757 176.08 244.136 181.491 247.235C190.022 252.12 197.59 246.897 205.043 242.938L227.032 231.181C266.154 209.827 271.326 223.041 307.261 241.874C333.236 255.487 332.876 248.045 349.185 227.369C377.797 191.095 374.553 198.423 379.301 155.279L382.066 130.076C382.562 125.478 383.244 120.809 383.46 116.194C383.93 106.1 372.716 99.3139 364.517 105.91C359.891 110.488 355.981 116.174 351.89 121.257L317.041 164.227C314.812 166.949 312.343 169.657 310.397 172.585C319.891 175.893 329.704 178.575 339.294 181.63C344.625 183.33 356.373 185.026 352.873 193.44C349.765 200.912 334.944 193.512 329.879 191.939C312.789 186.63 293.499 179.198 276.487 175.011C250.287 168.562 237.55 173.792 214.314 182.343C202.689 186.62 179.568 196.086 168.017 198.341C162.514 199.415 158.374 194.38 161.326 189.142C163.767 184.813 197.522 175.097 203.802 172.585C192.851 156.882 175.338 138.103 162.665 123.52L152.653 111.949C148.155 106.692 145.92 103.067 138.24 103.377ZM257.098 232.177C249.799 232.913 243.798 236.676 237.46 240.086L217.55 250.702C208.44 255.669 199.578 261.724 188.801 261.497C198.118 283.24 189.574 305.891 186.784 327.923C181.44 370.129 213.817 408.544 257.098 408.275C294.93 408.344 327.1 377.247 327.031 339.124C326.979 309.886 313.509 292.312 324.006 261.497C301.231 259.201 271.973 231.764 257.098 232.177Z"/>
<path d="M468.402 287.282C465.474 287.743 462.602 286.386 461.057 283.811C457.523 277.922 467.499 272.012 470.896 268.743C501.727 239.07 499.329 184.502 469.636 155.017C465.809 151.215 454.232 143.093 464.689 138.027C473.767 137.215 487.617 157.027 491.919 164.074C514.421 200.934 509.408 250.19 477.512 279.961C474.684 282.601 471.714 285.271 468.402 287.282Z"/>
<path d="M450.328 266.843C447.466 267.244 444.876 266.224 443.161 263.809C439.298 258.368 447.427 252.879 450.708 249.685C469.864 231.039 468.799 197.706 452.462 177.725C448.103 172.394 434.484 163.897 445.71 157.654C452.721 157.03 458.708 165.93 462.621 170.848C487.221 201.757 480.786 242.734 450.328 266.843Z"/>
<path d="M430.111 247.862C427.237 247.749 424.343 246.441 422.991 243.755C420.116 238.043 427.084 234.399 430.157 230.766C439.365 219.878 438.24 203.071 428.711 192.698C425.035 188.696 416.093 181.64 427.378 177.251C440.996 176.47 466.455 224.566 430.111 247.862Z"/>
<path d="M87.3267 246.862C79.1701 248.257 70.9751 234.211 68.2007 228.062C60.6085 211.237 66.9065 183.868 84.2347 176.251C87.0692 175.904 89.6892 176.57 91.1102 179.338C94.0722 185.114 87.2973 188.7 84.2641 192.387C75.1402 203.478 74.423 221.058 84.9004 231.591C88.9818 235.694 97.8728 241.935 87.3267 246.862Z"/>
<path d="M66.9857 265.843C62.5657 266.469 59.3606 262.623 56.5328 259.77C35.618 238.672 29.8371 207.309 43.997 180.584C47.5785 173.825 58.4231 158.923 65.8275 156.653C70.8919 156.803 74.6652 161.177 71.7615 166.183C70.2191 168.842 67.0411 171.178 64.7995 173.299C44.7379 192.28 43.2104 226.007 61.3777 246.842C64.9297 250.916 79.8144 260.801 66.9857 265.843Z"/>
<path d="M47.5405 286.281C42.7375 286.306 37.7319 279.911 34.6817 276.803C1.92908 243.437 -1.222 191.048 28.2921 154.385C32.5994 149.034 41.3858 137.816 48.6217 137.026C53.338 136.502 57.6712 140.505 54.4904 145.238C52.3154 148.475 48.444 151.13 45.6456 153.888C15.3714 183.719 10.7433 230.729 39.4072 264.016C43.7666 269.079 62.4079 281.24 47.5405 286.281Z"/>
<path d="M286.054 304.41C269.696 305.191 247.491 305.086 231.046 304.44C222.2 304.093 220.641 294.847 228.106 291.453C245.022 291.264 266.873 290.343 283.562 291.488C292.306 292.089 293.671 301.36 286.054 304.41Z"/>
<path d="M409.816 396.795C398.985 396.963 402.952 377.234 382.57 371.195C378.075 369.864 367.838 370.797 366.092 365.045C362.629 353.634 389.542 359.036 393.607 333.053C394.353 328.286 394.306 324.488 399.591 323.1C407.103 323.259 407.119 331.589 410.074 336.733C421.216 356.132 439.044 345.586 442.629 352.604C446.999 361.152 435.041 362.108 430.002 364.302C407.694 374.016 420.3 392.178 409.816 396.795ZM402.422 347.747C399.019 352.696 395.535 356.944 391.087 361.018C396.51 363.865 400.866 366.941 405.045 371.454C405.226 371.343 414.36 358.887 414.735 358.311C410.491 354.874 406.292 351.621 402.422 347.747Z"/>
<path d="M116.08 395.698C109.706 394.834 109.667 390.084 107.199 385.024C95.6386 361.33 73.7813 373.513 71.8062 363.917C69.2684 351.592 96.2025 360.742 97.8809 334.079C98.2487 328.227 96.4342 322.688 103.805 321.262C110.108 321.787 110.65 328.28 113.363 332.788C126.254 354.212 144.705 340.669 147.367 350.207C150.653 361.975 125.034 354.536 122.173 380.426C121.469 386.79 124.424 394.037 116.08 395.698ZM107.869 345.806C105.508 351.323 102.965 355.702 98.7465 359.995C103.829 361.91 108.439 365.245 111.65 369.662L111.914 369.186C114.801 363.915 116.029 360.597 120.032 355.829C115.51 353.067 111.43 349.734 107.869 345.806Z"/>
</svg>
