<svg viewBox="0 0 512 513" xmlns="http://www.w3.org/2000/svg">
<path d="M90.4809 330.823C75.6929 330.597 47.5942 333.826 36.6755 324.727C18.8098 309.837 34.2102 290.718 42.8685 276.686C51.5771 262.57 60.0428 248.313 68.4857 234.038C81.92 211.321 79.6772 219.127 79.6658 190.549C79.6431 134.685 88.6287 81.8129 134.089 42.8766C169.422 12.6131 215.171 3.50375 260.173 0.00183594C336.234 -0.224112 411.119 20.3555 454.037 89.4046C495.406 155.96 489.4 254.534 455.324 322.785C448.714 336.024 440.429 346 432.329 358.073C406.98 395.855 404.721 448.496 421.789 489.873C423.86 494.895 428.905 501.513 427.373 507.246C425.175 515.46 416.275 513.718 412.508 505.631C390.232 457.8 389.669 401.562 416.437 355.329C421.212 347.079 427.421 339.842 432.814 332.006C446.888 311.56 456.169 285.715 461.656 261.561C484.018 163.11 454.126 64.6951 352.879 28.2595C297.302 8.25944 225.71 10.6394 172.291 35.7419C118.166 63.0189 94.3927 117.733 94.2166 176.595C94.1541 197.564 98.5915 212.603 88.1301 230.45C76.906 249.596 65.1648 268.512 53.6452 287.485C43.0063 305.007 33.7743 315.49 62.037 315.317L85.9697 315.218C106.574 315.174 105.408 314.416 105.417 333.769L105.402 378.819C105.402 397.707 102.567 421 126.612 427.535C133.552 429.421 142.901 428.427 150.146 428.409L178.943 428.402C194.514 428.372 192.636 427.796 200.568 442.444L224.737 486.819C227.78 492.269 238.204 505.789 229.893 510.877C219.307 517.36 211.01 492.793 207.141 485.55C199.617 471.467 191.95 457.243 183.836 443.494L153.991 443.507C143.403 443.513 130.99 444.692 120.825 441.548C88.2224 431.467 90.4795 402.131 90.4781 375.671L90.4809 330.823Z" />
<path d="M272.955 69.5031C272.9 60.3144 269.654 45.8536 279.724 42.3487C292.124 41.3621 288.14 62.2592 288.1 69.5031C341.113 74.5453 384.015 108.424 401.323 158.342C402.952 163.036 406.839 170.963 402.255 175.162C391.837 184.704 387.801 164.849 386.103 160.128C371.233 118.78 332.404 87.9883 288.1 84.7901C288.09 93.1867 291.624 109.55 283.61 113.756C279.395 114.654 276.785 113.588 274.247 110.048C272.101 102.177 272.931 92.9226 272.955 84.7901C229.639 85.0357 187.397 121.292 174.778 161.647C173.099 167.014 170.513 182.206 160.686 175.313C155.755 171.853 158.313 164.96 159.589 160.277C174.159 106.8 219.618 74.9328 272.955 69.5031Z" />
<path d="M285.58 251.346C263.17 252.716 242.991 242.764 227.648 227.053C222.864 222.153 207.883 205.043 207.375 198.868C206.996 194.257 210.657 190.148 213.376 186.79C228.862 167.659 248.353 149.326 274.005 146.626C294.903 144.118 316.498 155.976 331.625 169.738C335.708 173.453 351.535 190.511 352.38 195.917C353.154 200.857 344.241 212.116 341.077 216.295C326.941 234.959 309.16 248.067 285.58 251.346ZM271.632 161.984C252.373 165.781 234.956 182.68 223.572 198.079C231.82 210.481 240.095 218.952 252.019 227.972C258.949 231.475 265.088 234.228 272.707 236.005C272.502 232.008 272.356 228.145 272.707 224.146C248.024 212.729 246.927 182.082 272.707 172.607C272.601 169.706 273.091 164.654 271.98 162.077L271.632 161.984ZM287.223 161.984C287.243 165.524 287.273 169.066 287.223 172.607C312.885 179.008 315.869 211.56 287.223 224.146V236.005C294.418 234.553 301.138 231.765 307.396 227.972C321.595 218.151 325.946 210.943 335.984 198.079C327.842 182.353 305.088 164.848 287.223 161.984ZM279.308 186.646C279.119 186.667 278.929 186.692 278.741 186.723C278.553 186.753 278.365 186.788 278.178 186.828C277.992 186.868 277.806 186.912 277.621 186.961C277.437 187.01 277.254 187.064 277.071 187.122C276.889 187.179 276.709 187.242 276.531 187.309C276.352 187.376 276.174 187.447 275.999 187.522C275.823 187.598 275.65 187.678 275.478 187.762C275.308 187.845 275.139 187.933 274.972 188.026C274.804 188.119 274.639 188.215 274.477 188.315C274.315 188.416 274.156 188.521 273.999 188.629C273.842 188.738 273.688 188.85 273.536 188.966C273.384 189.082 273.236 189.201 273.09 189.324C272.945 189.448 272.803 189.575 272.664 189.705C272.524 189.835 272.388 189.969 272.255 190.106C272.122 190.243 271.993 190.383 271.867 190.527C271.741 190.67 271.619 190.816 271.501 190.965C271.383 191.115 271.268 191.267 271.158 191.422C271.046 191.577 270.939 191.735 270.836 191.896C270.733 192.056 270.634 192.219 270.538 192.384C270.443 192.549 270.352 192.717 270.265 192.886C270.178 193.056 270.096 193.228 270.018 193.401C269.94 193.575 269.866 193.751 269.796 193.928C269.726 194.106 269.661 194.285 269.6 194.466C269.54 194.646 269.484 194.828 269.431 195.011C269.38 195.194 269.333 195.379 269.29 195.564C269.248 195.751 269.21 195.938 269.177 196.125C269.143 196.313 269.115 196.501 269.091 196.69C269.066 196.879 269.047 197.068 269.032 197.258C269.018 197.449 269.008 197.639 269.002 197.829C268.998 198.019 268.997 198.21 269.001 198.4C269.005 198.591 269.014 198.781 269.028 198.971C269.041 199.161 269.059 199.351 269.082 199.54C269.105 199.729 269.133 199.918 269.165 200.105C269.198 200.294 269.234 200.481 269.275 200.666C269.317 200.852 269.364 201.037 269.414 201.221C269.465 201.405 269.52 201.587 269.58 201.768C269.64 201.948 269.705 202.128 269.773 202.306C269.841 202.484 269.914 202.66 269.992 202.834C270.069 203.008 270.151 203.18 270.237 203.35C270.322 203.521 270.412 203.688 270.505 203.854C270.6 204.02 270.698 204.183 270.8 204.343C270.903 204.505 271.009 204.664 271.119 204.819C271.229 204.975 271.343 205.128 271.461 205.278C271.578 205.427 271.699 205.574 271.824 205.719C271.949 205.863 272.078 206.004 272.21 206.141C272.342 206.279 272.477 206.414 272.615 206.545C272.754 206.676 272.896 206.803 273.04 206.928C273.185 207.051 273.333 207.172 273.485 207.289C273.635 207.406 273.789 207.519 273.945 207.628C274.101 207.738 274.26 207.843 274.421 207.944C274.583 208.046 274.747 208.143 274.913 208.236C275.08 208.33 275.249 208.419 275.42 208.505C275.59 208.589 275.763 208.67 275.939 208.746C276.113 208.823 276.29 208.895 276.468 208.963C276.646 209.03 276.826 209.093 277.009 209.152C277.19 209.211 277.373 209.266 277.558 209.317C277.742 209.366 277.927 209.411 278.113 209.452C278.3 209.493 278.487 209.529 278.676 209.561C278.864 209.592 279.053 209.619 279.243 209.642C279.432 209.664 279.623 209.681 279.813 209.695C280.003 209.707 280.194 209.715 280.385 209.719C280.576 209.723 280.767 209.721 280.957 209.715C281.148 209.709 281.339 209.699 281.529 209.683C281.719 209.668 281.909 209.648 282.099 209.623C282.286 209.599 282.472 209.57 282.658 209.536C282.844 209.503 283.029 209.465 283.213 209.422C283.396 209.38 283.578 209.334 283.761 209.282C283.942 209.231 284.122 209.175 284.301 209.115C284.479 209.055 284.657 208.99 284.833 208.921C285.009 208.853 285.182 208.78 285.354 208.703C285.526 208.625 285.697 208.544 285.864 208.459C286.033 208.373 286.199 208.283 286.362 208.189C286.526 208.096 286.688 207.999 286.847 207.897C287.006 207.796 287.163 207.691 287.316 207.581C287.47 207.472 287.621 207.359 287.769 207.243C287.917 207.126 288.063 207.006 288.206 206.884C288.348 206.76 288.487 206.633 288.623 206.503C288.76 206.372 288.893 206.239 289.022 206.102C289.152 205.965 289.278 205.825 289.401 205.682C289.524 205.539 289.643 205.394 289.759 205.245C289.874 205.096 289.986 204.944 290.095 204.79C290.204 204.636 290.308 204.479 290.408 204.321C290.509 204.161 290.606 203.999 290.698 203.835C290.791 203.671 290.88 203.505 290.965 203.337C291.049 203.169 291.13 202.999 291.206 202.827C291.282 202.654 291.354 202.48 291.422 202.304C291.49 202.128 291.553 201.951 291.612 201.772C291.672 201.593 291.726 201.413 291.777 201.231C291.826 201.05 291.872 200.868 291.914 200.683C291.955 200.5 291.992 200.315 292.024 200.129C292.057 199.944 292.084 199.758 292.107 199.572C292.131 199.385 292.15 199.198 292.163 199.009C292.177 198.822 292.187 198.634 292.192 198.446C292.196 198.257 292.197 198.069 292.193 197.881C292.188 197.692 292.179 197.504 292.166 197.317C292.153 197.128 292.134 196.941 292.112 196.755C292.089 196.568 292.061 196.382 292.03 196.195C291.998 196.01 291.961 195.825 291.921 195.642C291.88 195.458 291.835 195.275 291.785 195.094C291.735 194.912 291.681 194.732 291.622 194.553C291.563 194.374 291.5 194.196 291.434 194.02C291.366 193.844 291.294 193.67 291.219 193.498C291.143 193.326 291.063 193.155 290.979 192.986C290.895 192.817 290.807 192.651 290.714 192.488C290.622 192.323 290.525 192.161 290.425 192.001C290.325 191.842 290.221 191.685 290.114 191.53C290.006 191.376 289.894 191.224 289.779 191.075C289.663 190.927 289.544 190.781 289.421 190.637C289.299 190.493 289.173 190.353 289.044 190.216C288.915 190.079 288.782 189.945 288.646 189.815C288.511 189.684 288.372 189.556 288.23 189.433C288.088 189.309 287.943 189.189 287.795 189.072C287.646 188.955 287.495 188.841 287.342 188.732C287.188 188.622 287.032 188.517 286.874 188.415C286.715 188.313 286.554 188.215 286.391 188.121C286.228 188.027 286.062 187.937 285.893 187.851C285.725 187.765 285.555 187.683 285.384 187.606C285.212 187.528 285.039 187.454 284.863 187.385C284.688 187.316 284.51 187.252 284.331 187.191C284.153 187.13 283.973 187.074 283.792 187.022C283.611 186.97 283.428 186.922 283.244 186.88C283.06 186.837 282.876 186.798 282.691 186.764C282.505 186.73 282.318 186.7 282.132 186.676C281.945 186.651 281.757 186.63 281.568 186.614C281.38 186.599 281.192 186.588 281.003 186.581C280.815 186.575 280.627 186.573 280.438 186.576C280.249 186.578 280.061 186.585 279.872 186.597C279.684 186.608 279.496 186.625 279.308 186.646Z" />
<path d="M415.866 203.821C407.617 204.117 385.394 204.824 377.496 203.734C368.092 202.437 368.114 190.486 378.429 190.371C379.773 189.968 410.481 189.7 415.291 189.86C424.945 190.183 424.801 201.178 415.866 203.821Z" />
<path d="M184.171 205.377L161.257 205.37C155.829 205.383 141.796 207.115 140.913 198.871C140.289 193.047 144.587 190.232 149.553 189.92L172.681 189.919C176.664 189.92 181.089 189.541 185.003 190.21C194.444 191.824 193.47 203.962 184.171 205.377Z" />
<path d="M272.977 324.531C229.898 319.352 194.518 302.295 171.416 263.405C166.23 254.675 149.607 225.74 162.69 218.855C173.476 218.208 173.06 229.875 175.664 237.505C189.362 277.644 230.556 307.853 272.977 309.199C272.96 302.618 272.486 295.69 272.964 289.139C273.7 279.08 282.995 278.084 288.128 285.455C287.974 293.356 288.126 301.293 288.128 309.199C332.15 305.585 369.706 280.91 385.897 238.801C388.069 233.154 389.624 217.436 399.127 221.158C402.007 222.285 403.245 224.383 404.415 227.077C404.045 230.629 403.063 234.055 402.123 237.488C389.361 277.205 356.402 309.574 315.519 320.033C306.451 322.352 297.343 323.123 288.128 324.531V346.64C285.485 350.724 279.788 354.059 275.601 349.923C271.456 345.828 272.943 330.367 272.977 324.531Z" />
</svg>
