<svg viewBox="0 0 364 364" xmlns="http://www.w3.org/2000/svg">
<path d="M182.369 40.1005C196.095 41.3056 193.193 57.0627 193.36 66.9757C240.757 72.1724 279.837 104.097 293.409 150.246C295.428 157.11 296.514 164.108 297.616 171.162C304.464 171.722 315.683 169.265 320.828 174.585C326.527 180.478 324.425 190.833 315.996 192.807C311.801 193.789 302.191 193.324 297.616 193.188C289.464 251.15 252.045 289.424 193.36 297.766C193.362 308.595 196.674 321.086 183.316 324.382C168.994 327.548 171.661 304.7 171.413 297.766C165.762 296.567 160.086 295.782 154.485 294.306C109.957 282.58 68.7527 240.598 67.2127 193.188C61.1268 192.964 49.6147 194.758 44.8861 190.429C40.405 186.326 39.8441 178.549 44.3102 174.209C48.1067 170.52 53.8084 171.121 58.6517 171.137L67.2127 171.162C66.8934 166.14 67.8654 161.542 68.9563 156.66C79.4175 109.846 122.7 68.998 171.413 66.9757C171.564 56.5292 167.872 41.2716 182.369 40.1005ZM88.3488 171.162C92.9995 171.09 113.1 170.335 116.945 171.195C129.205 173.933 129.868 190.523 118.177 192.914C111.507 194.278 95.9846 192.925 88.3488 193.188C94.7361 237.729 127.677 269.17 171.413 275.572C171.464 269.28 170.675 252.435 172.025 247.332C174.875 236.548 191.004 237.902 193.063 248.361C194.063 253.438 192.284 275.026 194.101 275.611L194.285 275.572C200.392 274.289 206.498 273.195 212.439 271.24C248.475 259.387 269.21 229.229 275.699 193.188L258.292 193.198C252.614 193.216 245.545 194.346 241.165 189.79C237.126 185.588 237.06 178.052 241.522 174.145C247.184 169.188 267.976 171.589 275.699 171.162C274.805 165.953 274.031 160.755 272.526 155.675C262.414 121.561 229.484 91.7954 193.36 88.8568C193.301 95.7762 194.218 111.646 193.046 117.321C190.494 129.678 173.471 128.195 171.358 116.081C170.159 109.205 173.461 93.9936 170.817 88.8858L170.22 88.8568C128.86 93.3312 92.4027 129.517 88.3488 171.162ZM178.661 147.597C179.228 147.54 179.796 147.498 180.365 147.469C180.934 147.44 181.503 147.425 182.073 147.424C182.642 147.423 183.211 147.437 183.78 147.464C184.349 147.491 184.917 147.532 185.484 147.587C186.051 147.642 186.617 147.711 187.181 147.794C187.744 147.877 188.305 147.974 188.863 148.085C189.422 148.195 189.978 148.318 190.531 148.456C191.084 148.594 191.633 148.745 192.178 148.91C192.723 149.075 193.264 149.253 193.801 149.444C194.338 149.636 194.869 149.84 195.396 150.057C195.923 150.275 196.443 150.505 196.958 150.748C197.474 150.991 197.983 151.246 198.486 151.515C198.988 151.783 199.484 152.063 199.973 152.355C200.462 152.648 200.944 152.952 201.418 153.268C201.892 153.584 202.358 153.912 202.816 154.251C203.274 154.59 203.724 154.94 204.165 155.301C204.605 155.662 205.037 156.033 205.46 156.416C205.883 156.798 206.296 157.191 206.699 157.593C207.103 157.996 207.496 158.408 207.879 158.83C208.263 159.252 208.635 159.682 208.997 160.123C209.359 160.563 209.71 161.012 210.05 161.47C210.39 161.927 210.719 162.393 211.036 162.867C211.354 163.34 211.659 163.821 211.952 164.309C212.246 164.798 212.528 165.294 212.798 165.796C213.067 166.298 213.324 166.807 213.568 167.323C213.812 167.838 214.044 168.358 214.263 168.885C214.482 169.412 214.688 169.943 214.881 170.479C215.073 171.016 215.253 171.557 215.419 172.102C215.586 172.648 215.739 173.197 215.879 173.75C216.018 174.303 216.143 174.859 216.256 175.418C216.368 175.977 216.466 176.539 216.55 177.103C216.635 177.666 216.706 178.232 216.763 178.8C216.819 179.367 216.862 179.936 216.892 180.505C216.921 181.075 216.936 181.645 216.936 182.215C216.938 182.785 216.925 183.355 216.899 183.924C216.871 184.494 216.83 185.062 216.776 185.63C216.721 186.198 216.653 186.764 216.57 187.329C216.488 187.893 216.391 188.455 216.281 189.014C216.171 189.574 216.047 190.13 215.91 190.684C215.772 191.237 215.622 191.786 215.457 192.333C215.293 192.879 215.115 193.421 214.924 193.958C214.734 194.495 214.531 195.027 214.314 195.555C214.097 196.082 213.867 196.603 213.624 197.12C213.382 197.636 213.127 198.145 212.86 198.648C212.592 199.152 212.312 199.649 212.02 200.139C211.728 200.629 211.424 201.111 211.109 201.586C210.794 202.06 210.467 202.527 210.128 202.986C209.79 203.445 209.441 203.895 209.08 204.337C208.719 204.778 208.349 205.211 207.967 205.634C207.585 206.057 207.193 206.471 206.792 206.875C206.39 207.279 205.978 207.673 205.557 208.057C205.136 208.44 204.705 208.814 204.266 209.177C203.826 209.54 203.378 209.892 202.921 210.232C202.465 210.572 202 210.902 201.527 211.22C201.054 211.538 200.574 211.844 200.086 212.138C199.598 212.432 199.103 212.714 198.601 212.985C198.099 213.255 197.591 213.512 197.077 213.756C196.563 214.001 196.043 214.234 195.517 214.454C194.991 214.673 194.46 214.879 193.924 215.072C193.389 215.265 192.848 215.445 192.303 215.613C191.758 215.779 191.21 215.932 190.658 216.072C190.105 216.212 189.55 216.338 188.992 216.451C188.434 216.563 187.873 216.662 187.309 216.747C186.746 216.832 186.182 216.903 185.615 216.96C185.048 217.018 184.48 217.061 183.91 217.09C183.341 217.12 182.772 217.135 182.201 217.136C181.631 217.138 181.062 217.125 180.493 217.098C179.923 217.072 179.355 217.031 178.787 216.976C178.22 216.922 177.655 216.853 177.091 216.771C176.526 216.688 175.965 216.592 175.406 216.482C174.846 216.372 174.29 216.248 173.737 216.11C173.184 215.973 172.635 215.822 172.089 215.658C171.543 215.493 171.002 215.315 170.465 215.125C169.928 214.934 169.396 214.73 168.869 214.513C168.341 214.295 167.82 214.065 167.304 213.822C166.788 213.579 166.279 213.323 165.776 213.056C165.272 212.788 164.776 212.508 164.287 212.215C163.797 211.923 163.315 211.619 162.841 211.303C162.366 210.987 161.899 210.659 161.441 210.321C160.982 209.982 160.532 209.632 160.091 209.271C159.65 208.91 159.218 208.538 158.795 208.156C158.372 207.773 157.958 207.381 157.554 206.978C157.15 206.575 156.757 206.163 156.373 205.741C155.989 205.319 155.617 204.888 155.254 204.448C154.891 204.007 154.54 203.558 154.199 203.101C153.859 202.642 153.53 202.177 153.212 201.703C152.895 201.229 152.589 200.748 152.295 200.259C152.001 199.77 151.719 199.274 151.449 198.771C151.18 198.269 150.923 197.76 150.678 197.245C150.433 196.729 150.201 196.208 149.982 195.682C149.763 195.155 149.557 194.623 149.364 194.086C149.171 193.549 148.991 193.008 148.825 192.462C148.658 191.916 148.505 191.367 148.366 190.814C148.226 190.26 148.1 189.704 147.988 189.144C147.876 188.585 147.777 188.023 147.693 187.459C147.608 186.894 147.538 186.328 147.48 185.761C147.423 185.193 147.38 184.625 147.352 184.054C147.322 183.485 147.307 182.915 147.307 182.344C147.305 181.773 147.318 181.203 147.346 180.633C147.372 180.063 147.413 179.494 147.468 178.925C147.523 178.358 147.591 177.792 147.674 177.227C147.756 176.663 147.853 176.1 147.963 175.54C148.074 174.981 148.198 174.424 148.335 173.87C148.472 173.316 148.623 172.766 148.788 172.22C148.953 171.674 149.131 171.132 149.322 170.594C149.513 170.057 149.717 169.524 149.933 168.997C150.151 168.469 150.381 167.947 150.624 167.431C150.867 166.915 151.122 166.405 151.39 165.901C151.658 165.397 151.938 164.901 152.23 164.41C152.522 163.921 152.826 163.438 153.142 162.963C153.458 162.489 153.786 162.022 154.124 161.563C154.463 161.104 154.812 160.653 155.173 160.212C155.534 159.77 155.906 159.337 156.288 158.914C156.67 158.49 157.062 158.076 157.465 157.673C157.867 157.268 158.279 156.874 158.701 156.491C159.122 156.107 159.553 155.734 159.994 155.371C160.433 155.008 160.882 154.657 161.339 154.316C161.797 153.975 162.262 153.646 162.735 153.328C163.209 153.011 163.69 152.704 164.178 152.41C164.667 152.116 165.162 151.835 165.664 151.565C166.167 151.295 166.675 151.038 167.189 150.793C167.704 150.548 168.225 150.316 168.751 150.097C169.277 149.878 169.809 149.672 170.345 149.479C170.881 149.286 171.422 149.106 171.968 148.94C172.513 148.773 173.062 148.62 173.614 148.481C174.167 148.341 174.722 148.215 175.281 148.104C175.84 147.992 176.401 147.893 176.965 147.809C177.529 147.724 178.095 147.654 178.661 147.597ZM264.789 0.310154C269.001 0.0255861 273.421 0.30236 277.655 0.30186L335.203 0.30016C343.583 0.301459 359.977 -2.29402 363.154 8.31814C364.562 13.0205 363.79 26.7324 363.778 32.231L363.792 87.6918C363.807 95.5084 365.357 105.344 355.595 108.074C342.18 110.788 341.698 98.534 341.698 89.7721L341.71 22.1124C337.46 22.332 333.198 22.1279 328.944 22.1197L282.51 22.1201C277.72 22.1576 266.401 23.348 262.116 21.2705C253.385 17.0387 253.308 3.63265 264.789 0.310154ZM29.3908 0.310154C35.1274 0.581333 40.9978 0.324941 46.7494 0.318647L79.8736 0.319447C88.5693 0.317648 107.329 -2.80941 107.95 10.5417C108.461 21.5448 99.9637 22.1338 92.2001 22.1203L22.314 22.1124C21.9778 25.4943 22.2736 28.8737 22.2953 32.2639L22.314 51.3933C22.4719 64.7555 22.4945 79.0099 22.143 92.28C22.0769 94.777 22.1539 97.3879 21.7167 99.8489C19.4589 112.558 1.01856 110.854 0.338515 97.7856C0.0236403 91.7355 0.362864 85.4926 0.371447 79.4195L0.377135 22.7895C0.168549 -2.79771 6.01754 0.918859 29.3908 0.310154ZM9.82478 256.138L10.5448 256.108C22.2114 255.738 22.3548 265.651 22.3263 274.013L22.314 342.532C24.4315 342.746 26.6523 342.564 28.782 342.553L81.156 342.515C86.9266 342.512 93.251 342.021 98.9487 342.799C112.372 344.636 112.127 361.938 99.2801 363.98L22.9048 364C-2.24186 364.047 0.327636 358.193 0.42145 337.41L0.370053 284.281C0.370852 273.292 -2.87161 259.964 9.82478 256.138ZM351.363 256.138C359.542 254.835 363.652 261.379 363.776 268.705C364.102 287.994 363.765 307.35 363.763 326.644L363.785 343.22C363.883 361.22 362.19 364.064 341.917 363.987L269.102 363.98C257.915 363.656 251.657 353.36 258.84 345.883C262.991 341.563 269.236 342.52 274.691 342.52L341.71 342.532L341.788 275.181C341.851 267.133 340.818 257.628 351.363 256.138Z" />
</svg>
