<svg viewBox="0 0 24 24" xmlns="http://www.w3.org/2000/svg">
<path d="M21.0464 10.8671C20.5304 6.7477 17.2633 3.48322 13.1464 2.96698V1.73674C13.1464 1.43528 13.0266 1.14617 12.8134 0.933012C12.6003 0.71985 12.3112 0.600098 12.0097 0.600098H12.0025C11.7011 0.600098 11.412 0.71985 11.1988 0.933012C10.9856 1.14617 10.8659 1.43528 10.8659 1.73674V2.95978C6.74892 3.47818 3.48444 6.7429 2.9658 10.8599H1.73796C1.4365 10.8599 1.14739 10.9796 0.934232 11.1928C0.721071 11.4059 0.601318 11.695 0.601318 11.9965V12.0037C0.601318 12.3052 0.721071 12.5943 0.934232 12.8074C1.14739 13.0206 1.4365 13.1403 1.73796 13.1403H2.961C3.477 17.2573 6.74412 20.5218 10.8611 21.0404V22.2635C10.8611 22.5649 10.9808 22.854 11.194 23.0672C11.4072 23.2803 11.6963 23.4001 11.9977 23.4001H12.0049C12.3064 23.4001 12.5955 23.2803 12.8086 23.0672C13.0218 22.854 13.1416 22.5649 13.1416 22.2635V21.0404C17.2585 20.522 20.523 17.2573 21.0416 13.1403H22.2623C22.5637 13.1403 22.8528 13.0206 23.066 12.8074C23.2792 12.5943 23.3989 12.3052 23.3989 12.0037C23.3989 11.7022 23.2792 11.4131 23.066 11.2C22.8528 10.9868 22.5637 10.8671 22.2623 10.8671H21.0464ZM18.742 13.1475C18.262 16.004 16.0052 18.2605 13.1464 18.7407V17.7001C13.1464 17.3986 13.0266 17.1095 12.8134 16.8964C12.6003 16.6832 12.3112 16.5635 12.0097 16.5635H12.0025C11.7011 16.5635 11.412 16.6832 11.1988 16.8964C10.9856 17.1095 10.8659 17.3986 10.8659 17.7001V18.7407C8.00916 18.2607 5.75268 16.004 5.26548 13.1403H6.30612C6.60757 13.1403 6.89668 13.0206 7.10984 12.8074C7.32301 12.5943 7.44276 12.3052 7.44276 12.0037V11.9965C7.44276 11.695 7.32301 11.4059 7.10984 11.1928C6.89668 10.9796 6.60757 10.8599 6.30612 10.8599H5.26548C5.74548 8.00074 8.0022 5.74426 10.8659 5.25946V6.3049C10.8659 6.60635 10.9856 6.89546 11.1988 7.10862C11.412 7.32178 11.7011 7.44154 12.0025 7.44154H12.0097C12.3112 7.44154 12.6003 7.32178 12.8134 7.10862C13.0266 6.89546 13.1464 6.60635 13.1464 6.3049V5.26426C16.0052 5.74426 18.262 8.00074 18.7468 10.8671H17.7013C17.3999 10.8671 17.1108 10.9868 16.8976 11.2C16.6844 11.4131 16.5647 11.7022 16.5647 12.0037V12.0109C16.5647 12.3124 16.6844 12.6015 16.8976 12.8146C17.1108 13.0278 17.3999 13.1475 17.7013 13.1475H18.742Z M12.0036 14.8842C13.5912 14.8842 14.8781 13.5973 14.8781 12.0097C14.8781 10.4222 13.5912 9.13525 12.0036 9.13525C10.4161 9.13525 9.12915 10.4222 9.12915 12.0097C9.12915 13.5973 10.4161 14.8842 12.0036 14.8842Z" />
</svg>
