<svg viewBox="0 0 24 24" xmlns="http://www.w3.org/2000/svg">
<path d="M5.79301 8.68966V9.93104C5.79301 10.2603 5.9238 10.576 6.1566 10.8088C6.38941 11.0416 6.70516 11.1724 7.03439 11.1724H7.44818V11.3338C7.41629 11.9914 7.53718 12.6475 7.80138 13.2505C8.06557 13.8536 8.4659 14.3873 8.97094 14.8097C9.14683 14.9644 9.28683 15.1556 9.38117 15.37C9.47551 15.5844 9.52192 15.8168 9.51715 16.051V16.8786C9.51719 17.2144 9.4151 17.5423 9.22442 17.8187C9.03374 18.0951 8.76349 18.307 8.44956 18.4262L4.41508 19.9655C3.84879 20.1818 3.36116 20.5643 3.01627 21.0628C2.67138 21.5613 2.48536 22.1524 2.48267 22.7586V24H21.5171V22.7586C21.517 22.1503 21.3321 21.5564 20.9871 21.0555C20.642 20.5545 20.153 20.1701 19.5847 19.9531L15.5503 18.4138C15.2363 18.2946 14.9661 18.0827 14.7754 17.8063C14.5847 17.5299 14.4826 17.202 14.4827 16.8662V16.0386C14.4779 15.8044 14.5243 15.572 14.6186 15.3576C14.713 15.1432 14.853 14.952 15.0289 14.7972C15.5322 14.3761 15.9315 13.8445 16.1956 13.2437C16.4598 12.643 16.5816 11.9894 16.5516 11.3338V11.1724H16.9654C17.2947 11.1724 17.6104 11.0416 17.8432 10.8088C18.076 10.576 18.2068 10.2603 18.2068 9.93104V8.68966C18.2068 8.36042 18.076 8.04467 17.8432 7.81187C17.6104 7.57906 17.2947 7.44828 16.9654 7.44828C17.5475 6.83348 17.8718 6.01903 17.8718 5.17241C17.8718 4.3258 17.5475 3.51135 16.9654 2.89655C16.9654 1.24138 15.724 0.413793 13.6551 0.413793C11.1723 0.413793 10.7585 0.827586 9.10336 1.24138C7.44818 1.65517 6.6206 0 6.6206 0C5.79301 1.24138 5.79301 1.65517 5.79301 3.72414C5.8388 5.05929 6.26993 6.35268 7.03439 7.44828C6.70516 7.44828 6.38941 7.57906 6.1566 7.81187C5.9238 8.04467 5.79301 8.36042 5.79301 8.68966Z" />
</svg>
