<svg viewBox="0 0 512 512" xmlns="http://www.w3.org/2000/svg">
<path d="M197.224 161.533C200.806 160.021 204.241 157.995 207.697 156.207C243.571 137.647 269.695 127.849 309.279 124.001C357.857 123.858 400.561 136.151 440.077 166.038C472.13 190.28 501.433 226.421 507.069 267.435C515.229 326.819 468.617 379.242 410.868 386.951C400.627 388.318 390.321 387.964 380.018 387.945L314.433 387.941C298.822 387.938 278.576 387.755 275.935 366.719C263.294 367.303 250.305 363.943 238.023 361.245C207.366 384.591 199.817 387.951 159.45 387.948L110.967 387.936C68.7974 388.398 73.6336 341.425 101.313 336.409C123.515 332.387 132.095 334.818 152.379 317.202C130.433 314.046 90.3062 329.777 69.5429 337.334C59.6813 340.924 55.1828 345.639 44.8449 339.963C35.966 335.089 -0.79741 313.948 4.52387 301.295C8.90746 290.871 24.839 272.215 31.7811 259.421C39.9572 244.353 36.6718 231.237 49.1623 210.934C24.2552 183.496 59.0687 154.342 83.0304 178.776C115.149 160.578 160.696 153.347 197.224 161.533ZM315.191 137.213C278.962 137.657 245.294 152.136 213.553 168.383C193.797 178.495 197.046 173.284 174.478 172.025C128.659 169.469 61.0936 188.731 50.8891 240.578C46.3991 263.39 43.1463 268.443 29.3193 288.45C62.8496 289.731 50.5344 303.902 43.3214 323.459C46.4374 325.416 49.6698 327.288 52.9402 328.973C90.2287 316.967 123.452 297.522 163.702 305.572C168.835 297.905 173.111 290.673 175.932 281.832C177.205 277.846 177.685 272.731 179.769 269.137C182.309 264.759 195.571 264.107 190.513 281.442C180.346 316.29 150.588 344.924 113.751 349.037C107.272 349.761 100.83 348.454 96.2159 354.198C91.7464 359.76 92.5715 367.951 98.4565 372.18C103.13 375.537 110.364 374.412 115.759 374.414L163.957 374.413C171.752 374.42 179.755 374.825 187.451 373.411C215.902 368.181 242.219 342.663 251.818 315.473C252.989 312.152 253.568 307.937 255.35 304.936C258.372 299.85 267.237 302.23 267.62 307.985C268.321 318.535 253.787 341.535 247.569 349.498C254.502 351.221 261.664 351.621 268.602 353.238H275.935C282.742 334.404 297.215 335.307 313.939 335.376C302.345 319.064 294.203 299.543 297.628 279.229C303.522 244.259 345.152 226.989 376.721 226.292C380.057 226.218 383.8 225.875 387.097 226.438C392.891 227.428 399.042 239.36 379.066 239.635C353.363 239.992 319.779 251.016 311.851 278.215C304.46 303.569 323.283 329.61 341.381 345.357C344.658 348.209 360.367 357.711 348.315 363.079C341.447 366.138 329.606 352.95 325.637 348.712L309.335 348.715C305.637 348.72 301.455 348.343 297.858 349.214C285.067 352.313 285.405 371.892 298.359 373.984C303.123 374.753 308.353 374.414 313.177 374.417L378.253 374.414C386.321 374.411 394.464 374.661 402.516 374.15C452.561 370.968 498.103 327.526 494.593 275.681C492.251 241.108 469.188 207.87 443.766 185.778C413.125 159.151 357.565 134.501 315.551 137.188L315.191 137.213ZM61.9519 183.18C54.3113 185.512 51.6586 193.612 57.2325 199.835C58.796 198.578 60.3548 197.315 61.9519 196.1C64.7167 192.335 68.5159 189.762 71.9629 186.685C68.5165 184.081 66.4002 182.902 61.9519 183.18ZM26.6845 301.921C23.2815 302.506 21.2775 303.421 18.591 305.572C23.0599 308.19 27.0504 312.091 30.9856 315.442L31.6145 315.72C33.8448 313.344 35.8835 306.792 37.2079 303.574C33.5521 302.155 30.6121 301.682 26.6845 301.921Z"/>
<path d="M146.573 192.655C140.361 195.94 134.084 199.024 128.461 203.231C125.412 205.512 121.144 210.217 117.614 211.337C111.651 213.228 107.032 207.314 109.846 202.238C114.887 193.145 139.615 180.143 149.98 177.011C163.994 176.263 170.689 213.7 164.94 224.992C162.019 230.73 154.626 230.224 153.027 224.006C152.273 216.773 155.438 196.199 147.686 192.167L146.573 192.655Z"/>
<path d="M98.9922 264.517C81.246 278.535 58.3043 255.689 74.5247 250.288C80.3244 249.905 81.5646 255.365 86.3314 255.319C90.3696 255.28 92.169 250.236 96.1918 250.016C104.422 249.565 104.984 258.601 98.9922 264.517Z"/>
</svg>
