<svg viewBox="0 0 24 24" xmlns="http://www.w3.org/2000/svg">
<path d="M21.2845 22.7586V24H2.25V22.7586C2.25019 22.1503 2.43504 21.5564 2.78009 21.0555C3.12515 20.5545 3.61415 20.1701 4.18241 19.9531L8.2169 18.4138C8.53083 18.2946 8.80107 18.0827 8.99175 17.8063C9.18243 17.5299 9.28453 17.202 9.28448 16.8662V16.0386C9.28925 15.8044 9.24284 15.572 9.1485 15.3576C9.05416 15.1432 8.91416 14.952 8.73828 14.7972C8.23495 14.3761 7.83566 13.8445 7.57153 13.2437C7.3074 12.643 7.18556 11.9894 7.21552 11.3338V11.1724H6.80172C6.47249 11.1724 6.15674 11.0416 5.92394 10.8088C5.69113 10.576 5.56034 10.2603 5.56034 9.93104V8.68966C5.56054 8.44598 5.63245 8.20776 5.76711 8.00467C5.90176 7.80158 6.09321 7.64262 6.31759 7.54759C6.08106 6.80393 5.96511 6.02721 5.97414 5.2469C5.97414 2.18483 7.90241 0 10.6086 0C13.1783 0 15.0486 1.18345 15.5741 2.80138C15.7066 3.1531 15.5452 3.01241 15.839 3.12414C17.4693 3.76552 17.8459 5.75586 17.4238 7.44828L17.3328 7.5931C17.5285 7.70117 17.6914 7.86011 17.8043 8.05312C17.9172 8.24613 17.9759 8.46606 17.9741 8.68966V9.93104C17.9741 10.2603 17.8434 10.576 17.6105 10.8088C17.3777 11.0416 17.062 11.1724 16.7328 11.1724H16.319V11.3338C16.3509 11.9914 16.23 12.6475 15.9658 13.2505C15.7016 13.8536 15.3013 14.3873 14.7962 14.8097C14.6203 14.9644 14.4803 15.1556 14.386 15.37C14.2916 15.5844 14.2452 15.8168 14.25 16.051V16.8786C14.25 17.2144 14.3521 17.5423 14.5427 17.8187C14.7334 18.0951 15.0037 18.307 15.3176 18.4262L19.3521 19.9655C19.9184 20.1818 20.406 20.5643 20.7509 21.0628C21.0958 21.5613 21.2818 22.1524 21.2845 22.7586Z" />
</svg>
