<svg viewBox="0 0 24 24" xmlns="http://www.w3.org/2000/svg">
<path d="M23.7648 14.9755C23.6578 14.8687 23.5227 14.7944 23.3751 14.7613C23.2276 14.7282 23.0737 14.7375 22.9313 14.7883C21.0174 15.4707 18.9491 15.596 16.9668 15.1496C14.9844 14.7033 13.1695 13.7036 11.7327 12.2668C10.2959 10.83 9.29637 9.01497 8.85013 7.03265C8.4039 5.05033 8.52932 2.98208 9.21182 1.0682C9.26253 0.925758 9.27184 0.771856 9.23865 0.624339C9.20546 0.476822 9.13114 0.341733 9.0243 0.234732C8.91747 0.127731 8.78249 0.0532012 8.63503 0.0197823C8.48756 -0.0136366 8.33364 -0.00457546 8.19112 0.0459152C6.4656 0.655239 4.8997 1.64584 3.60996 2.944C1.29787 5.2578 -0.000618153 8.39511 2.20762e-07 11.6661C0.000618595 14.937 1.3003 18.0739 3.61325 20.3868C5.92621 22.6997 9.06307 23.9994 12.3341 24C15.6051 24.0006 18.7425 22.7021 21.0563 20.3901C22.3546 19.1001 23.3452 17.534 23.9544 15.8082C24.0047 15.6657 24.0136 15.5118 23.98 15.3644C23.9465 15.217 23.8719 15.0822 23.7648 14.9755Z" />
</svg>
