<svg viewBox="0 0 512 512" xmlns="http://www.w3.org/2000/svg">
<path d="M112.908 187.795C92.4212 150.247 95.1563 108.124 106.897 67.8333C108.731 61.5378 109.717 50.3126 116.93 48C122.708 48.0206 144.192 64.5263 149.511 68.5622C198.759 105.937 241.218 143.617 210.849 208.682C236.091 235.332 251.334 246.227 269.12 282.642C273.647 272.735 285.799 252.506 288.236 244.347C287.4 239.75 285.48 235.503 283.884 231.135C272.887 201.032 270.67 168.853 286.699 139.848C309.444 98.693 366.206 67.4918 409.998 54.934C416.438 53.0871 428.589 49.2984 434.897 48.8137C447.581 47.8394 439.725 65.8281 438.793 72.2796C432.27 117.406 442.792 180.652 415.078 218.399C421.515 218.493 427.888 217.411 434.318 217.351C443.506 217.264 505.425 219.479 506.962 230.829C508.386 241.351 469.134 308.325 456.982 324.593C412.999 380.973 365.183 382.696 309.565 341.222C292.02 360.183 271.377 376.643 258.562 400.16C259.633 414.654 263.99 429.035 269.24 442.509C270.999 447.023 274.508 452.077 275.215 456.831C276.059 462.509 268.661 466.357 264.458 462.346C254.869 453.194 245.274 408.094 244.723 395.43C244.389 387.78 244.95 380.12 244.555 372.486C234.156 354.819 218.789 340.152 203.862 326.337C197.266 329.515 191.011 333.411 184.413 336.612C126.073 364.912 74.5485 332.709 45.0186 279.463C34.9254 261.264 26.6494 241.918 18.135 222.938C14.3561 214.513 9.68786 206.012 6.68048 197.297C3.16101 187.097 14.0989 187.352 21.0383 186.271C51.4587 181.536 82.6099 182.548 112.908 187.795ZM426.257 64.6516C383.187 74.5098 326.037 102.183 301.321 141.524C284.427 168.414 285.664 200.111 297.131 228.639C319.723 185.151 336.568 150.97 373.457 115.439C377.26 111.776 384.439 103.697 389.408 102.003C394.506 100.265 399.841 105.942 397.004 110.737C394.873 114.335 372.521 135.154 366.503 141.894C354.554 155.846 344.585 170.331 334.715 185.724C343.539 181.057 384.633 160.359 391.98 172.922C392.521 182.484 386.558 181.848 378.889 183.13C360.252 186.249 344.263 195.265 328.834 205.9C314.553 215.747 312.794 225.756 306.31 242.535C386.881 251.753 421.28 214.363 422.569 135.202C422.919 113.703 422.773 96.2314 425.347 74.786C425.679 72.0239 427.072 67.323 426.712 64.7834L426.257 64.6516ZM121.6 65.6696C108.406 107.729 99.5751 186.977 154.181 203.978C166.07 207.68 177.215 207.111 189.423 207.233C183.834 200.462 177.013 194.803 170.921 188.496C154.458 171.45 141.875 151.51 134.648 128.841C132.626 122.504 127.819 109.881 132.134 103.881C141.761 96.8183 143.207 110.056 144.941 116.193C156.734 157.96 172.724 170.111 200.361 198.579C224.776 146.613 182.279 109.721 143.902 80.9498C136.781 75.6121 129.445 69.8908 121.6 65.6696ZM55.0871 196.35C44.1624 197.064 33.4332 198.71 22.5599 199.596C24.1532 204.618 26.5218 209.377 28.7253 214.15L36.9209 231.979C52.8022 266.712 69.4568 305.736 105.122 324.316C138.428 341.667 163.888 331.604 193.8 316.385C167.628 290.128 135.958 268.501 102.159 253.402C97.5996 251.356 93.0381 249.319 88.3631 247.552C82.8113 245.453 68.3696 242.891 73.3148 233.805C74.5001 231.627 76.8592 230.722 79.1241 230.123C120.265 240.31 170.115 275.931 200.361 303.991C203.531 269.741 195.934 247.709 174.814 220.851C160.325 220.208 147.32 217.237 134.621 209.941C120.946 202.087 127.579 203.477 110.08 200.815C91.6042 198.004 73.7417 196.294 55.0871 196.35ZM198.833 218.399L190.862 219.856C215.67 250.286 215.502 280.355 212.109 316.385C226.606 326.419 236.291 341.395 248.059 354.119V349.798C250.247 332.824 255.6 315.328 261.246 299.216C250.705 271.68 233.479 247.292 211.412 227.804C208.903 225.587 202.222 217.939 198.833 218.399ZM430.26 230.513C421.772 231.208 409.08 231.723 401.21 234.721C396.536 236.502 392.776 240.7 388.283 243.031C371.308 251.837 350.616 257.349 331.437 256.984C313.416 279.575 316.765 292.348 314.913 316.385L315.472 316.108C320.351 313.659 324.366 309.388 328.545 305.921C357.405 281.981 390.671 262.874 426.758 252.535C431.259 251.245 458.707 242.583 452.521 257.365C450.51 262.17 443.766 262.452 439.424 263.372C415.208 268.498 391.454 278.964 370.573 292.108C376.238 292.235 381.68 293.794 387.004 295.651C420.384 309.127 406.038 321.211 399.072 317.474C395.723 315.676 392.837 313.114 389.453 311.374C380.84 306.944 362.752 302.649 352.818 305.369C346.99 306.964 325.419 326.557 319.66 331.781C399.016 394.273 447.015 326.765 482.392 254.886C485.327 248.921 488.934 242.724 491.092 236.444C471.067 232.163 450.771 229.659 430.26 230.513ZM298.415 255.046C276.946 294.414 259.983 329.909 258.562 376.537L267.374 366.231C275.154 357.094 294.179 335.318 303.877 328.199C298.73 300.77 301.746 281.465 314.913 256.984C309.456 256.161 303.91 255.552 298.415 255.046Z"/>
</svg>
