<svg viewBox="0 0 40 40" xmlns="http://www.w3.org/2000/svg">
<path d="M11.0151 4.42622e-06H8.34227C7.64132 -0.000898415 6.94707 0.136326 6.29918 0.403835C5.65129 0.671345 5.06246 1.0639 4.56634 1.55906C4.07022 2.05422 3.67654 2.64229 3.40778 3.28966C3.13902 3.93704 3.00045 4.63102 3 5.33196V34.6646C3.00045 35.3657 3.13899 36.0599 3.40771 36.7074C3.67643 37.355 4.07006 37.9433 4.56614 38.4387C5.06221 38.9342 5.65101 39.327 6.29892 39.5949C6.94683 39.8628 7.64116 40.0005 8.34227 40H11.0151C11.7162 40.0005 12.4106 39.8628 13.0585 39.5949C13.7064 39.327 14.2952 38.9342 14.7912 38.4387C15.2873 37.9433 15.681 37.355 15.9497 36.7074C16.2184 36.0599 16.3569 35.3657 16.3574 34.6646V5.33196C16.3556 3.91661 15.7918 2.55991 14.79 1.56007C13.7883 0.560229 12.4305 -0.000907525 11.0151 4.42622e-06ZM32.3842 4.42622e-06H29.7113C28.296 -0.000907525 26.9382 0.560229 25.9364 1.56007C24.9346 2.55991 24.3709 3.91661 24.3691 5.33196V34.6646C24.3695 35.3657 24.5081 36.0599 24.7768 36.7074C25.0455 37.355 25.4391 37.9433 25.9352 38.4387C26.4313 38.9342 27.0201 39.327 27.668 39.5949C28.3159 39.8628 29.0102 40.0005 29.7113 40H32.3842C33.0853 40.0005 33.7796 39.8628 34.4275 39.5949C35.0754 39.327 35.6642 38.9342 36.1603 38.4387C36.6564 37.9433 37.05 37.355 37.3187 36.7074C37.5875 36.0599 37.726 35.3657 37.7264 34.6646V5.33196C37.726 4.63102 37.5874 3.93704 37.3187 3.28966C37.0499 2.64229 36.6562 2.05422 36.1601 1.55906C35.664 1.0639 35.0751 0.671345 34.4273 0.403835C33.7794 0.136326 33.0851 -0.000898415 32.3842 4.42622e-06Z" />
</svg>
