<svg viewBox="0 0 24 24" xmlns="http://www.w3.org/2000/svg">
<path d="M8.94189 22.2004C8.94189 22.6082 8.74505 24.0001 9.27932 24.0001L19.8944 22.7207C20.0772 22.7066 20.2038 22.5379 20.1756 22.3551C20.0772 21.4412 19.3742 19.3323 19.1071 18.32C22.9735 13.385 23.1844 9.11082 21.5535 5.93331C20.2178 3.34632 17.6308 1.49043 14.7907 0.604666C11.9647 -0.295158 8.85753 -0.224859 6.46737 1.02646C3.8382 2.41837 2.06667 5.20221 2.4744 9.68727C2.48846 9.82786 2.4744 9.94034 2.615 10.0388C2.72748 10.1372 3.51482 10.9245 2.96649 12.0071C2.72748 12.3727 1.65894 13.8771 1.57458 14.1583C1.49022 14.3832 1.12467 15.5502 2.69936 15.7189C2.71342 16.0845 2.7556 16.5062 2.89619 16.8859C3.03679 17.2655 3.26175 17.5607 3.6273 17.7013C3.38829 18.0106 3.16333 18.3903 3.17739 18.7277C3.19145 19.1073 3.41641 19.3885 4.06315 19.4447C3.82414 21.2303 4.61148 21.9333 5.8628 22.1723C6.81887 22.3692 7.97177 22.2567 8.94189 22.2004ZM9.01219 10.0809L14.144 4.2602C14.4111 3.96495 14.861 4.28832 14.6783 4.62576L12.9349 8.42189L14.7767 8.45001C15.0719 8.46407 15.1985 8.8015 15.0016 9.0124L9.71517 14.9456C9.44804 15.2268 8.99813 14.9034 9.1809 14.566L10.9384 10.7839L9.20902 10.6433C8.92783 10.6293 8.80129 10.2778 9.01219 10.0809Z" />
</svg>
