<svg viewBox="0 0 24 24" xmlns="http://www.w3.org/2000/svg">
<path d="M2.30081 16.7783C1.54678 17.1749 0.839204 17.6897 0.205969 18.3229C0.07411 18.4547 5.72055e-07 18.634 5.72055e-07 18.8205C5.72055e-07 19.007 0.07411 19.1858 0.205969 19.3176C1.90059 21.0121 4.1258 21.8591 6.35175 21.8591C7.76044 21.8591 9.16922 21.519 10.4433 20.8401C7.45149 20.4963 4.68178 19.1647 2.52033 17.0032C2.4463 16.9291 2.37313 16.8541 2.30081 16.7783ZM21.699 16.7785C21.6267 16.8542 21.5536 16.9291 21.4796 17.0032C19.318 19.1649 16.5479 20.4966 13.5557 20.8402C14.83 21.5194 16.2388 21.8595 17.6482 21.8595C19.8736 21.8595 22.0998 21.0121 23.794 19.318C23.9259 19.1861 24 19.0069 24 18.8204C24 18.634 23.9259 18.4551 23.794 18.3233C23.1606 17.6899 22.453 17.1751 21.699 16.7785ZM8.17364 4.48403C7.53444 4.0656 6.85713 3.7085 6.15075 3.41748C5.97127 3.34352 5.77875 3.34928 5.61263 3.41842C5.4465 3.48756 5.30672 3.62013 5.23275 3.79956C4.94267 4.50273 4.71939 5.23163 4.56586 5.97663C5.453 6.24217 6.30984 6.60001 7.12233 7.0443C7.38238 6.1565 7.73474 5.29839 8.17364 4.48403ZM19.4342 5.97667C19.2807 5.23168 19.0574 4.50278 18.7673 3.79961C18.7322 3.7142 18.6806 3.63656 18.6154 3.57115C18.5502 3.50574 18.4727 3.45386 18.3874 3.41847C18.3022 3.38288 18.2108 3.36447 18.1185 3.36431C18.0261 3.36415 17.9346 3.38223 17.8493 3.41753C17.1429 3.70852 16.4656 4.06562 15.8264 4.48408C16.2653 5.29844 16.6177 6.15655 16.8778 7.04434C17.6902 6.60005 18.5471 6.24221 19.4342 5.97667ZM9.57666 19.2797C7.63655 16.8977 6.58153 13.9461 6.58153 10.8322C6.58132 10.0409 6.65035 9.25121 6.78783 8.47202C4.96331 7.39502 2.87752 6.82005 0.703126 6.82009C0.610774 6.81998 0.51931 6.83811 0.433991 6.87346C0.348671 6.90881 0.271179 6.96067 0.205969 7.02606C0.140575 7.09127 0.088713 7.16876 0.0533657 7.25408C0.0180185 7.3394 -0.00011742 7.43087 5.72055e-07 7.52322C-0.000140053 10.7287 1.24805 13.7423 3.51469 16.0089C5.19886 17.693 7.29549 18.8143 9.57666 19.2797ZM17.4184 10.8322C17.4184 13.9461 16.3634 16.8977 14.4233 19.2797C16.7045 18.8143 18.8012 17.693 20.4853 16.0089C22.752 13.7423 24.0001 10.7287 24 7.52322C24 7.32911 23.9213 7.15328 23.794 7.02606C23.7288 6.96069 23.6513 6.90884 23.566 6.87349C23.4807 6.83815 23.3892 6.82 23.2969 6.82009C21.1225 6.82 19.0367 7.39502 17.2121 8.47202C17.3496 9.25121 17.4186 10.0409 17.4184 10.8322Z M12.4972 2.34655C12.36 2.2093 12.18 2.14062 12 2.14062C11.8201 2.14062 11.6401 2.2093 11.5028 2.34655C9.23612 4.61305 7.98779 7.62659 7.98779 10.8321C7.98779 14.0376 9.23612 17.0511 11.5028 19.3176C11.6401 19.4549 11.8201 19.5236 12 19.5236C12.18 19.5236 12.3599 19.4549 12.4972 19.3176C14.7639 17.0511 16.0122 14.0376 16.0122 10.8321C16.0122 7.62659 14.7639 4.61305 12.4972 2.34655Z" />
</svg>
