<svg viewBox="0 0 512 512" xmlns="http://www.w3.org/2000/svg">
<path d="M262.443 22.5712C147.282 16.3603 99.0619 169.748 191.512 229.167C195.02 231.422 200.467 233.28 201.039 238.061C201.537 242.214 197.986 246.172 193.836 246.263C188.332 246.384 171.946 232.509 167.4 228.211C87.1829 152.358 139.664 11.341 251.294 8.55322C283.822 4.53516 323.929 22.9665 346.577 45.6021C396.106 95.1072 396.659 177.39 346.856 226.96C343.232 230.568 311.122 260.356 312.156 239.001C312.41 233.78 319.99 230.658 323.644 228.091C407.745 168.972 370.388 28.1057 262.443 22.5712Z"/>
<path d="M216.355 78.303C222.727 71.4868 242.095 67.6597 251.293 66.939C271.49 65.4621 292.922 73.0535 307.218 87.4217C321.105 101.378 320.621 106.704 320.604 125.568C324.544 121.849 329.844 113.59 335.509 112.962C339.355 112.535 342.565 115.917 342.871 119.598C343.339 125.204 323.285 143.781 319.503 146.069C312.435 150.341 302.592 136.333 298.151 132.361C295.239 129.585 290.257 125.94 290.242 121.601C290.23 117.74 293.49 113.79 297.527 113.932C301.911 114.087 306.417 120.211 309.226 123.191C305.553 88.498 265.461 73.995 235.276 84.7159C228.857 86.9966 210.168 95.9368 216.355 78.303Z"/>
<path d="M187.708 133.236C184.532 136.088 180.762 141.055 176.597 142.21C170.755 143.832 165.905 136.728 169.188 131.833C171.84 127.879 189.666 109.469 194.614 108.454C200.065 108.838 218.139 127.017 221.843 132.304C224.807 136.533 221.048 142.853 215.966 142.777C210.805 142.701 205.26 135.817 201.989 132.361C202.244 168.981 239.25 193.319 273.902 183.217C277.413 182.192 286.411 177.493 289.478 178.067C297.782 179.62 296.803 188.049 290.962 191.801C245.813 215.836 188.768 184.634 187.708 133.236Z"/>
<path d="M24.0629 186.599C23.7706 193.492 24.6533 200.353 25.1192 207.224L27.5611 243.486C30.4447 285.931 25.3363 302.562 52.3601 335.994L69.2569 356.99C81.9084 372.81 94.1185 389.391 107.834 404.308C125.137 423.126 127.994 418.488 130.597 443.385L134.95 486.542C135.378 490.396 137.092 496.634 134.757 500.144C131.633 504.839 123.998 503.843 122.179 498.588C120.616 494.072 120.758 488.34 120.332 483.577L117.272 451.02C115.759 434.775 118.53 435.177 106.324 423.136C91.0094 408.025 78.5623 390.756 64.9544 374.167L41.6813 345.682C17.4801 315.642 17.009 304.264 14.673 264.626L10.7251 203.751C9.52776 187.148 7.25537 170.759 28.2882 167.765C51.0835 165.155 52.0113 192.3 55.1054 207.754L65.1833 256.906C66.9898 265.665 68.3713 274.736 70.7556 283.345C77.2421 289.664 83.8444 295.862 90.4304 302.076C106.165 316.924 108.274 320.234 130.196 323.845C122.535 310.301 110.557 299.877 101.867 287.136C88.8036 267.987 115.276 243.271 132.415 259.578C135.422 262.439 137.93 265.83 140.516 269.066L174.492 311.493C180.364 318.635 186.759 325.878 191.789 333.645C204.636 326.196 214.564 323.5 228.644 319.822C193.561 290.615 215.008 234.478 259.054 238.222C301.764 241.853 316.529 293.352 284.486 319.822C297.21 322.57 309.374 327.042 320.605 333.645C331.276 316.099 355.357 291.491 368.875 273.878C372.036 269.759 375.063 265.187 378.78 261.567C395.242 245.528 419.3 264.692 411.384 285.103C407.414 295.341 390.799 311.947 384.009 322.593C407.596 320.587 408.273 314.667 424.535 299.493C442.709 282.535 440.33 290.934 445.33 265.935L456.68 211.416C458.588 202.182 460.26 182.535 466.152 175.211C477.419 161.207 500.728 169.474 501.985 186.772C502.529 194.244 501.568 202.077 501.078 209.555L496.98 276.791C494.493 317.285 489.189 322.647 463.232 355.369C445.94 377.167 428.478 398.709 409.96 419.483C396.31 434.798 397.262 429.099 395.358 449.811C394.174 462.684 393.061 484.612 390.208 496.773C389.013 501.873 382.071 505.083 378.207 500.648C374.598 496.504 377.703 481.665 378.293 476.124L381.485 446.909C384.588 418.927 385 426.576 404.608 404.255C419.793 386.973 470.341 328.089 477.846 309.344C483.647 294.854 482.719 278.341 483.633 263.032L487.602 190.713C488.127 181.534 479.734 179.866 476.422 186.168C474.953 188.962 474.061 198.969 473.28 202.81L457.769 277.268C453.193 299.26 445.658 299.73 429.155 314.708C407.376 334.477 404.014 337.092 371.495 337.011C365.877 337.013 359.388 334.774 361.801 327.987C365.971 316.256 402.753 284.423 398.186 273.65C396.956 270.748 394.398 268.525 391.235 270.132C387.886 271.836 364.685 301.918 360.429 307.231L341.895 330.281C326.516 349.176 318.499 366.952 317.876 392.465C317.581 404.619 320.291 417.035 322.131 429.017L329.463 476.83C330.19 481.404 333.227 494.777 331.983 498.397C330.089 503.908 320.942 504.366 318.938 498.738C317.622 495.047 317.307 490.572 316.688 486.712L306.371 420.828C301.936 392.025 301.414 374.598 314.224 346.364C278.694 324.318 234.316 327.992 198.255 346.364C211.603 382.097 210.88 392.619 205.245 427.568L198.315 470.282C196.656 480.458 197.678 499.976 187.709 503.282C177.177 500.899 180.206 493.26 181.484 484.849C185.3 459.744 196.249 411.998 194.521 388.553C191.461 347.031 169.07 327.642 144.769 297.512C140.782 292.568 125.784 270.539 120.983 269.064C115.051 267.243 110.841 273.563 113.607 278.615C118.085 286.792 135.279 306.523 141.918 314.778C145.877 319.7 158.222 331.547 147.406 336.194C138.975 339.815 117.962 337.098 109.702 333.972C97.0845 329.198 90.4086 321.644 80.7326 312.744C54.0795 288.231 59.0524 297.693 51.9718 263.142L39.6942 203.014C38.9671 199.448 37.3921 188.198 36.2489 185.835C33.1953 179.523 25.9022 180.015 24.0629 186.599ZM253.137 252.636C252.629 252.693 252.123 252.763 251.619 252.845C251.114 252.927 250.612 253.022 250.112 253.128C249.613 253.235 249.116 253.354 248.622 253.485C248.128 253.617 247.637 253.76 247.15 253.914C246.663 254.069 246.181 254.237 245.702 254.416C245.223 254.594 244.749 254.785 244.28 254.988C243.811 255.19 243.347 255.404 242.887 255.628C242.428 255.853 241.976 256.09 241.529 256.337C241.082 256.585 240.641 256.843 240.206 257.112C239.772 257.381 239.344 257.66 238.923 257.95C238.502 258.239 238.089 258.539 237.683 258.849C237.277 259.16 236.878 259.48 236.488 259.809C236.097 260.139 235.715 260.478 235.342 260.827C234.968 261.176 234.603 261.533 234.247 261.899C233.891 262.265 233.544 262.641 233.206 263.025C232.868 263.408 232.54 263.799 232.221 264.199C231.903 264.599 231.594 265.006 231.296 265.42C230.997 265.835 230.708 266.257 230.431 266.686C230.153 267.115 229.886 267.551 229.629 267.992C229.373 268.434 229.128 268.883 228.894 269.337C228.659 269.791 228.436 270.251 228.223 270.716C228.012 271.181 227.811 271.651 227.623 272.126C227.434 272.6 227.257 273.079 227.091 273.563C226.926 274.046 226.773 274.534 226.632 275.025C226.49 275.516 226.361 276.01 226.244 276.507C226.127 277.005 226.022 277.505 225.93 278.007C225.838 278.511 225.757 279.015 225.689 279.521C225.622 280.028 225.567 280.536 225.523 281.046C225.48 281.554 225.45 282.064 225.433 282.574C225.415 283.086 225.41 283.596 225.417 284.107C225.424 284.618 225.444 285.129 225.477 285.638C225.509 286.149 225.554 286.658 225.612 287.166C225.669 287.673 225.739 288.179 225.821 288.683C225.903 289.188 225.998 289.691 226.105 290.19C226.212 290.69 226.331 291.187 226.462 291.681C226.593 292.174 226.737 292.664 226.892 293.151C227.048 293.638 227.215 294.12 227.394 294.599C227.573 295.078 227.763 295.552 227.966 296.021C228.168 296.491 228.382 296.955 228.608 297.414C228.833 297.872 229.069 298.325 229.316 298.772C229.564 299.219 229.822 299.66 230.091 300.095C230.36 300.529 230.639 300.956 230.929 301.377C231.22 301.798 231.52 302.211 231.83 302.617C232.14 303.023 232.461 303.421 232.79 303.812C233.121 304.202 233.46 304.584 233.808 304.957C234.157 305.332 234.515 305.697 234.882 306.053C235.248 306.409 235.623 306.755 236.007 307.092C236.39 307.43 236.782 307.759 237.181 308.077C237.581 308.395 237.988 308.704 238.403 309.003C238.819 309.3 239.24 309.588 239.669 309.866C240.098 310.144 240.533 310.411 240.976 310.667C241.418 310.924 241.866 311.169 242.32 311.403C242.775 311.637 243.234 311.86 243.699 312.072C244.164 312.284 244.634 312.484 245.109 312.673C245.584 312.861 246.063 313.038 246.547 313.203C247.031 313.368 247.519 313.521 248.01 313.662C248.5 313.804 248.994 313.933 249.492 314.049C249.99 314.166 250.49 314.271 250.992 314.364C251.495 314.455 252 314.535 252.506 314.603C253.013 314.671 253.521 314.726 254.03 314.768C254.539 314.811 255.049 314.841 255.56 314.858C256.071 314.876 256.581 314.881 257.092 314.873C257.603 314.866 258.114 314.846 258.623 314.813C259.134 314.781 259.643 314.736 260.15 314.678C260.658 314.621 261.164 314.551 261.668 314.469C262.172 314.386 262.674 314.291 263.174 314.184C263.673 314.078 264.17 313.959 264.663 313.827C265.157 313.695 265.647 313.552 266.133 313.396C266.62 313.241 267.102 313.074 267.581 312.895C268.059 312.715 268.533 312.524 269.002 312.323C269.471 312.12 269.935 311.906 270.393 311.681C270.852 311.456 271.305 311.22 271.752 310.973C272.198 310.725 272.639 310.466 273.073 310.197C273.507 309.928 273.935 309.649 274.355 309.359C274.776 309.07 275.189 308.77 275.595 308.459C276 308.148 276.398 307.828 276.788 307.498C277.178 307.169 277.56 306.829 277.933 306.481C278.306 306.133 278.671 305.775 279.027 305.408C279.383 305.042 279.73 304.668 280.068 304.284C280.405 303.901 280.733 303.51 281.051 303.11C281.369 302.71 281.677 302.303 281.975 301.888C282.274 301.474 282.562 301.052 282.839 300.624C283.117 300.195 283.384 299.759 283.64 299.317C283.896 298.876 284.141 298.428 284.376 297.974C284.61 297.52 284.833 297.06 285.045 296.595C285.256 296.13 285.457 295.66 285.646 295.186C285.834 294.711 286.01 294.232 286.176 293.749C286.341 293.266 286.494 292.778 286.635 292.287C286.776 291.796 286.905 291.302 287.022 290.805C287.139 290.308 287.244 289.808 287.336 289.306C287.429 288.804 287.509 288.299 287.576 287.792C287.644 287.286 287.7 286.779 287.742 286.269C287.785 285.76 287.815 285.251 287.832 284.74C287.85 284.23 287.856 283.72 287.849 283.209C287.841 282.698 287.821 282.187 287.789 281.678C287.756 281.168 287.711 280.66 287.654 280.152C287.597 279.644 287.527 279.138 287.444 278.634C287.362 278.13 287.268 277.628 287.161 277.129C287.054 276.629 286.935 276.133 286.804 275.639C286.673 275.145 286.53 274.655 286.374 274.168C286.219 273.682 286.052 273.2 285.873 272.721C285.694 272.242 285.503 271.769 285.301 271.3C285.098 270.831 284.885 270.366 284.66 269.908C284.435 269.45 284.199 268.997 283.952 268.549C283.705 268.102 283.447 267.662 283.178 267.228C282.909 266.794 282.63 266.366 282.34 265.946C282.05 265.525 281.749 265.112 281.44 264.706C281.13 264.3 280.81 263.902 280.481 263.511C280.151 263.121 279.812 262.74 279.463 262.367C279.115 261.992 278.758 261.627 278.391 261.271C278.025 260.915 277.65 260.569 277.267 260.232C276.883 259.894 276.492 259.565 276.092 259.247C275.693 258.929 275.286 258.62 274.871 258.322C274.457 258.024 274.036 257.736 273.607 257.458C273.178 257.18 272.743 256.913 272.301 256.657C271.859 256.401 271.411 256.155 270.957 255.921C270.503 255.687 270.044 255.463 269.58 255.251C269.115 255.039 268.645 254.839 268.17 254.65C267.696 254.461 267.217 254.284 266.734 254.119C266.25 253.953 265.762 253.8 265.272 253.659C264.781 253.518 264.287 253.388 263.789 253.271C263.293 253.154 262.793 253.049 262.291 252.956C261.789 252.864 261.284 252.784 260.777 252.717C260.271 252.648 259.764 252.593 259.254 252.55C258.745 252.508 258.236 252.477 257.725 252.459C257.215 252.441 256.704 252.435 256.194 252.443C255.683 252.45 255.172 252.47 254.663 252.503C254.153 252.534 253.644 252.579 253.137 252.636Z"/>
</svg>
