<svg viewBox="0 0 512 512" xmlns="http://www.w3.org/2000/svg">
<path d="M262.321 148.031C261.168 148.12 260.014 148.181 258.859 148.213C257.703 148.244 256.547 148.248 255.391 148.224C254.236 148.199 253.082 148.146 251.928 148.064C250.775 147.983 249.625 147.874 248.477 147.736C247.329 147.598 246.186 147.432 245.046 147.238C243.907 147.044 242.773 146.822 241.644 146.572C240.515 146.323 239.393 146.045 238.278 145.74C237.163 145.436 236.056 145.104 234.957 144.745C233.858 144.385 232.769 143.999 231.689 143.587C230.609 143.174 229.54 142.735 228.483 142.271C227.424 141.805 226.377 141.315 225.343 140.798C224.309 140.281 223.288 139.739 222.281 139.173C221.273 138.606 220.28 138.015 219.301 137.4C218.322 136.784 217.36 136.145 216.413 135.483C215.466 134.82 214.535 134.135 213.622 133.425C212.708 132.717 211.813 131.987 210.934 131.234C210.057 130.483 209.199 129.709 208.359 128.914C207.519 128.12 206.7 127.305 205.9 126.471C205.1 125.636 204.322 124.782 203.565 123.908C202.807 123.035 202.071 122.144 201.356 121.235C200.642 120.325 199.951 119.4 199.283 118.457C198.615 117.514 197.97 116.555 197.349 115.58C196.727 114.606 196.13 113.616 195.557 112.611C194.984 111.608 194.436 110.59 193.914 109.559C193.391 108.528 192.894 107.485 192.422 106.43C191.95 105.374 191.505 104.308 191.085 103.231C190.666 102.154 190.273 101.067 189.907 99.9698C189.542 98.8729 189.203 97.7677 188.892 96.6542C188.58 95.5418 188.296 94.4216 188.04 93.2936C187.783 92.1666 187.554 91.034 187.352 89.8956C187.152 88.7573 186.98 87.6148 186.835 86.4681C186.689 85.3215 186.573 84.1717 186.485 83.0188C186.397 81.8659 186.336 80.712 186.304 79.5571C186.273 78.4011 186.27 77.2451 186.295 76.0891C186.32 74.9342 186.373 73.7798 186.455 72.6259C186.537 71.473 186.647 70.3227 186.785 69.175C186.923 68.0273 187.089 66.8838 187.284 65.7444C187.478 64.605 187.7 63.4708 187.951 62.3417C188.201 61.2137 188.478 60.092 188.783 58.9765C189.089 57.8619 189.421 56.7552 189.78 55.6562C190.14 54.5573 190.526 53.4682 190.939 52.3889C191.352 51.3086 191.792 50.2397 192.257 49.1822C192.723 48.1237 193.214 47.0776 193.73 46.0439C194.247 45.0093 194.79 43.9886 195.357 42.9819C195.924 41.9742 196.515 40.9809 197.131 40.0022C197.747 39.0246 198.386 38.062 199.049 37.1144C199.712 36.1678 200.398 35.2378 201.106 34.3244C201.815 33.4111 202.546 32.5158 203.299 31.6387C204.051 30.7616 204.825 29.9032 205.621 29.0634C206.415 28.2237 207.23 27.4041 208.065 26.6048C208.9 25.8054 209.754 25.0273 210.628 24.2705C211.501 23.5126 212.392 22.7771 213.301 22.0638C214.211 21.3494 215.137 20.6584 216.08 19.9908C217.024 19.3231 217.983 18.6782 218.957 18.0562C219.933 17.4352 220.923 16.8385 221.928 16.2662C222.931 15.6939 223.949 15.1465 224.98 14.624C226.012 14.1015 227.056 13.6049 228.111 13.1342C229.166 12.6627 230.233 12.2175 231.31 11.7986C232.387 11.3798 233.474 10.9876 234.571 10.6222C235.668 10.2567 236.773 9.91837 237.886 9.60714C239 9.2959 240.12 9.0122 241.247 8.75602C242.374 8.49984 243.507 8.27143 244.647 8.07082C245.785 7.87031 246.928 7.69785 248.074 7.55343C249.221 7.40901 250.371 7.29279 251.523 7.20477C252.675 7.11685 253.829 7.05724 254.984 7.02593C256.14 6.99462 257.295 6.99167 258.45 7.01707C259.605 7.04247 260.759 7.09617 261.912 7.17818C263.065 7.26018 264.214 7.37044 265.361 7.50895C266.508 7.64746 267.651 7.81396 268.79 8.00846C269.93 8.20306 271.063 8.42549 272.191 8.67577C273.319 8.92594 274.44 9.20369 275.555 9.50902C276.669 9.81424 277.776 10.1466 278.874 10.5062C279.972 10.8658 281.06 11.2521 282.139 11.6651C283.219 12.0781 284.287 12.5175 285.345 12.9833C286.402 13.4488 287.448 13.9397 288.481 14.4561C289.515 14.9734 290.535 15.5151 291.542 16.0812C292.548 16.6483 293.541 17.2397 294.52 17.8556C295.497 18.4714 296.46 19.1106 297.406 19.7731C298.353 20.4355 299.282 21.1208 300.195 21.8289C301.108 22.5381 302.003 23.2685 302.88 24.0201C303.756 24.7728 304.614 25.5462 305.454 26.3404C306.293 27.1356 307.112 27.9505 307.911 28.7851C308.709 29.6196 309.487 30.4734 310.245 31.3464C311.002 32.2193 311.737 33.1099 312.45 34.0181C313.164 34.9273 313.855 35.8537 314.523 36.7971C315.191 37.7395 315.836 38.698 316.457 39.6725C317.078 40.6471 317.674 41.6362 318.247 42.6398C318.819 43.6433 319.366 44.6609 319.889 45.6925C320.411 46.723 320.908 47.7655 321.379 48.8199C321.85 49.8753 322.296 50.9416 322.714 52.0188C323.133 53.0949 323.525 54.1814 323.89 55.2783C324.256 56.3742 324.595 57.4783 324.906 58.5908C325.218 59.7043 325.502 60.8239 325.758 61.9498C326.014 63.0768 326.242 64.2095 326.444 65.3478C326.645 66.4852 326.817 67.6271 326.961 68.7738C327.107 69.9204 327.223 71.0697 327.311 72.2215C327.399 73.3734 327.46 74.5267 327.492 75.6817C327.523 76.8366 327.526 77.9921 327.501 79.1481C327.476 80.303 327.423 81.4569 327.341 82.6098C327.26 83.7617 327.15 84.9114 327.011 86.0591C326.873 87.2068 326.707 88.3498 326.514 89.4882C326.32 90.6276 326.098 91.7613 325.848 92.8893C325.598 94.0172 325.321 95.1385 325.016 96.253C324.71 97.3675 324.378 98.4743 324.019 99.5732C323.66 100.671 323.275 101.76 322.862 102.839C322.448 103.918 322.009 104.987 321.545 106.044C321.079 107.102 320.589 108.148 320.072 109.182C319.556 110.216 319.015 111.236 318.449 112.243C317.882 113.25 317.291 114.242 316.676 115.221C316.06 116.199 315.421 117.161 314.758 118.107C314.096 119.054 313.411 119.984 312.702 120.897C311.994 121.811 311.264 122.706 310.513 123.583C309.761 124.46 308.988 125.318 308.194 126.158C307.4 126.997 306.586 127.816 305.751 128.615C304.916 129.415 304.063 130.193 303.19 130.951C302.318 131.708 301.427 132.444 300.518 133.158C299.61 133.871 298.684 134.562 297.74 135.231C296.798 135.899 295.84 136.543 294.865 137.165C293.892 137.787 292.903 138.383 291.899 138.955C290.896 139.529 289.879 140.077 288.848 140.599C287.818 141.122 286.775 141.619 285.719 142.091C284.665 142.562 283.599 143.008 282.522 143.426C281.446 143.846 280.36 144.239 279.264 144.605C278.167 144.971 277.062 145.31 275.95 145.621C274.838 145.933 273.718 146.217 272.591 146.475C271.465 146.731 270.333 146.959 269.194 147.16C268.057 147.361 266.915 147.535 265.769 147.68C264.622 147.825 263.473 147.942 262.321 148.031ZM255.757 23.5365C254.871 23.5551 253.987 23.5961 253.105 23.6593C252.222 23.7215 251.34 23.8055 250.461 23.9113C249.583 24.017 248.708 24.144 247.835 24.2923C246.962 24.4405 246.093 24.6106 245.23 24.8024C244.365 24.9931 243.506 25.2057 242.653 25.44C241.799 25.6732 240.951 25.9272 240.109 26.202C239.268 26.4767 238.434 26.7722 237.607 27.0884C236.78 27.4046 235.962 27.7405 235.151 28.0961C234.341 28.4528 233.54 28.8286 232.748 29.2236C231.956 29.6197 231.175 30.0343 230.403 30.4677C229.632 30.9021 228.871 31.3552 228.122 31.8269C227.372 32.2976 226.635 32.7864 225.909 33.2934C225.184 33.8014 224.472 34.3265 223.772 34.8687C223.072 35.411 222.386 35.9703 221.715 36.5467C221.043 37.1221 220.386 37.7141 219.743 38.3227C219.099 38.9313 218.471 39.5549 217.859 40.1935C217.247 40.8332 216.65 41.4874 216.07 42.1561C215.49 42.8238 214.926 43.506 214.379 44.2027C213.833 44.8983 213.303 45.6075 212.791 46.3301C212.279 47.0517 211.785 47.7857 211.309 48.5321C210.833 49.2786 210.376 50.036 209.938 50.8042C209.498 51.5735 209.078 52.3526 208.678 53.1416C208.278 53.9316 207.897 54.7304 207.535 55.538C207.174 56.3457 206.833 57.1621 206.512 57.9874C206.19 58.8126 205.89 59.6446 205.61 60.4834C205.329 61.3231 205.069 62.1691 204.831 63.0214C204.591 63.8746 204.373 64.7325 204.176 65.5951C203.98 66.4577 203.805 67.3249 203.65 68.1968C203.496 69.0687 203.363 69.9438 203.252 70.8219C203.141 71.7 203.051 72.5802 202.983 73.4625C202.915 74.3448 202.869 75.2286 202.845 76.114C202.82 76.9984 202.817 77.8832 202.835 78.7686C202.854 79.654 202.894 80.5379 202.957 81.4201C203.019 82.3035 203.103 83.1847 203.209 84.0639C203.313 84.942 203.44 85.8176 203.59 86.6905C203.738 87.5634 203.907 88.4322 204.098 89.2969C204.289 90.1605 204.501 91.0195 204.734 91.8738C204.967 92.728 205.221 93.5756 205.496 94.4164C205.772 95.2582 206.067 96.0923 206.383 96.9186C206.699 97.7459 207.035 98.565 207.39 99.3757C207.747 100.185 208.123 100.986 208.518 101.778C208.913 102.57 209.327 103.353 209.76 104.125C210.195 104.896 210.647 105.657 211.118 106.406C211.589 107.156 212.078 107.893 212.586 108.618C213.093 109.344 213.618 110.056 214.16 110.756C214.702 111.456 215.261 112.142 215.836 112.814C216.413 113.486 217.005 114.144 217.612 114.787C218.221 115.43 218.844 116.058 219.483 116.67C220.123 117.283 220.776 117.88 221.444 118.46C222.113 119.041 222.795 119.604 223.491 120.151C224.187 120.698 224.896 121.228 225.618 121.74C226.34 122.252 227.074 122.746 227.82 123.222C228.567 123.699 229.324 124.157 230.092 124.595C230.861 125.034 231.641 125.454 232.43 125.855C233.218 126.256 234.017 126.637 234.826 126.998C235.634 127.36 236.45 127.701 237.274 128.023C238.099 128.344 238.932 128.645 239.771 128.926C240.611 129.206 241.457 129.466 242.309 129.705C243.162 129.945 244.019 130.163 244.881 130.36C245.744 130.557 246.611 130.732 247.483 130.886C248.355 131.04 249.23 131.174 250.108 131.286C250.986 131.396 251.867 131.486 252.749 131.555C253.631 131.623 254.515 131.67 255.4 131.695C256.285 131.719 257.17 131.723 258.055 131.704C258.94 131.685 259.825 131.645 260.708 131.583C261.591 131.52 262.473 131.437 263.352 131.332C264.231 131.226 265.107 131.099 265.98 130.951C266.853 130.803 267.722 130.633 268.586 130.443C269.451 130.252 270.311 130.04 271.165 129.807C272.019 129.573 272.867 129.319 273.707 129.045C274.549 128.77 275.384 128.474 276.211 128.158C277.039 127.843 277.858 127.507 278.668 127.15C279.479 126.795 280.28 126.42 281.073 126.025C281.866 125.628 282.648 125.214 283.419 124.78C284.192 124.346 284.953 123.893 285.702 123.423C286.452 122.952 287.189 122.463 287.915 121.955C288.641 121.448 289.354 120.923 290.053 120.381C290.753 119.838 291.44 119.278 292.112 118.703C292.784 118.126 293.442 117.534 294.086 116.925C294.73 116.318 295.358 115.694 295.971 115.055C296.583 114.416 297.18 113.762 297.761 113.094C298.341 112.425 298.905 111.742 299.451 111.045C299.999 110.35 300.528 109.641 301.041 108.918C301.553 108.196 302.047 107.462 302.524 106.716C303 105.969 303.458 105.212 303.897 104.442C304.336 103.673 304.756 102.894 305.157 102.105C305.557 101.315 305.938 100.516 306.3 99.7085C306.662 98.8998 307.003 98.0829 307.325 97.2576C307.646 96.4324 307.947 95.5999 308.227 94.7601C308.508 93.9203 308.768 93.0743 309.007 92.2221C309.246 91.3689 309.464 90.5109 309.661 89.6484C309.858 88.7847 310.033 87.917 310.188 87.0451C310.342 86.1732 310.475 85.2981 310.586 84.42C310.697 83.5408 310.786 82.6601 310.855 81.7778C310.923 80.8945 310.97 80.0107 310.993 79.1263C311.018 78.2409 311.021 77.3555 311.003 76.4701C310.984 75.5848 310.944 74.7004 310.881 73.8171C310.819 72.9338 310.735 72.0525 310.629 71.1734C310.524 70.2942 310.397 69.4181 310.248 68.5452C310.1 67.6722 309.93 66.8034 309.738 65.9388C309.548 65.0752 309.336 64.2162 309.102 63.3619C308.869 62.5076 308.615 61.6596 308.339 60.8177C308.064 59.9759 307.769 59.1413 307.452 58.3139C307.137 57.4877 306.801 56.6691 306.445 55.8584C306.088 55.0477 305.712 54.2462 305.317 53.4542C304.921 52.6621 304.506 51.8798 304.073 51.1075C303.639 50.3361 303.186 49.5756 302.715 48.8261C302.244 48.0765 301.754 47.3389 301.246 46.6131C300.739 45.8874 300.214 45.1746 299.672 44.4748C299.129 43.775 298.569 43.0892 297.994 42.4174C297.418 41.7445 296.825 41.0867 296.216 40.4439C295.608 39.8001 294.984 39.1718 294.344 38.5591C293.705 37.9464 293.052 37.3502 292.383 36.7707C291.714 36.1901 291.032 35.6261 290.335 35.0787C289.638 34.5323 288.929 34.0031 288.208 33.4909C287.485 32.9787 286.75 32.4842 286.004 32.0073C285.257 31.5314 284.5 31.0742 283.73 30.6357C282.961 30.1971 282.181 29.7772 281.391 29.376C280.602 28.9758 279.804 28.5948 278.995 28.233C278.186 27.8722 277.37 27.5311 276.546 27.2097C275.72 26.8883 274.888 26.5877 274.048 26.3077C273.207 26.0268 272.361 25.7671 271.508 25.5286C270.656 25.2901 269.798 25.0724 268.935 24.8754C268.071 24.6785 267.203 24.5033 266.331 24.3498C265.46 24.1953 264.585 24.0626 263.706 23.9517C262.827 23.8408 261.946 23.7511 261.064 23.6827C260.181 23.6153 259.297 23.5691 258.413 23.5443C257.527 23.5204 256.642 23.5178 255.757 23.5365Z"/>
<path d="M93.0969 325.435C95.2741 318.613 98.2459 311.861 100.838 305.172L129.05 233.322C145.433 190.762 163.947 167.535 213.929 166.641L275.23 166.628C312.358 166.617 342.46 165.695 367.814 200.015C383.405 221.118 409.551 297.304 421.908 325.435C437.124 332.688 477.764 350.349 484.373 364.251C492.777 381.93 478.909 402.324 459.088 400.803C449.728 400.085 439.105 395.035 430.233 391.843L395.547 379.271C371.623 370.354 368.342 356.177 357.089 334.749C351.58 324.256 345.632 313.837 340.719 303.054C340.419 325.426 347.234 382.722 375.533 387.819C379.929 388.611 384.741 388.064 389.219 388.396C438.879 392.087 463.908 450.844 426.9 487.519C407.923 506.325 382.543 502.756 358.098 502.755L290.465 502.769L241.929 502.775C222.458 502.794 210.951 504.338 193.605 494.055C178.119 503.749 163.781 504.097 146.155 504.091C122.061 504.081 104.261 504.996 85.7862 486.306C54.9448 455.107 71.056 400.083 113.524 389.216C126.521 385.891 140.745 389.58 151.133 379.227C168.358 362.059 173.667 326.431 173.78 303.054C168.169 315.837 148.471 357.927 140.984 367.211C133.32 376.714 111.256 381.49 100.109 385.659L75.0091 395.171C69.4588 397.267 63.68 399.898 57.8047 400.861C38.2644 404.061 20.0864 384.056 27.8248 365.234C34.3719 349.314 76.0573 332.712 93.0969 325.435ZM206.392 183.125C163.403 186.279 154.106 214.808 140.849 248.542L111.16 324.781C109.787 328.314 108.832 332.065 106.65 335.217C100.129 344.637 57.9073 355.973 45.502 367.481C37.6517 374.764 44.9002 385.379 53.5763 385C56.3335 384.88 118.379 362.433 126.708 358.406C131.907 355.893 138.504 337.47 141.194 332.09L166.286 282.764C168.456 278.522 180.81 249.133 188.982 266.196C190.842 270.079 190.081 279.277 190.092 283.748C190.184 318.496 187.343 383.331 149.02 399.926C141.124 403.344 132.913 402.627 124.576 403.512C73.7401 408.909 74.09 481.925 123.528 487.987C172.012 493.934 185.002 480.588 225.708 457.964C254.268 442.089 284.265 425.748 313.517 411.072C293.543 400.251 280.117 401.565 258.21 401.564L204.009 401.582C197.257 401.584 185.208 402.466 178.934 400.791C172.092 398.964 171.743 387.857 178.822 386.162C183.284 385.093 188.733 385.631 193.332 385.628L214.537 385.622C246.236 385.617 303.687 378.775 328.015 401.573C336.853 406.564 344.621 412.232 332.379 419.356C297.913 439.414 260.434 457.147 225.304 476.675C220.329 479.44 214.948 481.848 210.323 485.152C223.652 488.126 243.85 486.868 258.05 486.855L371.001 486.846C378.004 486.855 385.414 487.577 392.339 486.829C438.278 481.86 441.316 414.338 394.919 404.931C389.079 403.747 383.098 404.29 377.187 403.945C329.235 401.145 324.408 323.891 324.313 289.454C324.294 282.44 320.538 258.942 334.163 262.216C345.165 264.858 375.304 347.027 389.18 358.152C395.191 362.972 423.012 371.823 431.656 375.004C439.222 377.786 458.701 388.028 466.37 383.437C489.101 369.828 430.671 347.568 423.028 343.728C402.289 333.314 408.099 333.693 398.903 311.809L367.085 234.6C354.725 204.682 342.22 186.725 306.396 183.125C304.393 250.185 212.007 246.528 208.398 186.643C208.317 185.304 208.516 183.595 207.13 182.994L206.392 183.125ZM224.314 183.125C227.461 214.386 259.647 227.975 280.973 206.774C287.759 199.392 289.702 193.011 290.465 183.125H224.314Z"/>
</svg>
