<svg viewBox="0 0 24 24" xmlns="http://www.w3.org/2000/svg">
<path d="M22.4928 15.3315H21.6881C21.5614 15.3315 21.4364 15.3015 21.3235 15.244C21.2106 15.1865 21.1128 15.1031 21.0383 15.0007L16.5299 8.80408C16.3521 8.5715 16.1231 8.38303 15.8607 8.2533C15.5983 8.12358 15.3095 8.05609 15.0168 8.05609H14.0255C13.9227 8.05609 13.8241 8.01524 13.7513 7.94253C13.6786 7.86981 13.6378 7.77119 13.6378 7.66836V6.74985C13.6378 6.56849 13.7305 6.40078 13.8821 6.3012C14.8246 5.68203 15.4434 4.61028 15.4292 3.39499C15.4073 1.52347 13.8593 0.00171446 11.9876 0.01029C10.1031 0.0189592 8.578 1.54934 8.578 3.43595C8.578 4.6338 9.19281 5.68808 10.1241 6.30041C10.2761 6.40031 10.3696 6.56807 10.3696 6.74999V7.66836C10.3696 7.77119 10.3288 7.86981 10.2561 7.94253C10.1833 8.01524 10.0847 8.05609 9.9819 8.05609H8.72772C8.43498 8.05609 8.14618 8.12358 7.88376 8.2533C7.62134 8.38303 7.39235 8.5715 7.21458 8.80408L2.71338 15.0503C2.63892 15.1537 2.54098 15.2378 2.42761 15.2959C2.31425 15.3539 2.18871 15.3842 2.06136 15.3842H1.50713C0.674794 15.3841 0 16.0589 0 16.8913C0 17.7237 0.674747 18.3984 1.50713 18.3984H2.9877C2.07424 18.9088 1.4562 19.8846 1.4562 21.0053C1.4562 22.6537 2.79248 23.99 4.44085 23.99H17.0851L7.15207 18.4862C6.36063 18.1789 5.51903 18.021 4.67 18.0206H4.61147C4.72953 17.9267 4.83474 17.8176 4.92441 17.6962L7.78633 13.4346V17.1909C7.8002 17.1975 7.81417 17.2037 7.8278 17.2112L12.0337 19.5423L15.9582 17.188V13.4346L18.8274 17.6435C18.9211 17.7704 19.0317 17.8838 19.1562 17.9806C18.0712 17.9968 16.9253 18.295 15.9582 18.8321V18.8274L13.4541 20.3296L19.8808 23.8915C21.2529 23.6226 22.2883 22.414 22.2883 20.9632V20.9488C22.2883 19.8231 21.6648 18.8499 20.7445 18.3458H22.4929C23.3253 18.3458 24 17.6711 24 16.8387C24 16.0062 23.3252 15.3315 22.4928 15.3315Z" />
</svg>
