<svg viewBox="0 0 24 24" xmlns="http://www.w3.org/2000/svg">
<path d="M11.2968 7.73438C11.2968 7.34578 10.9822 7.03125 10.5936 7.03125H9.47848L11.0907 5.41898C11.1892 5.32071 11.2562 5.19543 11.2834 5.05902C11.3105 4.9226 11.2966 4.78119 11.2433 4.65272C11.1901 4.52422 11.1 4.41439 10.9843 4.33714C10.8687 4.25989 10.7327 4.21869 10.5936 4.21875H7.78114C7.39255 4.21875 7.07801 4.53328 7.07801 4.92188C7.07801 5.31047 7.39255 5.625 7.78114 5.625H8.8963L7.28403 7.23727C7.1856 7.33554 7.11855 7.46082 7.0914 7.59723C7.06424 7.73365 7.0782 7.87506 7.1315 8.00353C7.18467 8.13205 7.27479 8.24189 7.39044 8.31914C7.50608 8.3964 7.64206 8.43759 7.78114 8.4375H10.5936C10.9822 8.4375 11.2968 8.12297 11.2968 7.73438ZM12.7567 3.78478C12.8651 4.04775 13.1219 4.21875 13.4061 4.21875H16.2186C16.6072 4.21875 16.9218 3.90422 16.9218 3.51562C16.9218 3.12703 16.6072 2.8125 16.2186 2.8125H15.1035L16.7157 1.20023C16.8142 1.10196 16.8812 0.976681 16.9084 0.840265C16.9355 0.70385 16.9216 0.562444 16.8683 0.433969C16.8151 0.30547 16.725 0.195642 16.6093 0.11839C16.4937 0.0411384 16.3577 -6.37157e-05 16.2186 7.39579e-08H13.4061C13.0175 7.39579e-08 12.703 0.314531 12.703 0.703125C12.703 1.09172 13.0175 1.40625 13.4061 1.40625H14.5213L12.909 3.01852C12.8106 3.11678 12.7435 3.24207 12.7164 3.3785C12.6893 3.51492 12.7033 3.65633 12.7567 3.78478ZM21.8905 11.25H11.9999C10.8368 11.25 9.89051 12.1963 9.89051 13.3594V16.1719C9.89051 16.5605 10.205 16.875 10.5936 16.875H23.9999V13.3594C23.9999 12.1963 23.0536 11.25 21.8905 11.25Z M8.48438 16.1719V15.4688H1.40625V7.73438C1.40625 7.34578 1.09172 7.03125 0.703125 7.03125C0.314531 7.03125 0 7.34578 0 7.73438V23.2969C0 23.6855 0.314531 24 0.703125 24C1.09172 24 1.40625 23.6855 1.40625 23.2969V21.1406H22.5938V23.2969C22.5938 23.6852 22.9085 24 23.2969 24C23.6852 24 24 23.6852 24 23.2969V18.2812H10.5938C9.42881 18.2812 8.48438 17.3368 8.48438 16.1719Z M8.48438 11.9531C8.48438 13.1181 7.53994 14.0625 6.375 14.0625C5.21006 14.0625 4.26562 13.1181 4.26562 11.9531C4.26562 10.7882 5.21006 9.84375 6.375 9.84375C7.53994 9.84375 8.48438 10.7882 8.48438 11.9531Z" />
</svg>
