<svg viewBox="0 0 24 24" xmlns="http://www.w3.org/2000/svg">
<path d="M4.96875 14.1562H19.0312C21.7448 14.1562 24 11.9011 24 9.1875C24 7.18252 22.7406 5.36006 20.8969 4.60603C20.1334 1.91438 17.6353 0 14.8125 0C13.245 0 11.7666 0.571312 10.602 1.617C8.30381 0.920859 5.76802 2.08941 4.75725 4.22353C2.14125 4.33486 0 6.54455 0 9.1875C0 11.9011 2.25516 14.1562 4.96875 14.1562ZM15.5156 19.0781V16.2656C15.5156 15.877 15.2011 15.5625 14.8125 15.5625C14.4239 15.5625 14.1094 15.877 14.1094 16.2656V19.0781C14.1094 19.4667 14.4239 19.7812 14.8125 19.7812C15.2011 19.7812 15.5156 19.4667 15.5156 19.0781ZM18.3281 20.4844V17.6719C18.3281 17.2833 18.0136 16.9688 17.625 16.9688C17.2364 16.9688 16.9219 17.2833 16.9219 17.6719V20.4844C16.9219 20.873 17.2364 21.1875 17.625 21.1875C18.0136 21.1875 18.3281 20.873 18.3281 20.4844ZM12.7031 20.4844V17.6719C12.7031 17.2833 12.3886 16.9688 12 16.9688C11.6114 16.9688 11.2969 17.2833 11.2969 17.6719V20.4844C11.2969 20.873 11.6114 21.1875 12 21.1875C12.3886 21.1875 12.7031 20.873 12.7031 20.4844ZM9.89062 19.0781V16.2656C9.89062 15.877 9.57609 15.5625 9.1875 15.5625C8.79891 15.5625 8.48438 15.877 8.48438 16.2656V19.0781C8.48438 19.4667 8.79891 19.7812 9.1875 19.7812C9.57609 19.7812 9.89062 19.4667 9.89062 19.0781ZM7.07812 20.4844V17.6719C7.07812 17.2833 6.76359 16.9688 6.375 16.9688C5.98641 16.9688 5.67188 17.2833 5.67188 17.6719V20.4844C5.67188 20.873 5.98641 21.1875 6.375 21.1875C6.76359 21.1875 7.07812 20.873 7.07812 20.4844ZM4.26562 19.0781V16.2656C4.26562 15.877 3.95109 15.5625 3.5625 15.5625C3.17391 15.5625 2.85938 15.877 2.85938 16.2656V19.0781C2.85938 19.4667 3.17391 19.7812 3.5625 19.7812C3.95109 19.7812 4.26562 19.4667 4.26562 19.0781ZM21.1406 19.0781V16.2656C21.1406 15.877 20.8261 15.5625 20.4375 15.5625C20.0489 15.5625 19.7344 15.877 19.7344 16.2656V19.0781C19.7344 19.4667 20.0489 19.7812 20.4375 19.7812C20.8261 19.7812 21.1406 19.4667 21.1406 19.0781Z" />
</svg>
