<svg viewBox="0 0 512 512" xmlns="http://www.w3.org/2000/svg">
<path d="M330.916 116.874C325.995 86.8112 330.777 57.5901 351.032 33.6359C365.017 17.0968 386.478 4.80117 408.252 3.00015C422.964 2.94789 412.411 16.4447 409.281 21.4142C376.774 73.0238 436.912 136.244 488.828 106.484C498.788 100.774 513.634 87.3352 507.519 115.301C499.979 149.786 469.508 182.042 433.261 184.143C439.009 192.533 442.512 200.405 443.299 210.6C478.099 210.338 506.898 243.325 506.96 277.059C507.019 308.837 484.056 336.821 452.736 342.41C440.074 344.67 426.443 343.727 413.601 343.725L127.051 343.718L86.9764 343.721C79.6014 343.723 72.1508 343.961 64.7856 343.62C6.67991 340.933 -18.8678 269.226 25.4779 228.98C26.0578 208.23 38.5458 189.992 53.7819 176.833C26.8831 124.251 81.6903 64.7409 137.262 89.5937C155.719 55.1551 209.864 49.5244 230.951 81.6373C266.89 69.9583 301.514 85.9216 310.333 123.706C316.98 120.241 323.482 117.948 330.916 116.874ZM395.181 19.3654C354.566 34.0478 334.411 75.589 344.891 116.874C372.302 121.729 396.583 140.73 399.343 169.616C420.441 170.905 426.174 176.674 449.669 166.458C471.653 156.41 484.015 141.673 493.192 119.566C488.219 121.583 483.29 123.686 478.083 125.037C422.925 139.351 371.509 81.9903 391.384 29.2887C392.143 27.2751 395.304 21.1452 395.181 19.3654ZM182.622 73.7467C151.408 77.2857 148.273 103.961 141.413 104.784C135.858 105.45 129.405 100.665 124.146 98.9735C83.6097 85.944 46.9842 131.465 65.1204 169.616C104.224 149.57 141.119 169.907 161.577 205.422C164.515 210.522 166.798 216.015 170.074 220.905L170.431 221.447C185.426 211.389 201.626 211.239 218.96 211.24L269.52 211.235C298.193 211.211 302.988 214.148 324.133 230.234C333.781 237.573 343.467 244.907 353.233 252.086C371.432 265.466 374.649 264.065 396.792 264.056L426.262 264.034C430.791 264.028 440.533 262.17 443.508 266.771C453.937 282.9 410.294 277.16 404.642 277.17C365.828 277.24 369.314 280.733 338.619 257.928L313.822 239.175C294.52 224.418 293.69 224.564 267.783 224.547L214.387 224.554C199.87 224.567 188.015 225.503 175.504 233.99C185.681 265.802 169.421 294.355 137.734 304.337C134.218 305.445 130.582 306.069 127.051 307.096C125.813 316.015 131.564 325.371 138.73 330.386C147.251 330.644 155.824 330.385 164.354 330.385L242.845 330.399C253.588 330.403 267.437 331.918 267.542 315.545C267.605 305.763 258.067 302.405 250.875 298.23L232.08 287.275C229.27 285.618 225.875 284 223.583 281.673C219.865 277.896 222.558 270.592 227.953 270.357C233.465 270.116 240.897 276.927 245.4 279.619C268.08 293.171 289.714 299.763 277.15 330.386L425.462 330.395C434.094 330.405 443.149 330.968 451.634 329.202C509.927 317.075 505.371 232.354 447.678 223.83C443.579 223.223 437.139 224.346 433.689 221.89C428.675 218.321 433.855 200.752 417.531 188.54C403.964 178.388 393.473 186.369 389.543 182.299C387.011 179.678 387.009 169.33 385.881 165.288C377.917 136.74 341.477 119.599 315.638 135.996C310.608 139.189 304.459 145.824 299.632 138.714C297.912 134.107 297.982 129.316 296.958 124.562C291.63 99.838 263.521 83.9756 239.757 93.1579C223.051 99.611 228.652 99.6516 218.229 87.3268C210.03 77.6359 195.26 71.7642 182.622 73.7467ZM92.8117 175.684C64.1243 178.266 35.7719 205.935 38.4085 235.297C41.069 264.919 84.6787 292.864 112.465 294.618C137.038 294.935 165.769 280.259 165.771 252.541C165.773 234.698 147.368 203.917 134.939 191.576C124.151 180.862 108.251 173.672 92.8117 175.684ZM27.2041 246.165C4.64898 278.324 18.6863 321.551 57.4526 329.291C65.1905 330.835 73.2884 330.407 81.1439 330.404L108.28 330.386H119.836C115.071 321.026 114.865 318.332 112.465 308.362C75.764 302.114 40.6529 282.467 27.2041 246.165Z"/>
<path d="M124.295 236.146C120.123 236.229 113.508 235.751 114.322 229.737C114.85 225.836 121.47 225.462 124.113 223.433C128.089 220.383 125.22 214.257 129.804 210.6C144.579 209.684 140.271 232.942 124.295 236.146Z"/>
<path d="M129.04 277.188C126.808 276.986 123.933 275.94 124.037 273.201C125.498 269.781 132.848 270.289 136.129 268.045C144.059 262.624 138.94 252.666 144.2 249.47C156.151 249.452 147.119 276.354 129.04 277.188Z"/>
<path d="M99.1376 261.173C98.6318 256.653 98.1919 254.488 102.398 251.881C116.97 251.368 110.475 281.153 90.4008 277.188C86.4387 277.088 80.9327 273.778 83.6563 269.122C87.0916 263.25 94.0519 271.418 99.1376 261.173Z"/>
<path d="M343.5 426.334C335.892 426.003 328.801 422.593 325.446 415.406C320.999 405.88 325.775 398.865 329.453 390.386C332.021 384.464 332.821 376.777 339.257 373.837C347.196 373.106 348.616 381.355 351.13 387.069C357.508 401.567 367.289 420.758 343.5 426.334ZM340.955 395.709C338.644 401.185 332.129 412.373 342.242 413.69C348.997 410.123 344.286 400.432 340.955 395.709Z"/>
<path d="M427.791 426.334C420.144 426.639 412.912 423.868 409.102 416.738C404.591 408.292 409.667 400.19 412.926 392.426C415.435 386.447 417.032 377.049 423.254 373.838C431.274 373.37 431.667 379.264 434.426 385.162C441.313 399.888 451.699 420.574 427.791 426.334ZM425.514 395.709C423.067 400.642 415.785 412.164 425.514 413.69C432.57 410.598 428.647 400.495 425.514 395.709Z"/>
<path d="M172.751 426.334C160.584 428.095 149.579 416.003 152.627 403.92C153.799 399.272 164.188 376.73 167.847 374.566C179.17 373.655 184.33 393.861 187.848 403.758C191.857 415.039 184.248 425.38 172.751 426.334ZM170.431 395.709C168.023 400.862 160.775 411.84 170.431 413.69C179.638 412.416 172.765 398.074 170.431 395.709Z"/>
<path d="M257.237 426.334C250.486 426.595 243.511 424.216 239.855 418.182C234.456 409.268 240.245 400.265 243.843 392.001C246.348 386.245 247.897 377.972 253.654 374.566C262.887 373.408 263.66 381.444 266.738 388.19C273.912 403.912 279.237 419.923 257.237 426.334ZM256.154 395.709C253.536 400.293 245.416 411.581 254.781 413.69C263.904 411.88 259.95 401.096 256.154 395.709Z"/>
<path d="M88.7567 426.334C76.9391 428.926 66.6527 418.706 68.439 406.63C69.1984 401.491 79.1835 377.891 83.7845 374.566C92.3643 373.74 94.5696 384.271 97.5397 390.35C99.9999 395.383 103.481 400.165 104.272 405.835C105.705 416.112 99.1943 425.356 88.7567 426.334ZM86.148 397.619C84.2468 401.736 82.4269 405.898 80.8787 410.164C82.3344 412.313 83.5014 413.519 86.148 413.69C94.599 412.135 90.0204 402.055 86.148 397.619Z"/>
<path d="M382.525 509.567C371.11 509.664 360.234 499.666 363.223 487.609C364.746 481.471 368.275 475.324 370.741 469.481C372.77 464.674 373.702 456.474 379.393 455.076C383.886 453.529 385.425 454.862 387.419 458.847C395.039 474.078 411.879 505.701 382.525 509.567ZM381.402 479.059C378.612 483.581 371.422 495.651 381.402 496.455C390.319 494.516 383.954 481.045 381.402 479.059Z"/>
<path d="M132.417 509.568C117.58 509.244 108.025 497.348 113.326 483.209C115.463 477.515 123.698 457.479 129.04 455.076C136.88 454.776 143.909 476.522 146.585 482.909C152.128 496.145 144.646 504.933 132.417 509.568ZM129.804 479.059C127.785 483.401 120.551 495.451 129.804 496.456C138.26 492.393 135.357 484.495 129.804 479.059Z"/>
<path d="M215.169 509.568C201.992 507.933 191.86 498.86 196.859 484.355C199.239 477.451 205.237 459.434 212.001 456.154C222.236 455.167 230.779 482.249 231.824 488.981C233.48 499.653 225.332 508.154 215.169 509.568ZM213.951 479.059C211.246 483.596 204.179 495.276 213.951 496.456C221.941 492.405 217.902 486.046 214.122 479.166L213.951 479.059Z"/>
<path d="M299.631 509.567C288.295 509.635 278.327 500.361 280.178 488.396C281.002 483.064 290.526 458.419 297.242 456.153C304.504 455.884 306.343 465.84 308.794 471.148C311.335 476.652 315.212 482.263 316.307 488.265C318.224 498.757 309.58 508.07 299.631 509.567ZM298.369 479.059C295.163 484.626 288.431 493.933 298.369 496.455C307.201 493.746 301.658 484.458 298.369 479.059Z"/>
</svg>
