<svg viewBox="0 0 512 512" xmlns="http://www.w3.org/2000/svg">
<path d="M308.53 175.654C307.324 171.61 306.698 167.448 306.246 163.262C298.651 92.8509 346.676 37.4599 416.365 30.1854C425.334 29.7548 449.346 29.5723 454.6 35.5817C462.58 44.7086 446.856 49.4686 442.031 51.7352C347.647 96.0721 384.805 237.929 489.697 229.417C511.112 227.679 511.253 237.713 495.026 249.674C470.178 267.991 437.916 274.397 407.709 269.782C409.331 283.338 409.599 295.172 404.873 308.201C420.073 322.826 423.898 331.111 429.255 350.264C463.875 377.249 468.838 425.102 439.046 457.756C412.831 486.492 364.816 492.029 335.636 465.265C292.942 483.36 253.669 487.566 208.345 473.013C185.444 465.327 168.038 455.528 149.286 440.325C103.634 459.005 57.9565 453.655 25.7292 412.644C-6.44422 371.701 1.84907 310.009 42.4741 278.064C39.8848 227.606 82.0033 197.704 129.547 198.637C130.666 196.849 132.038 195.193 133.388 193.574C175.059 143.571 252.707 135.6 302.76 177.717C304.656 176.841 306.527 176.232 308.53 175.654ZM422.571 45.1841C332.074 46.0391 284.984 158.356 351.663 223.745C371.526 243.225 394.681 254.176 422.571 256.028C441.169 256.178 457.934 252.985 474.587 244.594C375.668 237.232 337.964 116.075 409.11 55.4311C413.145 51.9917 417.72 47.9404 422.483 45.6062L422.591 45.2018L422.571 45.1841ZM220.946 165.611C192.092 168.404 164.673 179.888 145.912 202.757C132.015 219.699 137.77 213.002 117.82 213.801C86.0213 215.077 58.959 241.201 57.9877 273.192C57.4604 290.533 57.976 283.36 45.5594 295.487C11.3026 328.939 13.7472 386.834 50.8139 417.122C73.7524 435.864 108.648 442.07 136.134 429.724C157.719 420.029 149.55 422.438 166.488 434.98C192.819 454.478 225.197 465.266 257.801 466.653C277.203 466.681 296.825 464.696 315.096 457.662C339.351 448.324 330.474 443.446 348.794 456.431C408.971 499.077 474.701 414.914 427.414 368.8C414.564 356.268 417.822 365.597 412.862 347.428C410.916 340.298 406.239 331.456 401.116 326.025C387.615 311.716 385.713 319.908 391.716 300.04C394.691 290.194 394.904 275.492 390.776 265.927C352.152 249.765 329.794 231.139 312.548 190.815C308.278 192.094 304.065 193.561 299.589 193.847C293.795 190.817 289.42 185.792 283.98 182.243C265.73 170.336 242.652 164.381 220.946 165.611Z"/>
<path d="M291.188 286.716C283.916 286.749 268.947 287.978 262.72 284.848C255.45 281.196 258.734 272.506 265.2 270.433C273.578 270.135 282.063 270.463 290.454 270.437C302.992 270.397 326.152 267.884 310.684 286.716C318.179 286.62 361.961 284.594 365.814 288.917C372.575 296.502 359.792 305.301 354.894 309.861L309.88 351.594C304.256 356.808 298.789 362.284 292.879 367.169L338.903 367.156C346.624 367.152 354.794 366.626 362.467 367.345C368.55 367.916 371.901 373.883 368.065 378.873C363.848 384.229 356.154 382.449 350.078 382.406L330.803 382.402C312.899 382.414 294.923 382.767 277.027 382.396C269.262 382.234 264.018 376.882 269.33 370.175C275.574 362.29 293.23 345.777 301.572 338.549L274.366 338.573C269.453 338.572 258.786 340.254 254.894 336.434C248.072 329.735 260.515 320.248 264.549 315.712C272.599 306.658 282.474 295.053 291.188 286.716ZM297.776 301.898C290.866 308.549 284.566 316.078 278.12 323.192C288.887 323.065 308.394 318.569 308.529 332.233C310.76 330.084 313.015 327.972 315.301 325.882C323.947 318.159 333.11 310.334 341.078 301.898H297.776Z"/>
<path d="M205.711 337.034L183.232 337.026C179.444 337.029 175.234 337.432 171.512 336.793C163.551 335.427 160.474 322.535 175.215 321.471L206.182 321.447C212.441 321.446 236.168 319.188 228.244 333.095C225.819 337.35 221.898 341.186 218.691 344.899L200.675 365.636C197.025 369.804 193.067 373.847 189.829 378.34L189.449 378.873L208.428 378.849C212.422 378.853 216.734 378.62 220.682 379.261C228.081 380.464 232.1 394.106 216.223 394.087L186.553 394.107C181.728 394.109 176.418 394.527 171.635 393.951C166.347 393.316 162.931 387.424 165.989 382.642C173.794 370.439 195.46 349.02 205.711 337.034Z"/>
</svg>
