<svg viewBox="0 0 24 24" xmlns="http://www.w3.org/2000/svg">
<path d="M19.2424 12.0075C19.2424 15.983 16.0196 19.2058 12.044 19.2058C8.06856 19.2058 4.84571 15.983 4.84571 12.0075C4.84571 8.03196 8.06856 4.8091 12.044 4.8091C16.0196 4.8091 19.2424 8.03196 19.2424 12.0075ZM24.0413 3.0097C24.0413 4.66608 22.6984 6.00897 21.042 6.00897C19.3854 6.00897 18.0425 4.66608 18.0425 3.0097C18.0425 1.35313 19.3854 0.0102539 21.042 0.0102539C22.6984 0.0102539 24.0413 1.35313 24.0413 3.0097ZM6.04543 20.4055C6.04543 21.7307 4.97114 22.805 3.64598 22.805C2.32082 22.805 1.24658 21.7307 1.24658 20.4055C1.24658 19.0803 2.32087 18.0061 3.64598 18.0061C4.9711 18.0061 6.04543 19.0804 6.04543 20.4055Z M22.2991 6.99533C21.9944 7.12536 21.8527 7.47768 21.9826 7.78251C21.9826 7.78251 21.9829 7.78251 21.9829 7.78269C24.3213 13.2627 21.7745 19.6009 16.2945 21.9392C14.9141 22.5283 13.426 22.8228 11.9253 22.804C10.4246 22.7853 8.94436 22.4535 7.57917 21.8301C7.27467 21.6995 6.92203 21.8403 6.79129 22.1446C6.66459 22.44 6.79293 22.7826 7.08239 22.9219C13.1136 25.6632 20.2251 22.9963 22.9663 16.9653C23.6541 15.4523 24.0199 13.8129 24.0406 12.1511C24.0613 10.4892 23.7365 8.84122 23.0867 7.31155C22.9562 7.00705 22.604 6.86553 22.2991 6.99533H22.2991ZM1.67548 17.3207C1.76112 17.3204 1.84574 17.302 1.92377 17.2667C2.22518 17.1297 2.35863 16.7745 2.22171 16.4731C2.22171 16.4727 2.22152 16.4726 2.22134 16.4722C-0.24547 11.0444 2.15487 4.64445 7.58287 2.17745C8.9442 1.55872 10.4192 1.22958 11.9145 1.21089C13.4097 1.19221 14.8925 1.48438 16.2688 2.06889C16.5737 2.19887 16.9262 2.05717 17.0562 1.75248C17.1862 1.44761 17.0447 1.0951 16.7398 0.965119C10.6504 -1.63355 3.60762 1.19621 1.00896 7.28558C0.354418 8.81931 0.0270592 10.4727 0.0478026 12.1402C0.068546 13.8076 0.436935 15.4524 1.12943 16.9693C1.17713 17.0741 1.25399 17.163 1.35082 17.2253C1.44765 17.2876 1.56033 17.3207 1.67548 17.3207Z" />
</svg>
