<svg viewBox="0 0 512 512" xmlns="http://www.w3.org/2000/svg">
<path d="M98.9242 118.451C148.687 90.6793 188.876 83.7191 243.46 79.0945C343.252 76.5493 482.161 125.307 501.086 236.742C507.991 277.395 496.492 308.353 473.685 340.452C504.508 382.803 449.911 419.392 421.629 387.504C382.077 414.645 321.076 428.647 274.22 431.904C197.18 433.225 127.347 421.291 65.9454 370.345C6.45768 320.989 -12.0027 245.425 33.1764 180.062C37.2959 174.103 41.9324 168.598 46.5611 163.036C26.5326 132.207 63.7078 92.8202 98.9242 118.451ZM249.061 92.515C201.041 93.34 149.335 105.018 107.635 129.447C119.543 163.96 91.453 188.979 56.0625 174.059C52.0999 176.784 49.2568 180.827 46.4365 184.666C15.0188 227.433 12.6505 281.58 43.4045 325.901C89.3774 392.155 179.573 419.02 257.386 418.815C316.414 418.893 364.435 403.89 414.665 375.543C407.938 345.645 431.892 321.872 462.145 332.797C523.123 253.358 475.136 168.844 395.114 126.218C350.013 102.194 299.859 92.3932 249.061 92.515ZM73.3074 123.674C72.847 123.729 72.3891 123.799 71.9337 123.884C71.4783 123.969 71.0263 124.069 70.5776 124.184C70.1289 124.299 69.6844 124.428 69.2441 124.572C68.8038 124.716 68.3689 124.874 67.9394 125.047C67.5092 125.22 67.0852 125.407 66.6674 125.607C66.2506 125.808 65.8404 126.022 65.4369 126.25C65.0334 126.477 64.6379 126.718 64.2503 126.973C63.8627 127.227 63.4839 127.493 63.1139 127.772C62.7439 128.05 62.3835 128.341 62.0328 128.643C61.682 128.946 61.3414 129.26 61.0107 129.585C60.6809 129.91 60.3619 130.245 60.0539 130.592C59.7458 130.937 59.4495 131.293 59.165 131.659C58.8804 132.024 58.6081 132.399 58.3483 132.783C58.0884 133.166 57.8414 133.558 57.6073 133.957C57.3733 134.357 57.1527 134.764 56.9455 135.179C56.7382 135.593 56.5448 136.014 56.3654 136.441C56.1858 136.868 56.0206 137.3 55.8696 137.738C55.7186 138.176 55.5822 138.619 55.4604 139.066C55.3385 139.513 55.2315 139.964 55.1395 140.417C55.0473 140.871 54.9702 141.328 54.9082 141.787C54.8461 142.246 54.7993 142.706 54.7677 143.168C54.736 143.631 54.7196 144.094 54.7184 144.557C54.7173 145.02 54.7314 145.483 54.7608 145.946C54.7901 146.408 54.8346 146.869 54.8944 147.328C54.9541 147.788 55.0289 148.245 55.1187 148.7C55.2086 149.154 55.3134 149.605 55.4329 150.052C55.5525 150.5 55.6868 150.943 55.8356 151.382C55.9844 151.82 56.1475 152.254 56.3249 152.683C56.5023 153.11 56.6936 153.532 56.8988 153.947C57.1039 154.362 57.3226 154.77 57.5546 155.171C57.7867 155.572 58.0318 155.965 58.2898 156.35C58.5478 156.735 58.8182 157.111 59.101 157.478C59.3838 157.845 59.6784 158.202 59.9848 158.55C60.2912 158.898 60.6085 159.235 60.9366 159.561C61.2656 159.888 61.6046 160.203 61.9537 160.508C62.3028 160.812 62.6619 161.104 63.031 161.386C63.3994 161.666 63.7769 161.934 64.1637 162.189C64.5496 162.445 64.9438 162.688 65.3465 162.918C65.7483 163.148 66.1577 163.364 66.5745 163.567C66.9906 163.769 67.4133 163.958 67.8427 164.133C68.2713 164.308 68.7058 164.469 69.1461 164.615C69.5856 164.762 70.0293 164.893 70.4771 165.009C70.9258 165.127 71.3774 165.229 71.832 165.316C72.2874 165.403 72.7449 165.475 73.2044 165.533C73.664 165.59 74.1252 165.632 74.5882 165.659C75.0502 165.685 75.5132 165.697 75.9769 165.693C76.4399 165.688 76.9023 165.669 77.3644 165.635C77.8265 165.6 78.2869 165.551 78.7457 165.487C79.0847 165.439 79.4225 165.383 79.759 165.318C80.0963 165.254 80.4312 165.181 80.7635 165.101C81.0967 165.02 81.4278 164.931 81.7567 164.835C82.0857 164.738 82.4118 164.633 82.7349 164.521C83.0589 164.408 83.3795 164.287 83.6967 164.159C84.0148 164.03 84.3296 163.894 84.641 163.751C84.9516 163.607 85.2588 163.456 85.5627 163.298C85.8665 163.139 86.1662 162.973 86.4617 162.799C86.758 162.626 87.0494 162.446 87.3356 162.258C87.6228 162.071 87.9049 161.877 88.182 161.676C88.4599 161.474 88.7324 161.266 88.9994 161.052C89.2664 160.837 89.528 160.616 89.7842 160.389C90.0412 160.162 90.2923 159.929 90.5376 159.689C90.782 159.45 91.021 159.205 91.2546 158.953C91.4873 158.702 91.7141 158.445 91.9351 158.182C92.1561 157.92 92.3704 157.653 92.578 157.38C92.7848 157.108 92.9853 156.83 93.1795 156.548C93.3737 156.265 93.5608 155.979 93.7408 155.687C93.9208 155.395 94.0936 155.099 94.2594 154.8C94.4251 154.499 94.5833 154.195 94.734 153.888C94.8847 153.58 95.0278 153.269 95.1634 152.954C95.2991 152.639 95.4271 152.321 95.5477 152.001C95.6674 151.68 95.7796 151.357 95.8842 151.03C95.9888 150.704 96.0851 150.375 96.173 150.043C96.2617 149.713 96.3421 149.379 96.4141 149.044C96.4861 148.709 96.5497 148.372 96.6049 148.034C96.661 147.696 96.7087 147.357 96.7481 147.017C96.7866 146.676 96.8171 146.335 96.8397 145.992C96.8623 145.651 96.8766 145.309 96.8825 144.967C96.8883 144.623 96.8858 144.281 96.8749 143.938C96.864 143.596 96.8448 143.254 96.8172 142.912C96.7895 142.571 96.7535 142.23 96.7092 141.89C96.6648 141.55 96.6125 141.212 96.5522 140.874C96.4911 140.537 96.422 140.201 96.345 139.867C96.268 139.533 96.183 139.202 96.0901 138.873C95.9964 138.543 95.8951 138.216 95.7863 137.891C95.6766 137.566 95.5594 137.244 95.4347 136.924C95.3099 136.605 95.1773 136.29 95.0366 135.977C94.8968 135.664 94.7491 135.355 94.5934 135.049C94.4377 134.745 94.2749 134.443 94.1049 134.145C93.935 133.848 93.7579 133.555 93.5738 133.266C93.3896 132.978 93.1983 132.693 92.9999 132.414C92.8015 132.134 92.5965 131.86 92.3847 131.59C92.1729 131.32 91.9548 131.056 91.7305 130.798C91.5061 130.538 91.2755 130.285 91.0386 130.037C90.8017 129.79 90.5589 129.548 90.3103 129.312C90.0617 129.076 89.8076 128.846 89.5481 128.623C89.2878 128.399 89.0224 128.183 88.752 127.972C88.4816 127.761 88.2062 127.558 87.9258 127.361C87.6454 127.164 87.3603 126.974 87.0707 126.791C86.7811 126.608 86.4872 126.431 86.1892 126.262C85.8912 126.094 85.589 125.933 85.2826 125.779C84.9771 125.624 84.6678 125.477 84.3547 125.338C84.0408 125.199 83.7244 125.068 83.4054 124.945C83.0857 124.821 82.7629 124.705 82.4373 124.597C82.1125 124.489 81.7848 124.39 81.4541 124.298C81.1243 124.206 80.7924 124.123 80.4584 124.047C80.1235 123.971 79.7874 123.903 79.4501 123.844C79.1127 123.784 78.7741 123.733 78.4343 123.691C78.0944 123.648 77.7533 123.614 77.4109 123.588C77.0694 123.562 76.7274 123.544 76.385 123.534C76.0426 123.524 75.7003 123.524 75.3579 123.531C75.0147 123.538 74.6723 123.553 74.3308 123.578C73.9884 123.602 73.6473 123.634 73.3074 123.674ZM445.9 343.499C445.549 343.534 445.2 343.578 444.852 343.631C444.503 343.684 444.156 343.745 443.811 343.816C443.466 343.885 443.123 343.964 442.781 344.051C442.439 344.137 442.1 344.232 441.764 344.336C441.427 344.439 441.093 344.55 440.762 344.67C440.43 344.789 440.102 344.917 439.777 345.054C439.452 345.189 439.13 345.333 438.812 345.486C438.495 345.637 438.181 345.797 437.87 345.964C437.56 346.132 437.255 346.306 436.953 346.488C436.652 346.67 436.355 346.86 436.063 347.057C435.771 347.254 435.484 347.458 435.202 347.669C434.92 347.88 434.643 348.098 434.371 348.322C434.099 348.548 433.834 348.779 433.574 349.017C433.314 349.254 433.06 349.499 432.812 349.749C432.564 349.999 432.322 350.255 432.087 350.517C431.851 350.779 431.623 351.047 431.401 351.321C431.178 351.594 430.963 351.873 430.754 352.157C430.546 352.441 430.345 352.73 430.15 353.024C429.956 353.317 429.769 353.616 429.59 353.919C429.41 354.222 429.238 354.53 429.074 354.842C428.909 355.153 428.753 355.468 428.605 355.787C428.456 356.107 428.315 356.43 428.181 356.757C428.048 357.082 427.923 357.411 427.806 357.744C427.69 358.076 427.581 358.411 427.481 358.749C427.38 359.087 427.288 359.427 427.205 359.769C427.122 360.111 427.047 360.455 426.98 360.801C426.913 361.148 426.855 361.495 426.805 361.843C426.756 362.192 426.715 362.542 426.683 362.893C426.651 363.244 426.627 363.595 426.612 363.948C426.597 364.299 426.591 364.651 426.593 365.004C426.596 365.356 426.606 365.708 426.626 366.06C426.646 366.411 426.674 366.763 426.711 367.113C426.748 367.464 426.794 367.813 426.848 368.161C426.902 368.509 426.965 368.856 427.036 369.201C427.107 369.546 427.187 369.889 427.275 370.23C427.363 370.571 427.459 370.91 427.564 371.247C427.668 371.583 427.781 371.916 427.903 372.248C428.024 372.578 428.153 372.906 428.291 373.23C428.428 373.554 428.573 373.875 428.726 374.193C428.88 374.51 429.04 374.824 429.209 375.133C429.378 375.442 429.554 375.747 429.737 376.047C429.921 376.349 430.111 376.645 430.31 376.936C430.508 377.228 430.713 377.514 430.925 377.795C431.138 378.077 431.357 378.352 431.582 378.623C431.808 378.893 432.04 379.158 432.279 379.416C432.518 379.676 432.763 379.929 433.014 380.176C433.266 380.423 433.523 380.663 433.785 380.897C434.049 381.131 434.318 381.359 434.592 381.58C434.866 381.801 435.146 382.015 435.432 382.223C435.716 382.43 436.006 382.63 436.301 382.823C436.595 383.016 436.894 383.202 437.198 383.38C437.502 383.559 437.81 383.73 438.123 383.893C438.435 384.056 438.751 384.211 439.071 384.359C439.39 384.506 439.714 384.645 440.041 384.777C440.368 384.909 440.697 385.033 441.031 385.148C441.364 385.263 441.699 385.37 442.036 385.47C442.375 385.569 442.715 385.659 443.059 385.741C443.401 385.823 443.745 385.897 444.092 385.962C444.438 386.027 444.785 386.084 445.134 386.132C445.483 386.179 445.833 386.219 446.184 386.25C446.535 386.281 446.887 386.303 447.239 386.316C447.591 386.33 447.943 386.335 448.296 386.331C448.647 386.327 448.999 386.314 449.352 386.294C449.703 386.273 450.054 386.243 450.404 386.204C450.752 386.166 451.1 386.119 451.446 386.064C451.792 386.009 452.137 385.945 452.48 385.873C452.822 385.801 453.163 385.721 453.502 385.632C453.841 385.543 454.178 385.446 454.513 385.341C454.847 385.236 455.178 385.123 455.507 385.001C455.835 384.879 456.161 384.75 456.484 384.612C456.806 384.475 457.125 384.33 457.44 384.177C457.755 384.023 458.067 383.863 458.374 383.694C458.681 383.526 458.984 383.351 459.283 383.168C459.582 382.985 459.876 382.794 460.166 382.597C460.455 382.399 460.74 382.195 461.019 381.983C461.299 381.772 461.573 381.554 461.842 381.329C462.111 381.104 462.374 380.872 462.631 380.634C462.888 380.397 463.14 380.153 463.385 379.902C463.631 379.653 463.871 379.397 464.103 379.135C464.336 378.873 464.563 378.606 464.783 378.333C465.003 378.06 465.216 377.782 465.422 377.499C465.628 377.215 465.827 376.927 466.02 376.634C466.211 376.341 466.396 376.043 466.575 375.741C466.752 375.439 466.922 375.132 467.084 374.822C467.247 374.511 467.402 374.197 467.549 373.879C467.696 373.561 467.836 373.239 467.967 372.914C468.099 372.59 468.222 372.262 468.338 371.931C468.453 371.601 468.56 371.267 468.659 370.931C468.758 370.594 468.849 370.256 468.931 369.916C469.013 369.575 469.088 369.232 469.154 368.888C469.219 368.544 469.276 368.198 469.326 367.852C469.374 367.504 469.414 367.156 469.446 366.807C469.478 366.458 469.501 366.108 469.515 365.758C469.53 365.409 469.537 365.058 469.534 364.707C469.532 364.357 469.52 364.006 469.5 363.656C469.481 363.307 469.453 362.957 469.416 362.609C469.379 362.261 469.334 361.914 469.281 361.567C469.227 361.221 469.165 360.876 469.093 360.532C469.023 360.189 468.944 359.848 468.857 359.509C468.769 359.169 468.674 358.832 468.57 358.497C468.466 358.163 468.354 357.831 468.233 357.501C468.114 357.172 467.985 356.846 467.849 356.523C467.713 356.2 467.57 355.881 467.418 355.565C467.266 355.249 467.107 354.938 466.94 354.63C466.773 354.321 466.598 354.017 466.416 353.718C466.235 353.418 466.046 353.123 465.849 352.833C465.653 352.542 465.449 352.257 465.239 351.976C465.028 351.696 464.812 351.421 464.588 351.151C464.365 350.882 464.134 350.618 463.898 350.359C463.661 350.101 463.417 349.849 463.168 349.602C462.919 349.355 462.664 349.115 462.403 348.881C462.143 348.647 461.877 348.419 461.605 348.198C461.333 347.977 461.055 347.763 460.772 347.555C460.49 347.348 460.203 347.148 459.911 346.955C459.619 346.762 459.322 346.575 459.021 346.396C458.719 346.217 458.414 346.046 458.104 345.883C457.793 345.719 457.479 345.562 457.162 345.413C456.845 345.265 456.524 345.124 456.2 344.991C455.875 344.859 455.548 344.734 455.217 344.617C454.887 344.501 454.555 344.392 454.219 344.292C453.883 344.191 453.545 344.099 453.204 344.014C452.864 343.93 452.522 343.855 452.178 343.788C451.834 343.721 451.489 343.663 451.141 343.612C450.795 343.562 450.447 343.52 450.098 343.487C449.75 343.453 449.4 343.429 449.049 343.413C448.699 343.397 448.349 343.389 447.998 343.39C447.648 343.391 447.298 343.401 446.949 343.419C446.599 343.437 446.249 343.464 445.9 343.499Z"/>
<path d="M307.868 160.922C314.18 149.378 325.137 142.379 338.383 141.407C365.397 140.729 379.296 163.637 373.257 188.734C414.293 213.091 434.433 262.6 399.179 302.236C367.013 338.401 313.917 349.252 267.45 351.999L267.188 352.41C254.002 372.695 223.846 380.911 218.815 351.522C169.037 343.148 104.475 321.883 92.2064 266.439C90.9658 260.832 91.0436 251.327 99.4114 253.358C105.872 254.926 105.245 263.841 106.834 269.035C119.079 309.068 166.614 325.428 203.432 334.912C209.612 335.503 215.868 337.028 222.018 337.996C227.712 324.957 239.052 314.123 254.118 314.668C284.093 288.897 311.37 245.754 324.629 209.411C310.668 202.398 304.163 189.58 303.971 174.059C242.847 161.345 148.677 172.466 111.744 227.361C109.619 230.519 102.466 248.34 95.1547 238.468C91.782 233.915 95.8202 227.757 98.167 223.751C128.751 171.533 208.683 153.734 264.046 155.76C278.822 156.3 293.346 158.264 307.868 160.922ZM336.134 155.141C335.779 155.196 335.425 155.259 335.073 155.331C334.72 155.403 334.37 155.484 334.022 155.573C333.674 155.662 333.327 155.759 332.983 155.864C332.64 155.971 332.299 156.085 331.961 156.207C331.624 156.33 331.289 156.461 330.957 156.599C330.625 156.738 330.298 156.885 329.974 157.04C329.649 157.195 329.328 157.357 329.012 157.528C328.695 157.699 328.383 157.877 328.075 158.063C327.768 158.248 327.465 158.441 327.166 158.642C326.868 158.842 326.574 159.05 326.286 159.265C325.998 159.48 325.715 159.702 325.438 159.93C325.16 160.159 324.888 160.394 324.622 160.636C324.357 160.878 324.097 161.126 323.842 161.381C323.589 161.635 323.341 161.895 323.1 162.162C322.859 162.429 322.625 162.701 322.397 162.979C322.169 163.257 321.948 163.54 321.734 163.829C321.52 164.118 321.313 164.412 321.114 164.711C320.914 165.01 320.721 165.314 320.536 165.622C320.352 165.93 320.175 166.243 320.005 166.56C319.835 166.877 319.673 167.198 319.519 167.523C319.365 167.848 319.219 168.176 319.082 168.508C318.944 168.84 318.814 169.175 318.693 169.514C318.57 169.852 318.457 170.193 318.352 170.537C318.248 170.881 318.151 171.227 318.062 171.575C317.974 171.924 317.895 172.274 317.824 172.626C317.753 172.979 317.691 173.333 317.637 173.689C317.583 174.044 317.538 174.401 317.502 174.758C317.466 175.116 317.439 175.474 317.419 175.833C317.401 176.192 317.391 176.552 317.389 176.911C317.388 177.271 317.396 177.63 317.412 177.989C317.428 178.348 317.453 178.707 317.487 179.064C317.521 179.422 317.563 179.779 317.614 180.135C317.665 180.491 317.725 180.845 317.794 181.199C317.862 181.551 317.939 181.902 318.025 182.251C318.11 182.6 318.204 182.947 318.306 183.292C318.409 183.637 318.52 183.979 318.639 184.318C318.758 184.657 318.885 184.993 319.02 185.326C319.156 185.659 319.3 185.989 319.451 186.314C319.603 186.64 319.763 186.962 319.931 187.28C320.097 187.598 320.272 187.912 320.456 188.222C320.638 188.531 320.828 188.836 321.026 189.137C321.223 189.438 321.428 189.733 321.64 190.024C321.852 190.314 322.07 190.599 322.296 190.879C322.522 191.158 322.755 191.432 322.993 191.7C323.233 191.969 323.478 192.231 323.73 192.487C323.982 192.744 324.241 192.994 324.505 193.238C324.769 193.482 325.039 193.719 325.315 193.949C325.59 194.18 325.872 194.404 326.159 194.62C326.445 194.837 326.737 195.047 327.034 195.25C327.331 195.452 327.633 195.648 327.939 195.836C328.246 196.023 328.557 196.204 328.872 196.377C329.187 196.55 329.506 196.715 329.829 196.872C330.153 197.029 330.48 197.178 330.81 197.319C331.14 197.46 331.475 197.593 331.812 197.718C332.149 197.844 332.489 197.961 332.831 198.069C333.175 198.177 333.52 198.277 333.867 198.369C334.215 198.46 334.564 198.543 334.916 198.617C335.268 198.692 335.622 198.757 335.977 198.814C336.331 198.872 336.687 198.921 337.044 198.96C337.402 199 337.76 199.032 338.119 199.054C338.477 199.077 338.836 199.09 339.196 199.094C339.556 199.099 339.915 199.096 340.274 199.083C340.633 199.071 340.992 199.049 341.35 199.019C341.708 198.989 342.066 198.95 342.422 198.902C342.783 198.854 343.143 198.797 343.501 198.732C343.859 198.665 344.215 198.59 344.569 198.507C344.923 198.423 345.275 198.331 345.625 198.231C345.975 198.129 346.322 198.02 346.666 197.902C347.011 197.784 347.353 197.657 347.691 197.522C348.029 197.387 348.364 197.243 348.694 197.092C349.026 196.941 349.353 196.781 349.676 196.613C349.999 196.446 350.318 196.27 350.632 196.087C350.946 195.904 351.256 195.712 351.561 195.513C351.866 195.315 352.167 195.109 352.461 194.895C352.756 194.682 353.046 194.461 353.33 194.234C353.614 194.006 353.892 193.771 354.164 193.529C354.437 193.287 354.703 193.039 354.962 192.785C355.223 192.53 355.476 192.269 355.723 192.002C355.971 191.735 356.212 191.461 356.445 191.182C356.679 190.903 356.906 190.618 357.126 190.327C357.345 190.038 357.558 189.742 357.763 189.441C357.968 189.14 358.165 188.835 358.355 188.524C358.545 188.214 358.727 187.899 358.902 187.579C359.076 187.259 359.242 186.935 359.401 186.608C359.559 186.28 359.709 185.948 359.851 185.614C359.993 185.278 360.127 184.939 360.253 184.598C360.377 184.255 360.494 183.911 360.603 183.563C360.711 183.216 360.811 182.866 360.902 182.513C360.992 182.161 361.074 181.806 361.148 181.45C361.222 181.093 361.286 180.735 361.341 180.375C361.397 180.015 361.444 179.654 361.482 179.291C361.52 178.93 361.549 178.567 361.569 178.204C361.589 177.84 361.6 177.476 361.602 177.112C361.604 176.748 361.597 176.384 361.581 176.02C361.565 175.657 361.54 175.294 361.506 174.932C361.472 174.568 361.43 174.207 361.378 173.847C361.326 173.486 361.265 173.127 361.196 172.771C361.126 172.413 361.048 172.057 360.961 171.703C360.874 171.35 360.778 170.999 360.673 170.65C360.569 170.302 360.456 169.956 360.334 169.613C360.213 169.27 360.083 168.929 359.945 168.592C359.807 168.255 359.66 167.922 359.505 167.592C359.351 167.263 359.188 166.938 359.017 166.617C358.846 166.294 358.668 165.977 358.481 165.665C358.294 165.352 358.1 165.044 357.898 164.741C357.696 164.438 357.487 164.14 357.27 163.848C357.054 163.555 356.831 163.267 356.6 162.985C356.37 162.704 356.132 162.428 355.888 162.158C355.643 161.888 355.393 161.625 355.136 161.367C354.878 161.109 354.614 160.858 354.345 160.613C354.075 160.369 353.8 160.131 353.518 159.9C353.237 159.669 352.95 159.445 352.657 159.228C352.365 159.012 352.067 158.802 351.764 158.601C351.461 158.399 351.154 158.204 350.841 158.017C350.528 157.83 350.212 157.651 349.891 157.481C349.569 157.309 349.244 157.146 348.914 156.991C348.585 156.836 348.252 156.689 347.916 156.55C347.578 156.411 347.239 156.281 346.896 156.16C346.553 156.037 346.207 155.924 345.858 155.819C345.509 155.715 345.158 155.618 344.804 155.53C344.451 155.443 344.096 155.365 343.738 155.296C343.382 155.225 343.023 155.164 342.662 155.112C342.302 155.06 341.941 155.016 341.578 154.982C341.216 154.948 340.853 154.923 340.488 154.906C340.125 154.89 339.761 154.882 339.397 154.884C339.033 154.885 338.669 154.896 338.305 154.916C337.942 154.936 337.579 154.964 337.217 155.002C336.855 155.039 336.494 155.086 336.134 155.141ZM366.439 199.894C358.802 207.574 349.431 212.794 338.383 212.157C321.34 251.449 307.826 278.078 277.54 310.881C274.118 314.586 270.318 317.77 267.45 321.971C270.834 328.492 271.563 331.336 271.474 338.801C281.628 337.962 291.666 336.76 301.686 334.912C335.281 328.464 375.15 314.657 395.375 285.088C415.052 256.32 399.954 227.685 376.161 207.44C373.107 204.84 369.949 201.858 366.439 199.894ZM250.518 328.109C244.546 330.369 239.177 333.912 236.307 339.805C239.045 339.79 241.816 339.673 244.55 339.805C248.834 339.943 253.099 339.887 257.385 339.805C258.098 334.079 258.312 327.321 250.518 328.109ZM232.071 352.577C233.457 355.436 235.383 356.408 238.251 357.402L238.383 357.447C240.941 356.862 243.315 356.241 245.618 354.941C246.775 354.167 247.95 353.415 249.06 352.577C243.393 352.77 237.711 352.317 232.071 352.577Z"/>
<path d="M135.358 265.702C122.394 265.215 123.191 229.695 135.358 227.688C146.071 228.446 140.078 239.538 139.653 245.802C139.315 250.762 141.122 255.531 141.542 260.431C140.227 263.386 138.484 264.756 135.358 265.702Z"/>
<path d="M164.857 300.302C156.38 300.555 129.684 278.884 147.269 273.768C151.146 273.662 153.109 276.684 155.75 279.101C160.827 283.75 180.296 294.463 164.857 300.302Z"/>
<path d="M206.201 321.971C201.325 321.147 179.6 313.758 177.925 307.927C176.579 303.242 179.369 300.13 183.674 298.87C188.551 299.676 192.886 302.638 197.395 304.512C202.479 306.625 214.689 308.176 211.667 316.459C210.71 319.085 208.697 320.854 206.201 321.971Z"/>
</svg>
