<svg viewBox="0 0 512 512" xmlns="http://www.w3.org/2000/svg">
<g>
<path d="M264.276 191.281C167.663 199.66 129.476 13.0653 249.94 0.337748C290.978 -3.6627 329.771 28.4036 336.544 68.4247C344.721 116.754 317.456 182.612 264.276 191.281ZM249.94 17.5009C219.818 20.7203 192.822 45.4868 191.359 76.6592C219.691 77.0117 248.97 64.3612 267.402 42.6427C270.143 39.446 272.864 36.2418 275.516 32.9694C283.394 48.9982 303.917 66.3612 320.851 72.5079C313.265 41.8408 283.244 10.82 249.94 17.5009ZM274.194 59.6971C251.989 81.7908 222.553 93.228 191.359 93.4792C194.453 120.068 211.216 165.981 241.663 171.615C248.754 175.927 258.464 175.827 266.329 173.927C300.276 165.724 320.388 122.355 320.851 90.1887C303.246 85.0404 286.521 73.1918 274.194 59.6971Z" />
<path d="M91.1004 371.291L50.0234 371.305C41.5075 371.303 31.8615 372.196 23.5741 370.344C4.42195 366.064 -6.51389 345.073 -0.213145 326.875C3.38186 316.492 13.7242 299.09 18.9582 288.321L44.0143 236.654C47.3441 229.883 50.152 222.704 53.9386 216.184C74.456 180.845 114.45 158.022 154.758 155.131C161.905 154.662 185.38 152.512 184.639 163.39C183.917 173.993 172.613 171.553 165.373 171.376C137.364 170.689 108.739 182.414 88.1277 201.058C73.2956 214.474 67.8297 225.276 59.453 242.686L43.4515 275.896C38.326 286.509 15.2717 329.388 15.0433 336.929C14.4192 357.548 35.1217 354.772 48.0355 354.755L88.3198 354.736C88.0747 341.645 86.2548 328.468 84.8765 315.453C80.6088 315.568 74.0157 316.491 70.5422 313.672C59.3153 304.565 73.0914 298.914 82.993 298.733C82.5074 287.768 80.9174 276.936 79.9522 266.019C79.1095 256.492 84.1625 254.665 91.8463 250.694C143.161 224.173 207.106 236.754 248.549 275.395C249.006 279.464 248.614 283.866 248.59 287.966L248.53 415.028C248.493 420.065 248.247 425.112 248.549 430.144C252.227 434.796 260.979 437.949 263.45 430.775C265.215 425.646 264.289 405.934 264.288 399.53L264.273 293.665C264.282 274.789 262.521 275.542 278.911 263.787C322.197 232.747 368.682 228.871 417.404 248.672C431.98 254.595 433.666 253.533 432.042 269.861C431.06 279.742 429.139 290.058 429.472 299.964C433.392 300.211 438.608 300.034 441.473 303.212C449.67 312.303 436.475 317.368 427.195 316.595C426.299 329.277 425.289 342.122 423.703 354.736L461.466 354.748C468.597 354.749 476.036 355.152 483.122 354.426C492.131 353.503 500.641 343.295 497.864 334.25C494.013 321.716 474.327 286.952 467.523 273.97C459.364 257.707 450.936 236.858 441.113 221.855C401.413 161.22 338.608 176.14 331.08 170.235C327.513 167.438 326.838 161.512 329.999 158.16C333.257 154.703 340.933 155.228 345.375 155.17C404.175 154.411 443.363 186.868 467.938 236.75L501.531 303.117C505.355 310.554 509.523 317.998 512.655 325.755C519.926 343.768 508.437 365.466 489.829 370.221C481.293 372.401 471.018 371.298 462.218 371.295L421.899 371.291C420.985 384.367 423.545 412.832 410.841 417.908C373.834 410.339 338.664 413.356 303.769 428.28C294.233 432.357 285.404 438.04 275.887 442.071L275.518 442.224C271.946 450.613 263.155 452.448 254.71 452.592C238.804 452.864 241.496 447.521 233.543 440.186C214.51 422.633 148.518 412.643 124.253 413.842C98.9703 415.09 95.3501 425.704 92.5921 394.383C91.9219 386.769 90.8039 378.938 91.1004 371.291ZM145.391 252.97C128.727 253.411 110.848 258.657 96.5225 267.087C96.8735 279.497 98.7963 292.029 100.079 304.388L105.886 362.96C107.06 374.538 109.14 386.725 108.752 398.344C140.656 398.097 163.494 394.976 196.132 406.14C208.374 410.258 220.981 414.421 232.194 420.943V283.601C206.751 265.102 178.25 249.445 145.391 252.97ZM350.519 252.97C329.861 255.435 295.9 267.707 281.079 283.601V420.943C296.796 412.043 313.288 406.589 330.699 402.059C347.215 398.147 364.35 396.999 381.29 397.504C388.711 397.725 396.05 398.952 403.481 398.344C402.964 391.728 403.761 385.124 404.34 378.534L411.83 300.684C412.973 289.491 414.402 278.296 415.352 267.087C399.355 256.698 369.319 251.32 350.519 252.97Z" />
<path d="M397.017 512C393.746 511.929 389.469 510.592 388.635 506.97C387.59 502.424 387.646 450.148 388.301 444.088C388.771 439.734 391.136 437.462 395.443 436.844C398.994 436.685 402.321 437.431 403.555 441.274C404.706 444.858 404.734 494.392 404.169 504.516C403.93 508.826 400.941 510.776 397.017 512Z" />
<path d="M107.317 506.79C106.37 496.744 106.894 445.402 107.966 441.825C108.724 439.295 110.55 438.048 112.765 436.844C116.434 436.448 120.691 436.974 122.573 440.66C124.773 444.962 123.889 503.346 123.039 505.708C122.118 508.265 120.066 509.579 117.689 510.626C113.429 511.452 110.355 509.755 107.317 506.79Z" />
<path d="M295.941 467.924C279.569 484.098 253.736 489.036 232.917 478.72C223.669 474.138 195.702 452.344 218.112 447.487C224.046 448.487 227.106 454.614 231.395 458.363C261.967 485.091 285.643 450.064 292.791 449.755C305.873 449.192 303.091 460.524 295.941 467.924Z" />
</g>
</svg>
