<svg viewBox="0 0 24 24" xmlns="http://www.w3.org/2000/svg">
<path d="M24 7.03125V22.5938H16.8483C14.883 22.5938 13.8495 23.9263 13.7442 24H10.2558C10.149 23.9253 9.13022 22.5938 7.15172 22.5938H0V5.625H1.40625V21.1875H7.15781C9.35541 21.1875 10.5787 22.4274 10.8834 22.5938H13.1166C13.4212 22.4274 14.6448 21.1875 16.8422 21.1875H22.5938V7.03125H24Z M9.88734 20.3423C9.03328 19.973 8.10938 19.7812 7.15781 19.7812H2.8125V2.8125H4.21875V16.9688H6.32812C8.24438 16.9688 9.81187 18.4692 9.88734 20.3423ZM16.8422 4.21875C15.3528 4.21875 13.9183 4.60894 12.6537 5.35505C12.6867 5.67836 12.7032 6.00314 12.7031 6.32812V21.158C12.8095 21.0806 12.9177 21.0058 13.0276 20.9335C15.1987 19.4855 16.6946 19.7812 21.1875 19.7812V4.21875H16.8422Z M11.2969 20.4844C11.2969 17.7705 9.06792 15.5625 6.32812 15.5625H5.625V0C9.1402 0 11.2969 2.8388 11.2969 6.32812V20.4844Z" />
</svg>
