<svg viewBox="0 0 24 24" xmlns="http://www.w3.org/2000/svg">
<path d="M12 0C12.6025 0 13.0909 0.488435 13.0909 1.09089V3.27272C13.0909 3.87522 12.6025 4.36361 12 4.36361C11.3975 4.36361 10.9091 3.87517 10.9091 3.27272V1.09089C10.9091 0.488435 11.3975 0 12 0ZM12 5.9478C8.65761 5.9478 5.94805 8.65731 5.94805 11.9998C5.94805 15.3421 8.65761 18.0517 12 18.0517C15.3424 18.0517 18.0519 15.3421 18.0519 11.9998C18.0519 8.65731 15.3424 5.9478 12 5.9478ZM5.08307 3.54006C4.65704 3.11403 3.96631 3.11403 3.54031 3.54006C3.11428 3.96609 3.11428 4.65682 3.54031 5.08286L5.09876 6.6413C5.52479 7.06733 6.21552 7.06733 6.64151 6.6413C7.06754 6.21527 7.06754 5.52453 6.64151 5.0985L5.08307 3.54006ZM0 12C0 11.3975 0.488435 10.9091 1.09089 10.9091H3.27272C3.87522 10.9091 4.36361 11.3975 4.36361 12C4.36361 12.6025 3.87522 13.0909 3.27272 13.0909H1.09089C0.488435 13.0909 0 12.6025 0 12ZM6.64151 18.9013C7.06754 18.4753 7.06754 17.7847 6.64151 17.3585C6.21548 16.9325 5.52475 16.9325 5.09876 17.3585L3.54031 18.917C3.11428 19.343 3.11428 20.0338 3.54031 20.4598C3.96635 20.8858 4.65704 20.8858 5.08307 20.4598L6.64151 18.9013ZM12 19.6363C12.6025 19.6363 13.0909 20.1247 13.0909 20.7272V22.9091C13.0909 23.5116 12.6025 24 12 24C11.3975 24 10.9091 23.5116 10.9091 22.9091V20.7272C10.9091 20.1247 11.3975 19.6363 12 19.6363ZM18.9013 17.3585C18.4752 16.9325 17.7845 16.9325 17.3585 17.3585C16.9324 17.7847 16.9324 18.4753 17.3585 18.9013L18.9169 20.4598C19.343 20.8858 20.0337 20.8858 20.4596 20.4598C20.8858 20.0338 20.8858 19.343 20.4596 18.917L18.9013 17.3585ZM19.6363 12C19.6363 11.3975 20.1247 10.9091 20.7272 10.9091H22.9091C23.5116 10.9091 24 11.3975 24 12C24 12.6025 23.5116 13.0909 22.9091 13.0909H20.7272C20.1247 13.0909 19.6363 12.6025 19.6363 12ZM20.4597 5.08281C20.8858 4.65678 20.8858 3.96605 20.4597 3.54002C20.0337 3.11398 19.343 3.11398 18.9169 3.54002L17.3586 5.09846C16.9325 5.52449 16.9325 6.21522 17.3586 6.64126C17.7846 7.06729 18.4752 7.06729 18.9013 6.64126L20.4597 5.08281Z" />
</svg>
