<svg viewBox="0 0 20 20" xmlns="http://www.w3.org/2000/svg">
<path d="M12.8126 5.7811H16.7195C16.6621 5.69903 16.5974 5.62227 16.5263 5.55173L12.2501 1.28298C12.1831 1.2159 12.1106 1.15464 12.0332 1.09985V4.99985C12.0332 5.20673 12.1153 5.40516 12.2614 5.55162C12.4075 5.69808 12.6057 5.78061 12.8126 5.7811Z M17.0306 6.71872H12.8125C12.3567 6.71872 11.9195 6.53764 11.5972 6.21531C11.2748 5.89298 11.0938 5.45581 11.0938 4.99997V0.782471H4.6875C4.46185 0.782307 4.23838 0.82661 4.02986 0.912849C3.82134 0.999088 3.63185 1.12557 3.47224 1.28507C3.31262 1.44457 3.186 1.63397 3.09961 1.84242C3.01322 2.05088 2.96875 2.27432 2.96875 2.49997V17.5C2.96859 17.7257 3.01293 17.9493 3.09925 18.1579C3.18556 18.3665 3.31216 18.556 3.47179 18.7157C3.63143 18.8753 3.82097 19.0019 4.02957 19.0882C4.23817 19.1745 4.46174 19.2189 4.6875 19.2187H15.3125C15.5383 19.2189 15.7618 19.1745 15.9704 19.0882C16.179 19.0019 16.3686 18.8753 16.5282 18.7157C16.6878 18.556 16.8144 18.3665 16.9008 18.1579C16.9871 17.9493 17.0314 17.7257 17.0312 17.5V6.76872L17.0306 6.71872ZM10 16.0481C9.02399 16.0476 8.0881 15.6597 7.39795 14.9695C6.70781 14.2794 6.31987 13.3435 6.31938 12.3675C6.31938 12.2432 6.36876 12.1239 6.45667 12.036C6.54458 11.9481 6.66381 11.8987 6.78813 11.8987C6.91245 11.8987 7.03167 11.9481 7.11958 12.036C7.20749 12.1239 7.25688 12.2432 7.25688 12.3675C7.25731 12.9563 7.44727 13.5294 7.79864 14.0019C8.15001 14.4744 8.64415 14.8213 9.20794 14.9913C9.77174 15.1612 10.3753 15.1451 10.9292 14.9455C11.4832 14.7458 11.9582 14.3732 12.284 13.8827C12.6097 13.3921 12.769 12.8098 12.7381 12.2217C12.7073 11.6337 12.488 11.0712 12.1126 10.6175C11.7373 10.1637 11.2259 9.84282 10.6541 9.70223C10.0823 9.56165 9.48042 9.60885 8.9375 9.83685L9.82438 10.1531C9.88236 10.1738 9.9357 10.2058 9.98134 10.2471C10.027 10.2884 10.064 10.3384 10.0904 10.394C10.1167 10.4497 10.1319 10.51 10.1349 10.5715C10.1379 10.633 10.1288 10.6945 10.1081 10.7525C10.0874 10.8105 10.0555 10.8638 10.0141 10.9094C9.97278 10.9551 9.92286 10.9921 9.8672 11.0185C9.81155 11.0448 9.75125 11.06 9.68974 11.063C9.62824 11.066 9.56674 11.0569 9.50875 11.0362L7.42688 10.2925C7.36028 10.2686 7.29995 10.23 7.25038 10.1795C7.20082 10.129 7.1633 10.068 7.14064 10.001C7.11798 9.93396 7.11077 9.86269 7.11953 9.79249C7.12829 9.72229 7.15281 9.65499 7.19125 9.5956L8.39625 7.74185C8.42961 7.68989 8.47288 7.64502 8.52359 7.60979C8.5743 7.57455 8.63145 7.54966 8.69178 7.53651C8.7521 7.52337 8.81443 7.52223 8.8752 7.53317C8.93597 7.54412 8.99398 7.56692 9.04594 7.60028C9.09789 7.63365 9.14277 7.67692 9.178 7.72762C9.21323 7.77833 9.23813 7.83548 9.25127 7.89581C9.26442 7.95614 9.26555 8.01847 9.25461 8.07923C9.24367 8.14 9.22086 8.19802 9.1875 8.24997L8.76688 8.89685C9.27215 8.71787 9.81042 8.65141 10.3441 8.70209C10.8777 8.75278 11.3938 8.91939 11.8564 9.19029C12.3189 9.46119 12.7167 9.82983 13.022 10.2705C13.3272 10.7111 13.5326 11.2131 13.6237 11.7413C13.7148 12.2695 13.6894 12.8113 13.5493 13.3287C13.4093 13.8461 13.1579 14.3267 12.8128 14.7369C12.4677 15.1471 12.0372 15.4769 11.5513 15.7034C11.0655 15.9299 10.536 16.0475 10 16.0481Z" />
</svg>
