<svg viewBox="0 0 16 16" xmlns="http://www.w3.org/2000/svg">
<path d="M9.29813 0.585849C9.11253 0.497315 8.89387 0.520782 8.73387 0.649849L3.5456 4.80025H1.06667C0.478933 4.80025 0 5.27918 0 5.86692V10.1336C0 10.7224 0.478933 11.2002 1.06667 11.2002H3.5456L8.7328 15.3506C8.82784 15.4259 8.94547 15.4668 9.06667 15.4669C9.1456 15.4669 9.22453 15.4488 9.29813 15.4136C9.38857 15.3702 9.4649 15.3021 9.51831 15.2171C9.57172 15.1322 9.60003 15.0339 9.6 14.9336V1.06692C9.59991 0.966478 9.57155 0.868095 9.51817 0.78302C9.46479 0.697945 9.38853 0.629615 9.29813 0.585849ZM12.2997 4.22852C12.0896 4.02158 11.7525 4.02478 11.5456 4.23278C11.3387 4.44292 11.3408 4.77998 11.5499 4.98798C12.3563 5.78372 12.8 6.85358 12.8 8.00025C12.8 9.14692 12.3563 10.2168 11.5499 11.0125C11.3408 11.2184 11.3387 11.5565 11.5456 11.7666C11.5951 11.8167 11.6541 11.8565 11.7191 11.8836C11.7841 11.9107 11.8538 11.9246 11.9243 11.9245C12.0597 11.9245 12.1952 11.8733 12.2997 11.7698C13.3109 10.7746 13.8667 9.43492 13.8667 8.00025C13.8667 6.56558 13.3109 5.22585 12.2997 4.22852Z M13.8047 2.72561C13.5946 2.51761 13.2575 2.51974 13.0495 2.72881C12.8426 2.93787 12.8447 3.27601 13.0527 3.48294C14.2655 4.68507 14.9332 6.28934 14.9332 8.00027C14.9332 9.71121 14.2655 11.3144 13.0527 12.5165C12.8447 12.7245 12.8426 13.0627 13.0495 13.2717C13.1551 13.3763 13.2916 13.4285 13.4282 13.4285C13.5636 13.4285 13.7002 13.3773 13.8047 13.2739C15.2212 11.8712 15.9999 9.99814 15.9999 8.00027C15.9999 6.00241 15.2212 4.12934 13.8047 2.72561Z" />
</svg>
