<svg viewBox="0 0 24 24" xmlns="http://www.w3.org/2000/svg">
<path d="M11.5781 9.84375C11.1898 9.84375 10.875 10.1586 10.875 10.5469C10.875 10.9352 11.1898 11.25 11.5781 11.25H12.75V12.4219C12.75 12.8102 13.0648 13.125 13.4531 13.125C13.8414 13.125 14.1562 12.8102 14.1562 12.4219V10.8381L15.5625 9.43186V11.0156C15.5625 11.4039 15.8773 11.7188 16.2656 11.7188C16.6539 11.7188 16.9688 11.4039 16.9688 11.0156V9.43186L18.375 10.8381V12.4219C18.375 12.8102 18.6898 13.125 19.0781 13.125C19.4664 13.125 19.7812 12.8102 19.7812 12.4219V11.25H20.9531C21.3414 11.25 21.6562 10.9352 21.6562 10.5469C21.6562 10.1586 21.3414 9.84375 20.9531 9.84375H19.3694L17.9631 8.4375H19.5469C19.9352 8.4375 20.25 8.12269 20.25 7.73438C20.25 7.34606 19.9352 7.03125 19.5469 7.03125H17.9631L19.3694 5.625H20.9531C21.3414 5.625 21.6562 5.31019 21.6562 4.92188C21.6562 4.53356 21.3414 4.21875 20.9531 4.21875H19.7812V3.04688C19.7812 2.65856 19.4664 2.34375 19.0781 2.34375C18.6898 2.34375 18.375 2.65856 18.375 3.04688V4.63064L16.9688 6.03689V4.45312C16.9688 4.06481 16.6539 3.75 16.2656 3.75C15.8773 3.75 15.5625 4.06481 15.5625 4.45312V6.03689L14.1562 4.63064V3.04688C14.1562 2.65856 13.8414 2.34375 13.4531 2.34375C13.0648 2.34375 12.75 2.65856 12.75 3.04688V4.21875H11.5781C11.1898 4.21875 10.875 4.53356 10.875 4.92188C10.875 5.31019 11.1898 5.625 11.5781 5.625H13.1619L14.5681 7.03125H12.9844C12.5961 7.03125 12.2812 7.34606 12.2812 7.73438C12.2812 8.12269 12.5961 8.4375 12.9844 8.4375H14.5681L13.1619 9.84375H11.5781Z M23.5901 13.3562C23.4478 13.2909 23.2878 13.275 23.1354 13.3109C22.983 13.3469 22.847 13.4326 22.7489 13.5546C21.0769 15.6341 18.5896 16.8266 15.9247 16.8267C11.0992 16.8267 7.17347 12.9009 7.17347 8.07537C7.17347 5.41048 8.36611 2.92319 10.4455 1.2513C10.5675 1.15319 10.6533 1.01716 10.6893 0.864776C10.7252 0.712392 10.7092 0.552372 10.6439 0.410078C10.5786 0.267785 10.4677 0.151359 10.3287 0.0792526C10.1898 0.00714676 10.0307 -0.0165134 9.87675 0.0120223C4.15378 1.07346 0 6.07498 0 11.9044C0 15.1353 1.25817 18.1728 3.54277 20.4573C5.82731 22.7419 8.86481 24.0001 12.0957 24.0001C17.9251 24.0001 22.9266 19.8464 23.9881 14.1234C24.0167 13.9695 23.9931 13.8104 23.921 13.6714C23.8489 13.5324 23.7324 13.4215 23.5901 13.3562Z" />
</svg>
