<?xml version="1.0" standalone="no"?>
<!DOCTYPE svg PUBLIC "-//W3C//DTD SVG 20010904//EN"
 "http://www.w3.org/TR/2001/REC-SVG-20010904/DTD/svg10.dtd">
<svg version="1.0" xmlns="http://www.w3.org/2000/svg"
 width="1040.000000pt" height="1040.000000pt" viewBox="0 0 1040.000000 1040.000000"
 preserveAspectRatio="xMidYMid meet">
<metadata>
Created by potrace 1.14, written by Peter Selinger 2001-2017
</metadata>
<g transform="translate(0.000000,1040.000000) scale(0.100000,-0.100000)"
fill="#000000" stroke="none">
<path d="M4667 8695 c-117 -40 -208 -104 -274 -192 -15 -21 -32 -41 -36 -44
-5 -3 -8 -9 -8 -13 1 -7 -40 -86 -69 -131 -10 -16 -27 -46 -38 -65 -48 -86
-65 -115 -71 -120 -3 -3 -21 -34 -40 -70 -19 -36 -37 -67 -40 -70 -4 -3 -12
-16 -19 -30 -7 -14 -18 -34 -25 -45 -7 -11 -28 -47 -47 -80 -19 -33 -41 -69
-47 -80 -7 -11 -19 -33 -27 -50 -8 -16 -24 -42 -36 -57 -12 -16 -19 -28 -16
-28 3 0 -12 -28 -34 -62 -22 -33 -40 -67 -40 -74 0 -7 -4 -14 -8 -16 -5 -1
-52 -79 -106 -173 -91 -159 -116 -216 -141 -325 -35 -153 -21 -347 36 -499 20
-54 252 -513 272 -538 5 -7 6 -13 2 -13 -4 0 -3 -6 3 -12 10 -13 70 -128 302
-583 67 -132 125 -243 129 -247 3 -4 36 50 72 120 36 70 96 186 134 257 37 72
96 184 130 250 34 66 91 174 126 240 132 253 231 442 262 505 17 36 34 67 37
70 3 3 39 73 80 155 41 83 78 152 81 155 3 3 17 28 31 55 25 49 125 244 218
420 26 50 80 153 120 230 40 77 92 177 116 222 24 45 63 119 85 165 23 46 46
85 51 86 4 2 8 11 8 21 0 9 4 21 9 27 8 8 96 176 215 409 23 44 43 82 46 85 8
8 80 154 80 163 0 4 -327 7 -727 6 l-728 -1 -68 -23z"/>
<path d="M6884 8663 c-15 -27 -43 -75 -62 -108 -19 -33 -46 -80 -60 -104 -14
-25 -38 -68 -55 -95 -16 -28 -43 -76 -60 -106 -17 -30 -38 -66 -49 -79 -10
-13 -18 -28 -18 -33 0 -6 -8 -22 -19 -36 -10 -15 -29 -47 -43 -72 -14 -25 -36
-63 -49 -86 -13 -23 -62 -107 -109 -188 -47 -81 -100 -173 -118 -204 -18 -31
-36 -65 -39 -74 -3 -10 -9 -18 -14 -18 -5 0 -9 -4 -9 -9 0 -5 -27 -56 -61
-113 -34 -57 -71 -121 -84 -143 -64 -113 -135 -236 -163 -282 -17 -29 -28 -53
-24 -53 4 0 2 -4 -3 -8 -13 -9 -57 -97 -85 -172 -32 -82 -70 -247 -75 -331 -3
-41 -7 -83 -8 -94 -2 -11 0 -32 4 -47 5 -17 4 -28 -2 -28 -6 0 -8 -4 -4 -9 3
-6 8 -29 10 -53 7 -59 18 -131 21 -143 4 -16 14 -53 19 -75 2 -12 14 -49 26
-83 76 -216 218 -420 394 -563 52 -42 159 -116 185 -127 8 -4 32 -17 52 -29
20 -13 110 -66 200 -117 90 -52 165 -99 166 -103 2 -4 8 -6 13 -2 5 3 9 0 9
-5 0 -6 4 -11 9 -11 8 0 47 -22 129 -71 15 -9 48 -27 74 -42 46 -26 107 -62
143 -84 11 -7 38 -22 60 -34 22 -12 48 -28 58 -37 9 -8 17 -12 17 -8 0 4 19
-6 43 -22 23 -16 66 -42 95 -58 78 -42 88 -49 103 -60 8 -6 39 -25 69 -41 30
-16 86 -48 124 -71 37 -23 70 -42 73 -42 2 0 29 -16 59 -35 30 -19 56 -35 58
-35 2 0 92 -52 200 -115 108 -63 201 -115 206 -115 6 0 10 -4 10 -10 0 -5 5
-10 11 -10 6 0 30 -13 54 -30 24 -16 47 -30 51 -30 4 0 30 -14 58 -32 28 -17
65 -39 81 -48 17 -10 86 -50 155 -90 69 -40 135 -78 147 -84 13 -6 23 -14 23
-18 0 -5 5 -8 11 -8 7 0 35 -14 63 -32 28 -17 65 -39 81 -48 204 -117 252
-145 266 -157 9 -7 19 -10 22 -6 4 3 7 1 7 -5 0 -7 4 -12 10 -12 8 0 62 -30
160 -90 100 -60 458 -266 467 -268 7 -2 13 -8 13 -13 0 -5 4 -9 10 -9 5 0 39
-18 75 -40 36 -22 68 -40 71 -40 3 0 18 -8 32 -19 15 -10 50 -30 77 -45 28
-15 60 -34 73 -43 21 -15 22 -15 16 3 -4 11 -14 27 -23 38 -9 10 -14 19 -12
20 3 0 -20 44 -51 96 -31 52 -65 111 -76 130 -18 34 -53 93 -178 305 -32 55
-59 103 -59 107 0 4 -6 13 -12 19 -7 7 -13 19 -13 26 0 7 -4 13 -10 13 -5 0
-10 5 -10 11 0 6 -22 48 -49 93 -27 44 -64 108 -81 141 -18 33 -39 67 -46 76
-8 8 -14 18 -14 21 0 4 -20 41 -45 82 -25 42 -45 81 -45 86 0 6 -4 10 -9 10
-5 0 -14 15 -21 33 -8 17 -19 39 -25 47 -7 8 -24 35 -37 60 -39 70 -60 106
-135 235 -38 66 -76 131 -84 145 -8 14 -20 33 -28 43 -8 9 -11 17 -7 17 4 0
-5 16 -20 35 -14 19 -22 35 -18 35 5 0 4 4 -2 8 -6 4 -23 30 -38 57 -15 28
-31 57 -36 65 -12 18 -124 210 -155 265 -12 22 -55 96 -95 165 -40 69 -84 145
-98 170 -14 25 -33 57 -43 71 -10 14 -16 28 -14 31 3 3 -4 13 -15 23 -11 10
-20 22 -20 28 0 5 -20 43 -45 84 -25 40 -45 78 -45 83 0 6 -4 10 -10 10 -5 0
-10 5 -10 10 0 11 -101 188 -132 233 -11 15 -16 27 -12 27 4 0 0 8 -8 18 -8 9
-26 37 -39 62 -13 25 -27 47 -30 50 -3 3 -12 20 -20 38 -8 17 -17 32 -21 32
-5 0 -8 4 -8 9 0 5 -26 54 -58 108 -32 54 -61 105 -65 113 -4 8 -18 33 -32 55
-13 22 -36 60 -50 85 -14 25 -41 72 -60 105 -20 33 -38 67 -42 75 -3 8 -11 22
-18 30 -12 15 -67 113 -89 157 -6 13 -14 23 -18 23 -5 0 -8 4 -8 9 0 8 -80
150 -169 299 -17 29 -31 55 -31 58 0 2 -18 33 -40 68 -22 35 -40 68 -40 75 0
6 -4 11 -10 11 -5 0 -10 4 -10 9 0 5 -19 42 -43 83 -24 40 -55 93 -69 118 -70
124 -319 553 -345 595 -7 11 -20 34 -28 50 -9 17 -21 39 -28 50 -6 12 -43 76
-82 143 -38 67 -73 122 -77 122 -4 0 -19 -21 -34 -47z"/>
<path d="M6 8632 c-3 -3 85 -183 94 -192 3 -3 42 -79 88 -170 112 -222 152
-302 162 -320 5 -8 50 -96 101 -195 50 -99 127 -247 169 -330 43 -82 130 -253
195 -380 65 -126 161 -315 215 -420 110 -215 271 -528 433 -845 60 -118 114
-221 119 -227 6 -7 7 -13 3 -13 -4 0 -2 -6 4 -14 11 -13 75 -137 208 -401 36
-71 73 -138 81 -147 8 -10 12 -18 9 -18 -5 0 31 -74 74 -151 7 -13 14 -26 14
-29 1 -3 11 -25 24 -50 13 -25 22 -45 20 -46 -2 0 2 -8 9 -17 7 -8 43 -73 79
-144 167 -326 223 -438 223 -445 0 -4 -71 -152 -158 -330 -87 -178 -167 -341
-177 -363 -11 -22 -23 -43 -28 -46 -5 -3 -8 -9 -8 -13 0 -3 -36 -81 -80 -173
-45 -93 -85 -177 -90 -188 -5 -11 -13 -27 -18 -35 -9 -13 -241 -487 -277 -565
-8 -16 -18 -37 -23 -45 -10 -16 -176 -358 -191 -393 -6 -12 -14 -29 -19 -37
-5 -8 -28 -53 -51 -100 l-40 -85 712 -3 c482 -1 730 1 765 9 29 5 55 10 58 10
15 -1 112 52 162 88 84 63 123 117 210 291 43 85 78 157 78 160 1 3 9 21 20
40 10 19 20 41 21 49 2 8 8 17 14 21 7 4 12 10 11 13 0 13 42 102 50 105 5 2
9 9 9 15 0 7 42 98 94 202 217 440 300 610 301 615 3 15 101 206 108 208 4 2
7 10 7 18 0 7 13 37 28 66 49 93 93 210 109 293 11 58 10 281 -2 326 -7 27
-11 49 -9 49 3 0 0 9 -6 21 -7 11 -14 33 -16 47 -4 28 -112 245 -349 707 -197
384 -308 601 -344 670 -17 33 -30 63 -29 66 2 4 -4 15 -13 25 -9 11 -42 71
-74 134 -99 197 -160 314 -170 330 -5 8 -10 20 -11 27 -1 7 -12 26 -24 43 -12
16 -18 30 -14 30 3 0 2 6 -4 13 -9 11 -73 136 -322 622 -62 121 -152 297 -200
390 -48 94 -147 287 -220 430 -170 333 -183 357 -244 435 -67 87 -125 140
-222 205 -73 49 -196 110 -241 118 -10 2 -25 7 -33 10 -63 26 -176 30 -758 31
-337 1 -615 0 -616 -2z"/>
<path d="M5485 4205 c-38 -7 -79 -15 -90 -18 -11 -3 -33 -8 -50 -12 -87 -20
-323 -123 -355 -155 -3 -3 -25 -19 -49 -35 -79 -53 -189 -155 -252 -235 -48
-59 -139 -196 -139 -208 0 -5 -7 -15 -15 -22 -8 -7 -13 -16 -10 -20 2 -4 -5
-16 -15 -28 -11 -12 -20 -24 -20 -27 0 -3 -57 -103 -126 -223 -147 -253 -150
-258 -194 -337 -18 -33 -48 -84 -66 -113 -19 -29 -34 -55 -34 -57 0 -3 -11
-22 -23 -43 -21 -33 -41 -68 -96 -165 -9 -16 -21 -36 -26 -45 -6 -9 -45 -78
-88 -152 -43 -74 -82 -142 -87 -150 -50 -82 -130 -224 -130 -231 0 -5 -4 -9
-10 -9 -5 0 -10 -5 -10 -11 0 -6 -22 -49 -50 -96 -27 -47 -50 -89 -50 -94 0
-5 -5 -9 -11 -9 -5 0 -8 -4 -5 -8 3 -5 482 -9 1065 -9 l1059 0 14 26 c7 14 19
32 26 39 6 7 12 18 12 23 0 6 16 35 35 65 19 30 35 57 35 60 0 3 16 31 36 62
21 31 36 59 35 62 0 3 6 13 14 23 8 9 15 20 15 23 0 5 25 39 59 79 23 28 102
94 145 123 56 36 194 92 229 92 13 0 27 3 31 7 19 19 238 4 311 -21 38 -12 57
-21 110 -47 81 -39 187 -100 203 -116 7 -7 18 -13 23 -13 5 0 37 -17 71 -38
35 -21 84 -50 109 -64 83 -46 94 -53 99 -58 3 -3 25 -16 50 -29 25 -14 47 -27
50 -30 3 -3 35 -22 72 -41 37 -19 68 -38 68 -42 0 -5 4 -8 9 -8 5 0 78 -40
162 -89 l154 -88 1277 0 c1060 0 1275 2 1271 13 -3 7 -8 12 -11 11 -4 -1 -32
14 -62 33 -30 19 -57 34 -60 35 -3 0 -48 26 -100 57 -52 31 -109 64 -127 74
-18 11 -68 40 -112 67 -44 26 -84 47 -89 47 -5 0 -17 9 -27 20 -9 10 -20 18
-24 17 -3 -1 -60 31 -126 70 -66 39 -136 80 -155 90 -19 11 -69 40 -110 65
-41 24 -82 47 -90 51 -8 4 -33 19 -55 32 -22 14 -48 28 -57 32 -10 3 -18 8
-18 12 0 3 -15 13 -32 20 -18 8 -55 29 -83 46 -83 53 -173 105 -179 105 -4 0
-19 8 -34 19 -49 34 -202 121 -212 121 -6 0 -10 4 -10 8 0 4 -12 13 -27 20
-16 7 -37 18 -48 25 -41 25 -141 83 -155 90 -8 4 -28 16 -45 27 -16 11 -37 23
-45 27 -8 4 -75 43 -150 87 -74 43 -145 84 -157 90 -13 6 -23 14 -23 19 0 4
-5 7 -11 7 -7 0 -49 23 -95 50 -46 28 -87 50 -93 50 -5 0 -11 3 -13 8 -4 9
-57 41 -80 49 -10 3 -18 9 -18 14 0 5 -5 9 -10 9 -6 0 -47 21 -91 48 -44 26
-101 60 -127 75 -26 15 -58 33 -72 40 -14 6 -27 14 -30 17 -3 4 -25 18 -50 32
-25 13 -85 49 -135 78 -49 29 -110 64 -135 78 -25 14 -74 42 -109 64 -34 21
-67 38 -71 38 -5 0 -15 6 -22 13 -14 12 -27 20 -107 65 -25 14 -63 36 -83 49
-21 12 -42 23 -48 23 -5 0 -10 4 -10 9 0 5 -8 11 -17 14 -10 4 -38 18 -63 33
-216 128 -362 189 -501 209 -16 3 -44 7 -62 11 -63 12 -303 11 -372 -1z"/>
</g>
</svg>
